<svg version="1.1" viewBox="0.0 0.0 960.0 720.0" fill="none" stroke="none" stroke-linecap="square" stroke-miterlimit="10" xmlns:xlink="http://www.w3.org/1999/xlink" xmlns="http://www.w3.org/2000/svg"><clipPath id="p.0"><path d="m0 0l960.0 0l0 720.0l-960.0 0l0 -720.0z" clip-rule="nonzero"/></clipPath><g clip-path="url(#p.0)"><path fill="#000000" fill-opacity="0.0" d="m0 0l960.0 0l0 720.0l-960.0 0z" fill-rule="evenodd"/><path fill="#cfe2f3" d="m643.3333 270.5223l272.66144 0l0 80.944885l-272.66144 0z" fill-rule="evenodd"/><path stroke="#000000" stroke-width="1.0" stroke-linejoin="round" stroke-linecap="butt" d="m643.3333 270.5223l272.66144 0l0 80.944885l-272.66144 0z" fill-rule="evenodd"/><path fill="#000000" d="m681.8347 317.53976l-0.4375 1.421875l-8.171875 0q-2.96875 0 -4.828125 -1.796875q-1.40625 1.796875 -2.8125 2.609375l-0.96875 -1.484375q1.5625 -0.828125 2.828125 -2.3125q-1.421875 -2.375 -1.859375 -3.921875l1.265625 -0.296875q0.359375 1.1875 1.328125 2.8125q0.671875 -1.859375 0.671875 -3.640625l0 -0.65625l-1.5625 0l-0.671875 0.953125l-1.40625 -0.59375q1.640625 -2.734375 2.96875 -5.484375l-3.046875 0l0 -1.40625l3.34375 0l0.296875 -0.375l1.484375 1.109375q0.15625 0.15625 -0.296875 0.296875l-2.0 4.078125l2.375 0l0 1.125q0 3.625 -1.1875 6.0q1.484375 1.5625 4.671875 1.5625l8.015625 0zm-6.96875 -10.765625l0 -1.25l-3.5 0l0 -1.1875l3.5 0l0 -1.859375l1.1875 0q0.59375 0.078125 0.0625 0.4375l0 1.421875l3.859375 0l0 2.4375l1.484375 0l0 1.1875l-1.484375 0l0 2.53125l-3.859375 0l0 1.03125l4.09375 0l0 1.1875l-4.09375 0l0 1.421875l4.984375 0l0 1.1875l-4.984375 0l0 1.625l-1.25 0l0 -1.625l-4.390625 0l0 -1.1875l4.390625 0l0 -1.421875l-3.421875 0l0 -1.1875l3.421875 0l0 -1.03125l-3.5 0l0 -1.1875l3.5 0l0 -1.34375l-4.828125 0l0 -1.1875l4.828125 0zm3.859375 1.1875l-2.609375 0l0 1.34375l2.609375 0l0 -1.34375zm0 -2.4375l-2.609375 0l0 1.25l2.609375 0l0 -1.25zm21.671875 11.34375l0 1.640625l-16.484375 0l0 -1.640625l8.90625 0q1.5625 -4.21875 2.234375 -8.53125l2.078125 0.671875q0.296875 0.296875 -0.234375 0.375q-0.8125 3.78125 -2.375 7.484375l5.875 0zm-11.875 -8.15625q1.109375 2.15625 1.921875 6.234375l-1.703125 0.515625q-0.96875 -4.078125 -1.78125 -6.15625l1.5625 -0.59375zm2.671875 -5.9375l1.625 0q0.75 0.140625 0.078125 0.59375l0 2.515625l6.53125 0l0 1.640625l-14.546875 0l0 -1.640625l6.3125 0l0 -3.109375z" fill-rule="nonzero"/><path fill="#000000" d="m706.6274 321.6179l0 -1.1875l10.859375 0l0 1.1875l-10.859375 0zm10.375732 0l0 -1.1875l10.859375 0l0 1.1875l-10.859375 0zm12.125732 -3.703125l0 -13.359375l9.65625 0l0 1.578125l-7.875 0l0 4.09375l7.375 0l0 1.5625l-7.375 0l0 4.546875l8.1875 0l0 1.578125l-9.96875 0zm12.5060425 0l0 -13.359375l9.015625 0l0 1.578125l-7.25 0l0 4.140625l6.265625 0l0 1.578125l-6.265625 0l0 6.0625l-1.765625 0zm11.255371 0l0 -13.359375l2.65625 0l3.15625 9.453125q0.4375 1.328125 0.640625 1.984375q0.234375 -0.734375 0.703125 -2.140625l3.203125 -9.296875l2.375 0l0 13.359375l-1.703125 0l0 -11.171875l-3.875 11.171875l-1.59375 0l-3.859375 -11.375l0 11.375l-1.703125 0zm15.3845215 -11.46875l0 -1.890625l1.640625 0l0 1.890625l-1.640625 0zm0 11.46875l0 -9.671875l1.640625 0l0 9.671875l-1.640625 0zm3.8323364 0.796875l1.59375 0.234375q0.109375 0.75 0.5625 1.078125q0.609375 0.453125 1.671875 0.453125q1.140625 0 1.75 -0.453125q0.625 -0.453125 0.84375 -1.265625q0.125 -0.5 0.109375 -2.109375q-1.0625 1.265625 -2.671875 1.265625q-2.0 0 -3.09375 -1.4375q-1.09375 -1.4375 -1.09375 -3.453125q0 -1.390625 0.5 -2.5625q0.515625 -1.171875 1.453125 -1.796875q0.953125 -0.640625 2.25 -0.640625q1.703125 0 2.8125 1.375l0 -1.15625l1.515625 0l0 8.359375q0 2.265625 -0.46875 3.203125q-0.453125 0.9375 -1.453125 1.484375q-0.984375 0.546875 -2.453125 0.546875q-1.71875 0 -2.796875 -0.78125q-1.0625 -0.765625 -1.03125 -2.34375zm1.359375 -5.8125q0 1.90625 0.75 2.78125q0.765625 0.875 1.90625 0.875q1.125 0 1.890625 -0.859375q0.765625 -0.875 0.765625 -2.734375q0 -1.78125 -0.796875 -2.671875q-0.78125 -0.90625 -1.890625 -0.90625q-1.09375 0 -1.859375 0.890625q-0.765625 0.875 -0.765625 2.625zm9.313232 5.015625l0 -9.671875l1.46875 0l0 1.46875q0.5625 -1.03125 1.03125 -1.359375q0.484375 -0.328125 1.0625 -0.328125q0.828125 0 1.6875 0.53125l-0.5625 1.515625q-0.609375 -0.359375 -1.203125 -0.359375q-0.546875 0 -0.96875 0.328125q-0.421875 0.328125 -0.609375 0.890625q-0.28125 0.875 -0.28125 1.921875l0 5.0625l-1.625 0zm12.5407715 -1.1875q-0.921875 0.765625 -1.765625 1.09375q-0.828125 0.3125 -1.796875 0.3125q-1.59375 0 -2.453125 -0.78125q-0.859375 -0.78125 -0.859375 -1.984375q0 -0.71875 0.328125 -1.296875q0.328125 -0.59375 0.84375 -0.9375q0.53125 -0.359375 1.1875 -0.546875q0.46875 -0.125 1.453125 -0.25q1.984375 -0.234375 2.921875 -0.5625q0.015625 -0.34375 0.015625 -0.421875q0 -1.0 -0.46875 -1.421875q-0.625 -0.546875 -1.875 -0.546875q-1.15625 0 -1.703125 0.40625q-0.546875 0.40625 -0.8125 1.421875l-1.609375 -0.21875q0.21875 -1.015625 0.71875 -1.640625q0.5 -0.640625 1.453125 -0.984375q0.953125 -0.34375 2.1875 -0.34375q1.25 0 2.015625 0.296875q0.78125 0.28125 1.140625 0.734375q0.375 0.4375 0.515625 1.109375q0.078125 0.421875 0.078125 1.515625l0 2.1875q0 2.28125 0.109375 2.890625q0.109375 0.59375 0.40625 1.15625l-1.703125 0q-0.265625 -0.515625 -0.328125 -1.1875zm-0.140625 -3.671875q-0.890625 0.375 -2.671875 0.625q-1.015625 0.140625 -1.4375 0.328125q-0.421875 0.1875 -0.65625 0.53125q-0.21875 0.34375 -0.21875 0.78125q0 0.65625 0.5 1.09375q0.5 0.4375 1.453125 0.4375q0.9375 0 1.671875 -0.40625q0.75 -0.421875 1.09375 -1.140625q0.265625 -0.5625 0.265625 -1.640625l0 -0.609375zm7.7819824 3.390625l0.234375 1.453125q-0.6875 0.140625 -1.234375 0.140625q-0.890625 0 -1.390625 -0.28125q-0.484375 -0.28125 -0.6875 -0.734375q-0.203125 -0.46875 -0.203125 -1.9375l0 -5.578125l-1.203125 0l0 -1.265625l1.203125 0l0 -2.390625l1.625 -0.984375l0 3.375l1.65625 0l0 1.265625l-1.65625 0l0 5.671875q0 0.6875 0.078125 0.890625q0.09375 0.203125 0.28125 0.328125q0.203125 0.109375 0.578125 0.109375q0.265625 0 0.71875 -0.0625zm1.6051636 -10.0l0 -1.890625l1.640625 0l0 1.890625l-1.640625 0zm0 11.46875l0 -9.671875l1.640625 0l0 9.671875l-1.640625 0zm3.5354614 -4.84375q0 -2.6875 1.484375 -3.96875q1.25 -1.078125 3.046875 -1.078125q2.0 0 3.265625 1.3125q1.265625 1.296875 1.265625 3.609375q0 1.859375 -0.5625 2.9375q-0.5625 1.0625 -1.640625 1.65625q-1.0625 0.59375 -2.328125 0.59375q-2.03125 0 -3.28125 -1.296875q-1.25 -1.3125 -1.25 -3.765625zm1.6875 0q0 1.859375 0.796875 2.796875q0.8125 0.921875 2.046875 0.921875q1.21875 0 2.03125 -0.921875q0.8125 -0.9375 0.8125 -2.84375q0 -1.796875 -0.8125 -2.71875q-0.8125 -0.921875 -2.03125 -0.921875q-1.234375 0 -2.046875 0.921875q-0.796875 0.90625 -0.796875 2.765625zm9.297607 4.84375l0 -9.671875l1.46875 0l0 1.375q1.0625 -1.59375 3.078125 -1.59375q0.875 0 1.609375 0.3125q0.734375 0.3125 1.09375 0.828125q0.375 0.5 0.515625 1.203125q0.09375 0.453125 0.09375 1.59375l0 5.953125l-1.640625 0l0 -5.890625q0 -1.0 -0.203125 -1.484375q-0.1875 -0.5 -0.671875 -0.796875q-0.484375 -0.296875 -1.140625 -0.296875q-1.046875 0 -1.8125 0.671875q-0.75 0.65625 -0.75 2.515625l0 5.28125l-1.640625 0zm9.719482 -2.890625l1.625 -0.25q0.125 0.96875 0.75 1.5q0.625 0.515625 1.75 0.515625q1.125 0 1.671875 -0.453125q0.546875 -0.46875 0.546875 -1.09375q0 -0.546875 -0.484375 -0.875q-0.328125 -0.21875 -1.671875 -0.546875q-1.8125 -0.46875 -2.515625 -0.796875q-0.6875 -0.328125 -1.046875 -0.90625q-0.359375 -0.59375 -0.359375 -1.3125q0 -0.640625 0.296875 -1.1875q0.296875 -0.5625 0.8125 -0.921875q0.375 -0.28125 1.03125 -0.46875q0.671875 -0.203125 1.421875 -0.203125q1.140625 0 2.0 0.328125q0.859375 0.328125 1.265625 0.890625q0.421875 0.5625 0.578125 1.5l-1.609375 0.21875q-0.109375 -0.75 -0.640625 -1.171875q-0.515625 -0.421875 -1.46875 -0.421875q-1.140625 0 -1.625 0.375q-0.46875 0.375 -0.46875 0.875q0 0.3125 0.1875 0.578125q0.203125 0.265625 0.640625 0.4375q0.234375 0.09375 1.4375 0.421875q1.75 0.453125 2.4375 0.75q0.6875 0.296875 1.078125 0.859375q0.390625 0.5625 0.390625 1.40625q0 0.828125 -0.484375 1.546875q-0.46875 0.71875 -1.375 1.125q-0.90625 0.390625 -2.046875 0.390625q-1.875 0 -2.875 -0.78125q-0.984375 -0.78125 -1.25 -2.328125zm10.25 2.890625l0 -13.359375l1.765625 0l0 5.484375l6.9375 0l0 -5.484375l1.765625 0l0 13.359375l-1.765625 0l0 -6.296875l-6.9375 0l0 6.296875l-1.765625 0zm13.207275 -11.46875l0 -1.890625l1.640625 0l0 1.890625l-1.640625 0zm0 11.46875l0 -9.671875l1.640625 0l0 9.671875l-1.640625 0zm3.4885864 -2.890625l1.625 -0.25q0.125 0.96875 0.75 1.5q0.625 0.515625 1.75 0.515625q1.125 0 1.671875 -0.453125q0.546875 -0.46875 0.546875 -1.09375q0 -0.546875 -0.484375 -0.875q-0.328125 -0.21875 -1.671875 -0.546875q-1.8125 -0.46875 -2.515625 -0.796875q-0.6875 -0.328125 -1.046875 -0.90625q-0.359375 -0.59375 -0.359375 -1.3125q0 -0.640625 0.296875 -1.1875q0.296875 -0.5625 0.8125 -0.921875q0.375 -0.28125 1.03125 -0.46875q0.671875 -0.203125 1.421875 -0.203125q1.140625 0 2.0 0.328125q0.859375 0.328125 1.265625 0.890625q0.421875 0.5625 0.578125 1.5l-1.609375 0.21875q-0.109375 -0.75 -0.640625 -1.171875q-0.515625 -0.421875 -1.46875 -0.421875q-1.140625 0 -1.625 0.375q-0.46875 0.375 -0.46875 0.875q0 0.3125 0.1875 0.578125q0.203125 0.265625 0.640625 0.4375q0.234375 0.09375 1.4375 0.421875q1.75 0.453125 2.4375 0.75q0.6875 0.296875 1.078125 0.859375q0.390625 0.5625 0.390625 1.40625q0 0.828125 -0.484375 1.546875q-0.46875 0.71875 -1.375 1.125q-0.90625 0.390625 -2.046875 0.390625q-1.875 0 -2.875 -0.78125q-0.984375 -0.78125 -1.25 -2.328125zm13.5625 1.421875l0.234375 1.453125q-0.6875 0.140625 -1.234375 0.140625q-0.890625 0 -1.390625 -0.28125q-0.484375 -0.28125 -0.6875 -0.734375q-0.203125 -0.46875 -0.203125 -1.9375l0 -5.578125l-1.203125 0l0 -1.265625l1.203125 0l0 -2.390625l1.625 -0.984375l0 3.375l1.65625 0l0 1.265625l-1.65625 0l0 5.671875q0 0.6875 0.078125 0.890625q0.09375 0.203125 0.28125 0.328125q0.203125 0.109375 0.578125 0.109375q0.265625 0 0.71875 -0.0625zm0.9957886 -3.375q0 -2.6875 1.484375 -3.96875q1.25 -1.078125 3.046875 -1.078125q2.0 0 3.265625 1.3125q1.265625 1.296875 1.265625 3.609375q0 1.859375 -0.5625 2.9375q-0.5625 1.0625 -1.640625 1.65625q-1.0625 0.59375 -2.328125 0.59375q-2.03125 0 -3.28125 -1.296875q-1.25 -1.3125 -1.25 -3.765625zm1.6875 0q0 1.859375 0.796875 2.796875q0.8125 0.921875 2.046875 0.921875q1.21875 0 2.03125 -0.921875q0.8125 -0.9375 0.8125 -2.84375q0 -1.796875 -0.8125 -2.71875q-0.8125 -0.921875 -2.03125 -0.921875q-1.234375 0 -2.046875 0.921875q-0.796875 0.90625 -0.796875 2.765625zm9.281982 4.84375l0 -9.671875l1.46875 0l0 1.46875q0.5625 -1.03125 1.03125 -1.359375q0.484375 -0.328125 1.0625 -0.328125q0.828125 0 1.6875 0.53125l-0.5625 1.515625q-0.609375 -0.359375 -1.203125 -0.359375q-0.546875 0 -0.96875 0.328125q-0.421875 0.328125 -0.609375 0.890625q-0.28125 0.875 -0.28125 1.921875l0 5.0625l-1.625 0zm6.1502075 3.71875l-0.1875 -1.53125q0.546875 0.140625 0.9375 0.140625q0.546875 0 0.875 -0.1875q0.328125 -0.171875 0.546875 -0.5q0.15625 -0.25 0.5 -1.21875q0.046875 -0.140625 0.140625 -0.40625l-3.671875 -9.6875l1.765625 0l2.015625 5.59375q0.390625 1.078125 0.703125 2.25q0.28125 -1.125 0.671875 -2.203125l2.078125 -5.640625l1.640625 0l-3.6875 9.828125q-0.59375 1.609375 -0.921875 2.203125q-0.4375 0.8125 -1.0 1.1875q-0.5625 0.375 -1.34375 0.375q-0.484375 0 -1.0625 -0.203125z" fill-rule="nonzero"/><path fill="#cfe2f3" d="m52.564304 127.80052l278.12598 -64.61417l278.126 64.61417l-278.126 64.61418z" fill-rule="evenodd"/><path stroke="#000000" stroke-width="1.0" stroke-linejoin="round" stroke-linecap="butt" d="m52.564304 127.80052l278.12598 -64.61417l278.126 64.61417l-278.126 64.61418z" fill-rule="evenodd"/><path fill="#000000" d="m201.73668 134.87677q2.90625 -1.265625 3.9375 -5.203125l1.640625 0.4375q0.296875 0.296875 -0.234375 0.375l-0.515625 1.34375q1.40625 1.625 3.046875 2.140625l0 -5.046875l-7.28125 0l0 -1.40625l16.03125 0l0 1.40625l-7.265625 0l0 1.71875l5.34375 0l0 1.40625l-5.34375 0l0 2.375l7.34375 0l-0.375 1.40625l-5.9375 0q-4.0 0 -6.15625 -2.75q-1.484375 2.3125 -3.34375 3.203125l-0.890625 -1.40625zm12.46875 -12.328125l0 -1.40625l-7.9375 0l0 1.40625l7.9375 0zm1.484375 3.78125l-10.90625 0l0 -6.375l10.90625 0l0 6.375zm-1.484375 -1.1875l0 -1.40625l-7.9375 0l0 1.40625l7.9375 0zm14.1875 -0.734375q-2.828125 3.03125 -7.203125 4.59375l-0.515625 -1.5625q5.40625 -2.078125 8.015625 -5.78125l-7.65625 0l0 -1.40625l16.03125 0l0 1.40625l-6.53125 0l-0.65625 1.03125l0 5.5l-1.484375 0l0 -3.78125zm4.890625 9.71875l0 -3.71875l-8.3125 0l0 3.71875l8.3125 0zm-8.3125 2.296875l-1.484375 0l0 -7.421875l11.28125 0l0 7.203125l-1.484375 0l0 -0.671875l-8.3125 0l0 0.890625zm6.53125 -12.546875q3.265625 1.125 5.859375 3.046875l-0.890625 1.40625q-2.96875 -2.078125 -5.78125 -3.1875l0.8125 -1.265625zm8.171875 5.796875q4.375 -2.453125 5.640625 -6.3125l-4.984375 0l0 -1.40625l5.34375 0q0.234375 -0.890625 0.375 -2.671875l1.9375 0.375q0.296875 0.296875 -0.234375 0.359375l-0.359375 1.9375l8.906235 0l0 1.40625l-9.20311 0q-0.296875 1.046875 -0.671875 1.703125l7.34375 0l0 9.875q0 1.1875 -1.1875 1.1875l-1.703125 0l-0.375 -1.40625l1.484375 0q0.296875 0 0.296875 -0.296875l0 -2.0l-6.453125 0l0 3.9375l-1.484375 0l0 -8.171875q-1.78125 1.859375 -3.78125 3.046875l-0.890625 -1.5625zm6.15625 -0.296875l0 1.625l6.453125 0l0 -1.625l-6.453125 0zm6.453125 -1.40625l0 -1.484375l-6.453125 0l0 1.484375l6.453125 0z" fill-rule="nonzero"/><path fill="#000000" d="m262.52936 138.42365l0 -1.1875l10.859375 0l0 1.1875l-10.859375 0zm10.375702 0l0 -1.1875l10.859375 0l0 1.1875l-10.859375 0zm12.125732 -3.703125l0 -13.359375l9.65625 0l0 1.578125l-7.875 0l0 4.09375l7.375 0l0 1.5625l-7.375 0l0 4.546875l8.1875 0l0 1.578125l-9.96875 0zm12.506073 0l0 -13.359375l9.015625 0l0 1.578125l-7.25 0l0 4.140625l6.265625 0l0 1.578125l-6.265625 0l0 6.0625l-1.765625 0zm11.255341 0l0 -13.359375l2.65625 0l3.15625 9.453125q0.4375 1.328125 0.640625 1.984375q0.234375 -0.734375 0.703125 -2.140625l3.203125 -9.296875l2.375 0l0 13.359375l-1.703125 0l0 -11.171875l-3.875 11.171875l-1.59375 0l-3.859375 -11.375l0 11.375l-1.703125 0zm15.384552 -11.46875l0 -1.890625l1.640625 0l0 1.890625l-1.640625 0zm0 11.46875l0 -9.671875l1.640625 0l0 9.671875l-1.640625 0zm3.8323364 0.796875l1.59375 0.234375q0.109375 0.75 0.5625 1.078125q0.609375 0.453125 1.671875 0.453125q1.140625 0 1.75 -0.453125q0.625 -0.453125 0.84375 -1.265625q0.125 -0.5 0.109375 -2.109375q-1.0625 1.265625 -2.671875 1.265625q-2.0 0 -3.09375 -1.4375q-1.09375 -1.4375 -1.09375 -3.453125q0 -1.390625 0.5 -2.5625q0.515625 -1.171875 1.453125 -1.796875q0.953125 -0.640625 2.25 -0.640625q1.703125 0 2.8125 1.375l0 -1.15625l1.515625 0l0 8.359375q0 2.265625 -0.46875 3.203125q-0.453125 0.9375 -1.453125 1.484375q-0.984375 0.546875 -2.453125 0.546875q-1.71875 0 -2.796875 -0.78125q-1.0625 -0.765625 -1.03125 -2.34375zm1.359375 -5.8125q0 1.90625 0.75 2.78125q0.765625 0.875 1.90625 0.875q1.125 0 1.890625 -0.859375q0.765625 -0.875 0.765625 -2.734375q0 -1.78125 -0.796875 -2.671875q-0.78125 -0.90625 -1.890625 -0.90625q-1.09375 0 -1.859375 0.890625q-0.765625 0.875 -0.765625 2.625zm9.313202 5.015625l0 -9.671875l1.46875 0l0 1.46875q0.5625 -1.03125 1.03125 -1.359375q0.484375 -0.328125 1.0625 -0.328125q0.828125 0 1.6875 0.53125l-0.5625 1.515625q-0.609375 -0.359375 -1.203125 -0.359375q-0.546875 0 -0.96875 0.328125q-0.421875 0.328125 -0.609375 0.890625q-0.28125 0.875 -0.28125 1.921875l0 5.0625l-1.625 0zm12.540802 -1.1875q-0.921875 0.765625 -1.765625 1.09375q-0.828125 0.3125 -1.796875 0.3125q-1.59375 0 -2.453125 -0.78125q-0.859375 -0.78125 -0.859375 -1.984375q0 -0.71875 0.328125 -1.296875q0.328125 -0.59375 0.84375 -0.9375q0.53125 -0.359375 1.1875 -0.546875q0.46875 -0.125 1.453125 -0.25q1.984375 -0.234375 2.921875 -0.5625q0.015625 -0.34375 0.015625 -0.421875q0 -1.0 -0.46875 -1.421875q-0.625 -0.546875 -1.875 -0.546875q-1.15625 0 -1.703125 0.40625q-0.546875 0.40625 -0.8125 1.421875l-1.609375 -0.21875q0.21875 -1.015625 0.71875 -1.640625q0.5 -0.640625 1.453125 -0.984375q0.953125 -0.34375 2.1875 -0.34375q1.25 0 2.015625 0.296875q0.78125 0.28125 1.140625 0.734375q0.375 0.4375 0.515625 1.109375q0.078125 0.421875 0.078125 1.515625l0 2.1875q0 2.28125 0.109375 2.890625q0.109375 0.59375 0.40625 1.15625l-1.703125 0q-0.265625 -0.515625 -0.328125 -1.1875zm-0.140625 -3.671875q-0.890625 0.375 -2.671875 0.625q-1.015625 0.140625 -1.4375 0.328125q-0.421875 0.1875 -0.65625 0.53125q-0.21875 0.34375 -0.21875 0.78125q0 0.65625 0.5 1.09375q0.5 0.4375 1.453125 0.4375q0.9375 0 1.671875 -0.40625q0.75 -0.421875 1.09375 -1.140625q0.265625 -0.5625 0.265625 -1.640625l0 -0.609375zm7.7819824 3.390625l0.234375 1.453125q-0.6875 0.140625 -1.234375 0.140625q-0.890625 0 -1.390625 -0.28125q-0.484375 -0.28125 -0.6875 -0.734375q-0.203125 -0.46875 -0.203125 -1.9375l0 -5.578125l-1.203125 0l0 -1.265625l1.203125 0l0 -2.390625l1.625 -0.984375l0 3.375l1.65625 0l0 1.265625l-1.65625 0l0 5.671875q0 0.6875 0.078125 0.890625q0.09375 0.203125 0.28125 0.328125q0.203125 0.109375 0.578125 0.109375q0.265625 0 0.71875 -0.0625zm1.6051636 -10.0l0 -1.890625l1.640625 0l0 1.890625l-1.640625 0zm0 11.46875l0 -9.671875l1.640625 0l0 9.671875l-1.640625 0zm3.5354614 -4.84375q0 -2.6875 1.484375 -3.96875q1.25 -1.078125 3.046875 -1.078125q2.0 0 3.265625 1.3125q1.265625 1.296875 1.265625 3.609375q0 1.859375 -0.5625 2.9375q-0.5625 1.0625 -1.640625 1.65625q-1.0625 0.59375 -2.328125 0.59375q-2.03125 0 -3.28125 -1.296875q-1.25 -1.3125 -1.25 -3.765625zm1.6875 0q0 1.859375 0.796875 2.796875q0.8125 0.921875 2.046875 0.921875q1.21875 0 2.03125 -0.921875q0.8125 -0.9375 0.8125 -2.84375q0 -1.796875 -0.8125 -2.71875q-0.8125 -0.921875 -2.03125 -0.921875q-1.234375 0 -2.046875 0.921875q-0.796875 0.90625 -0.796875 2.765625zm9.297577 4.84375l0 -9.671875l1.46875 0l0 1.375q1.0625 -1.59375 3.078125 -1.59375q0.875 0 1.609375 0.3125q0.734375 0.3125 1.09375 0.828125q0.375 0.5 0.515625 1.203125q0.09375 0.453125 0.09375 1.59375l0 5.953125l-1.640625 0l0 -5.890625q0 -1.0 -0.203125 -1.484375q-0.1875 -0.5 -0.671875 -0.796875q-0.484375 -0.296875 -1.140625 -0.296875q-1.046875 0 -1.8125 0.671875q-0.75 0.65625 -0.75 2.515625l0 5.28125l-1.640625 0zm10.641357 0l0 -13.359375l1.765625 0l0 5.484375l6.9375 0l0 -5.484375l1.765625 0l0 13.359375l-1.765625 0l0 -6.296875l-6.9375 0l0 6.296875l-1.765625 0zm13.207306 -11.46875l0 -1.890625l1.640625 0l0 1.890625l-1.640625 0zm0 11.46875l0 -9.671875l1.640625 0l0 9.671875l-1.640625 0zm3.4885864 -2.890625l1.625 -0.25q0.125 0.96875 0.75 1.5q0.625 0.515625 1.75 0.515625q1.125 0 1.671875 -0.453125q0.546875 -0.46875 0.546875 -1.09375q0 -0.546875 -0.484375 -0.875q-0.328125 -0.21875 -1.671875 -0.546875q-1.8125 -0.46875 -2.515625 -0.796875q-0.6875 -0.328125 -1.046875 -0.90625q-0.359375 -0.59375 -0.359375 -1.3125q0 -0.640625 0.296875 -1.1875q0.296875 -0.5625 0.8125 -0.921875q0.375 -0.28125 1.03125 -0.46875q0.671875 -0.203125 1.421875 -0.203125q1.140625 0 2.0 0.328125q0.859375 0.328125 1.265625 0.890625q0.421875 0.5625 0.578125 1.5l-1.609375 0.21875q-0.109375 -0.75 -0.640625 -1.171875q-0.515625 -0.421875 -1.46875 -0.421875q-1.140625 0 -1.625 0.375q-0.46875 0.375 -0.46875 0.875q0 0.3125 0.1875 0.578125q0.203125 0.265625 0.640625 0.4375q0.234375 0.09375 1.4375 0.421875q1.75 0.453125 2.4375 0.75q0.6875 0.296875 1.078125 0.859375q0.390625 0.5625 0.390625 1.40625q0 0.828125 -0.484375 1.546875q-0.46875 0.71875 -1.375 1.125q-0.90625 0.390625 -2.046875 0.390625q-1.875 0 -2.875 -0.78125q-0.984375 -0.78125 -1.25 -2.328125zm13.5625 1.421875l0.234375 1.453125q-0.6875 0.140625 -1.234375 0.140625q-0.890625 0 -1.390625 -0.28125q-0.484375 -0.28125 -0.6875 -0.734375q-0.203125 -0.46875 -0.203125 -1.9375l0 -5.578125l-1.203125 0l0 -1.265625l1.203125 0l0 -2.390625l1.625 -0.984375l0 3.375l1.65625 0l0 1.265625l-1.65625 0l0 5.671875q0 0.6875 0.078125 0.890625q0.09375 0.203125 0.28125 0.328125q0.203125 0.109375 0.578125 0.109375q0.265625 0 0.71875 -0.0625zm0.9957886 -3.375q0 -2.6875 1.484375 -3.96875q1.25 -1.078125 3.046875 -1.078125q2.0 0 3.265625 1.3125q1.265625 1.296875 1.265625 3.609375q0 1.859375 -0.5625 2.9375q-0.5625 1.0625 -1.640625 1.65625q-1.0625 0.59375 -2.328125 0.59375q-2.03125 0 -3.28125 -1.296875q-1.25 -1.3125 -1.25 -3.765625zm1.6875 0q0 1.859375 0.796875 2.796875q0.8125 0.921875 2.046875 0.921875q1.21875 0 2.03125 -0.921875q0.8125 -0.9375 0.8125 -2.84375q0 -1.796875 -0.8125 -2.71875q-0.8125 -0.921875 -2.03125 -0.921875q-1.234375 0 -2.046875 0.921875q-0.796875 0.90625 -0.796875 2.765625zm9.281982 4.84375l0 -9.671875l1.46875 0l0 1.46875q0.5625 -1.03125 1.03125 -1.359375q0.484375 -0.328125 1.0625 -0.328125q0.828125 0 1.6875 0.53125l-0.5625 1.515625q-0.609375 -0.359375 -1.203125 -0.359375q-0.546875 0 -0.96875 0.328125q-0.421875 0.328125 -0.609375 0.890625q-0.28125 0.875 -0.28125 1.921875l0 5.0625l-1.625 0zm6.150177 3.71875l-0.1875 -1.53125q0.546875 0.140625 0.9375 0.140625q0.546875 0 0.875 -0.1875q0.328125 -0.171875 0.546875 -0.5q0.15625 -0.25 0.5 -1.21875q0.046875 -0.140625 0.140625 -0.40625l-3.671875 -9.6875l1.765625 0l2.015625 5.59375q0.390625 1.078125 0.703125 2.25q0.28125 -1.125 0.671875 -2.203125l2.078125 -5.640625l1.640625 0l-3.6875 9.828125q-0.59375 1.609375 -0.921875 2.203125q-0.4375 0.8125 -1.0 1.1875q-0.5625 0.375 -1.34375 0.375q-0.484375 0 -1.0625 -0.203125zm17.652039 -7.0q0 -0.328125 0 -0.5q0 -0.96875 0.265625 -1.671875q0.203125 -0.515625 0.640625 -1.0625q0.328125 -0.390625 1.171875 -1.140625q0.859375 -0.75 1.109375 -1.1875q0.265625 -0.453125 0.265625 -0.984375q0 -0.953125 -0.75 -1.671875q-0.734375 -0.734375 -1.828125 -0.734375q-1.046875 0 -1.75 0.65625q-0.703125 0.65625 -0.921875 2.046875l-1.6875 -0.203125q0.234375 -1.859375 1.359375 -2.84375q1.125 -1.0 2.96875 -1.0q1.96875 0 3.125 1.0625q1.171875 1.0625 1.171875 2.578125q0 0.875 -0.40625 1.609375q-0.40625 0.734375 -1.609375 1.796875q-0.796875 0.703125 -1.046875 1.046875q-0.25 0.34375 -0.375 0.78125q-0.109375 0.4375 -0.125 1.421875l-1.578125 0zm-0.09375 3.28125l0 -1.875l1.859375 0l0 1.875l-1.859375 0z" fill-rule="nonzero"/><path fill="#000000" fill-opacity="0.0" d="m608.8163 127.80052l170.83466 0l0 142.70866" fill-rule="evenodd"/><path stroke="#000000" stroke-width="1.0" stroke-linejoin="round" stroke-linecap="butt" d="m608.8163 127.80052l170.83466 0l0 136.70866" fill-rule="evenodd"/><path fill="#000000" stroke="#000000" stroke-width="1.0" stroke-linecap="butt" d="m777.9992 264.5092l1.6517334 4.538086l1.6517334 -4.538086z" fill-rule="evenodd"/><path fill="#cfe2f3" d="m157.96588 299.30447l345.44882 0l0 80.944855l-345.44882 0z" fill-rule="evenodd"/><path stroke="#000000" stroke-width="1.0" stroke-linejoin="round" stroke-linecap="butt" d="m157.96588 299.30447l345.44882 0l0 80.944855l-345.44882 0z" fill-rule="evenodd"/><path fill="#000000" d="m210.40797 333.9469q0 -1.171875 -0.0625 -2.265625l1.453125 0q-0.078125 1.015625 -0.078125 2.265625l4.515625 0q1.03125 0 2.484375 -0.078125l0 1.390625q-1.453125 -0.078125 -2.484375 -0.078125l-2.609375 0q0.796875 1.171875 2.390625 2.046875q1.609375 0.875 3.65625 1.375q-0.734375 0.59375 -1.03125 1.46875q-2.25 -0.8125 -3.828125 -1.96875q-1.5625 -1.171875 -2.65625 -2.921875l-0.4375 0l0 4.015625l4.59375 0q-0.078125 1.3125 -0.078125 2.90625q0 1.53125 0.078125 3.0625l-10.34375 0q0.078125 -1.390625 0.078125 -2.984375q0 -1.671875 -0.078125 -2.984375q-0.953125 0.578125 -2.265625 1.234375q-0.4375 -0.796875 -1.015625 -1.3125q1.609375 -0.359375 3.203125 -1.453125q1.609375 -1.09375 2.546875 -2.484375l-2.109375 0q-1.3125 0 -2.765625 0.078125l0 -1.390625q1.453125 0.078125 2.765625 0.078125l4.078125 0zm6.265625 12.75q1.25 0 2.40625 -0.078125l0 1.3125q-2.765625 -0.0625 -3.859375 -0.0625l-9.25 0q-1.3125 0 -2.625 0.0625l0 -1.3125q1.390625 0.078125 2.625 0.078125l10.703125 0zm-1.734375 -2.703125l0 -1.3125l-7.59375 0l0 1.3125l7.59375 0zm0 -2.390625l0 -1.25l-7.59375 0l0 1.25l7.59375 0zm-4.53125 -2.40625l0 -4.015625l-0.359375 0q-0.796875 1.234375 -1.75 2.1875q-0.953125 0.953125 -2.25 1.828125l4.359375 0z" fill-rule="nonzero"/><path fill="#000000" d="m229.15797 346.40002l0 -8.984375l-0.96875 0.96875l-0.890625 -1.40625q2.296875 -1.78125 3.34375 -5.875l1.1875 0.234375q0.890625 0.140625 0.078125 0.59375q-0.234375 0.953125 -0.59375 1.921875l6.671875 0l0 10.984375q0 3.34375 -2.21875 3.34375l-1.640625 0l-0.21875 -1.40625l1.40625 0q1.1875 0 1.1875 -2.53125l0 -8.984375l-5.859375 0q-0.59375 0.96875 -1.34375 1.9375l5.125 0l0 7.9375l-4.0 0l0 1.265625l-1.265625 0zm4.0 -5.859375l0 -2.15625l-2.734375 0l0 2.15625l2.734375 0zm-10.828125 -7.421875l0 -1.421875l4.75 0l0 1.421875l-4.75 0zm-0.890625 2.59375l0 -1.40625l6.671875 0l0 1.40625l-6.671875 0zm0.890625 2.671875l0 -1.40625l4.75 0l0 1.40625l-4.75 0zm0 2.59375l0 -1.40625l4.75 0l0 1.40625l-4.75 0zm3.703125 7.125l0 -0.59375l-2.671875 0l0 0.828125l-1.25 0l0 -6.09375l5.1875 0l0 5.859375l-1.265625 0zm-2.671875 -1.78125l2.671875 0l0 -2.890625l-2.671875 0l0 2.890625zm7.0625 -2.375l2.734375 0l0 -2.21875l-2.734375 0l0 2.21875zm11.875 -8.6875l0 6.53125l1.484375 0l0 -6.53125l-1.484375 0zm2.734375 7.796875l-2.734375 0l0 1.5625l-1.34375 0l0 -10.609375l4.078125 0l0 9.046875zm2.90625 3.421875l1.328125 0q0.21875 0 0.296875 -0.296875l0 -4.234375l-1.40625 0q0 3.5625 -2.53125 6.3125l-0.890625 -1.109375q2.078125 -2.453125 2.078125 -5.203125l-1.40625 0l0 -1.265625l1.484375 0l0 -2.890625l-1.40625 0l0 -1.265625l1.40625 0l0 -2.96875l-1.484375 0l0 -1.40625l5.5 0l0 4.375l0.953125 0l0 1.265625l-0.953125 0l0 2.890625l0.953125 0l0 1.265625l-0.953125 0l0 4.671875q0 1.265625 -1.1875 1.265625l-1.484375 0l-0.296875 -1.40625zm9.26561 -13.8125q0.453125 0.375 -0.21875 0.453125l-1.1874847 5.109375q1.8593597 2.609375 1.8593597 4.90625q0 2.8125 -1.7031097 2.8125l-1.421875 0l-0.359375 -1.40625l1.1875 0q0.81248474 0 0.81248474 -1.03125q0 -3.125 -1.7031097 -5.125l1.03125 -4.75l-1.921875 0l0 14.765625l-1.34375 0l0 -16.171875l3.5625 0l0.29685974 -0.234375l1.109375 0.671875zm-8.968735 8.015625l1.328125 0l0 -2.890625l-1.328125 0l0 2.890625zm0 -4.15625l1.328125 0l0 -2.96875l-1.328125 0l0 2.96875zm25.89061 2.828125q0.53125 0 0.59375 -0.53125l0.234375 -1.25l1.484375 0.21875l-0.296875 1.484375q-0.296875 1.484375 -1.34375 1.484375l-3.9375 0q-1.328125 0 -1.328125 -1.265625l0 -8.015625l1.40625 0q0.59375 0.078125 0.078125 0.453125l0 3.1875q1.1875 -0.453125 3.484375 -1.859375l0.96875 1.1875q0.515625 0.59375 -0.296875 0.375q-2.078125 0.8125 -4.15625 1.625l0 2.3125q0 0.59375 0.515625 0.59375l2.59375 0zm-5.40625 -0.453125l0 1.40625l-8.3125 1.125q-0.234375 0.734375 -0.453125 0.0625l-0.515625 -1.546875l1.40625 -0.15625l0 -6.453125l1.40625 0q0.59375 0.078125 0.078125 0.4375l0 5.875l1.859375 -0.234375l0 -7.9375l1.40625 0q0.59375 0.078125 0.078125 0.453125l0 2.59375l2.890625 0l0 1.40625l-2.890625 0l0 3.34375l3.046875 -0.375zm-8.90625 8.765625l0 -1.421875l16.09375 0l0 1.421875l-16.09375 0zm13.71875 -5.125l0 1.40625l-11.34375 0l0 -1.40625l11.34375 0z" fill-rule="nonzero"/><path fill="#000000" d="m284.0444 346.6969l0 -13.359375l2.65625 0l3.15625 9.453125q0.4375 1.328125 0.640625 1.984375q0.234375 -0.734375 0.703125 -2.140625l3.203125 -9.296875l2.375 0l0 13.359375l-1.703125 0l0 -11.171875l-3.875 11.171875l-1.59375 0l-3.859375 -11.375l0 11.375l-1.703125 0zm15.384552 -11.46875l0 -1.890625l1.640625 0l0 1.890625l-1.640625 0zm0 11.46875l0 -9.671875l1.640625 0l0 9.671875l-1.640625 0zm3.832306 0.796875l1.59375 0.234375q0.109375 0.75 0.5625 1.078125q0.609375 0.453125 1.671875 0.453125q1.140625 0 1.75 -0.453125q0.625 -0.453125 0.84375 -1.265625q0.125 -0.5 0.109375 -2.109375q-1.0625 1.265625 -2.671875 1.265625q-2.0 0 -3.09375 -1.4375q-1.09375 -1.4375 -1.09375 -3.453125q0 -1.390625 0.5 -2.5625q0.515625 -1.171875 1.453125 -1.796875q0.953125 -0.640625 2.25 -0.640625q1.703125 0 2.8125 1.375l0 -1.15625l1.515625 0l0 8.359375q0 2.265625 -0.46875 3.203125q-0.453125 0.9375 -1.453125 1.484375q-0.984375 0.546875 -2.453125 0.546875q-1.71875 0 -2.796875 -0.78125q-1.0625 -0.765625 -1.03125 -2.34375zm1.359375 -5.8125q0 1.90625 0.75 2.78125q0.765625 0.875 1.90625 0.875q1.125 0 1.890625 -0.859375q0.765625 -0.875 0.765625 -2.734375q0 -1.78125 -0.796875 -2.671875q-0.78125 -0.90625 -1.890625 -0.90625q-1.09375 0 -1.859375 0.890625q-0.765625 0.875 -0.765625 2.625zm9.313232 5.015625l0 -9.671875l1.46875 0l0 1.46875q0.5625 -1.03125 1.03125 -1.359375q0.484375 -0.328125 1.0625 -0.328125q0.828125 0 1.6875 0.53125l-0.5625 1.515625q-0.609375 -0.359375 -1.203125 -0.359375q-0.546875 0 -0.96875 0.328125q-0.421875 0.328125 -0.609375 0.890625q-0.28125 0.875 -0.28125 1.921875l0 5.0625l-1.625 0zm12.540802 -1.1875q-0.921875 0.765625 -1.765625 1.09375q-0.828125 0.3125 -1.796875 0.3125q-1.59375 0 -2.453125 -0.78125q-0.859375 -0.78125 -0.859375 -1.984375q0 -0.71875 0.328125 -1.296875q0.328125 -0.59375 0.84375 -0.9375q0.53125 -0.359375 1.1875 -0.546875q0.46875 -0.125 1.453125 -0.25q1.984375 -0.234375 2.921875 -0.5625q0.015625 -0.34375 0.015625 -0.421875q0 -1.0 -0.46875 -1.421875q-0.625 -0.546875 -1.875 -0.546875q-1.15625 0 -1.703125 0.40625q-0.546875 0.40625 -0.8125 1.421875l-1.609375 -0.21875q0.21875 -1.015625 0.71875 -1.640625q0.5 -0.640625 1.453125 -0.984375q0.953125 -0.34375 2.1875 -0.34375q1.25 0 2.015625 0.296875q0.78125 0.28125 1.140625 0.734375q0.375 0.4375 0.515625 1.109375q0.078125 0.421875 0.078125 1.515625l0 2.1875q0 2.28125 0.109375 2.890625q0.109375 0.59375 0.40625 1.15625l-1.703125 0q-0.265625 -0.515625 -0.328125 -1.1875zm-0.140625 -3.671875q-0.890625 0.375 -2.671875 0.625q-1.015625 0.140625 -1.4375 0.328125q-0.421875 0.1875 -0.65625 0.53125q-0.21875 0.34375 -0.21875 0.78125q0 0.65625 0.5 1.09375q0.5 0.4375 1.453125 0.4375q0.9375 0 1.671875 -0.40625q0.75 -0.421875 1.09375 -1.140625q0.265625 -0.5625 0.265625 -1.640625l0 -0.609375zm7.781952 3.390625l0.234375 1.453125q-0.6875 0.140625 -1.234375 0.140625q-0.890625 0 -1.390625 -0.28125q-0.484375 -0.28125 -0.6875 -0.734375q-0.203125 -0.46875 -0.203125 -1.9375l0 -5.578125l-1.203125 0l0 -1.265625l1.203125 0l0 -2.390625l1.625 -0.984375l0 3.375l1.65625 0l0 1.265625l-1.65625 0l0 5.671875q0 0.6875 0.078125 0.890625q0.09375 0.203125 0.28125 0.328125q0.203125 0.109375 0.578125 0.109375q0.265625 0 0.71875 -0.0625zm1.6051941 -10.0l0 -1.890625l1.640625 0l0 1.890625l-1.640625 0zm0 11.46875l0 -9.671875l1.640625 0l0 9.671875l-1.640625 0zm3.535431 -4.84375q0 -2.6875 1.484375 -3.96875q1.25 -1.078125 3.046875 -1.078125q2.0 0 3.265625 1.3125q1.265625 1.296875 1.265625 3.609375q0 1.859375 -0.5625 2.9375q-0.5625 1.0625 -1.640625 1.65625q-1.0625 0.59375 -2.328125 0.59375q-2.03125 0 -3.28125 -1.296875q-1.25 -1.3125 -1.25 -3.765625zm1.6875 0q0 1.859375 0.796875 2.796875q0.8125 0.921875 2.046875 0.921875q1.21875 0 2.03125 -0.921875q0.8125 -0.9375 0.8125 -2.84375q0 -1.796875 -0.8125 -2.71875q-0.8125 -0.921875 -2.03125 -0.921875q-1.234375 0 -2.046875 0.921875q-0.796875 0.90625 -0.796875 2.765625zm9.297607 4.84375l0 -9.671875l1.46875 0l0 1.375q1.0625 -1.59375 3.078125 -1.59375q0.875 0 1.609375 0.3125q0.734375 0.3125 1.09375 0.828125q0.375 0.5 0.515625 1.203125q0.09375 0.453125 0.09375 1.59375l0 5.953125l-1.640625 0l0 -5.890625q0 -1.0 -0.203125 -1.484375q-0.1875 -0.5 -0.671875 -0.796875q-0.484375 -0.296875 -1.140625 -0.296875q-1.046875 0 -1.8125 0.671875q-0.75 0.65625 -0.75 2.515625l0 5.28125l-1.640625 0z" fill-rule="nonzero"/><path fill="#000000" d="m368.80075 347.4469q-1.34375 0 -1.34375 -1.265625l0 -10.6875l1.640625 0q0.734375 0.140625 0.078125 0.59375l0 1.921875l8.828125 0l0 -3.9375l-11.0625 0l0 -1.625l12.765625 0l0 7.71875l-1.703125 0l0 -0.515625l-8.828125 0l0 5.40625q0 0.75 0.734375 0.75l9.359375 0q0.734375 0 0.890625 -0.890625l0.296875 -1.703125l1.703125 0.59375l-0.59375 2.4375q-0.296875 1.203125 -1.703125 1.203125l-11.0625 0zm19.078125 -10.84375l2.296875 -3.34375l1.265625 0.671875q0.59375 0.296875 -0.234375 0.4375l-3.625 4.828125l2.515625 -0.140625l-0.8125 -1.484375l1.03125 -0.53125q1.34375 1.859375 1.78125 3.34375l-1.25 0.59375l-0.296875 -0.8125l-1.640625 0.140625l0 8.03125l-1.484375 0l0 -7.875l-2.0 0.140625q-0.671875 0.671875 -0.75 -0.0625l-0.140625 -1.34375l1.40625 0l1.109375 -1.484375l-2.59375 -2.078125l0.890625 -1.109375l0.453125 0.375l2.21875 -3.71875l1.265625 0.59375q0.59375 0.375 -0.21875 0.515625l-2.234375 3.421875l1.046875 0.890625zm-1.1875 5.484375q0.59375 0.15625 0 0.453125q-0.234375 2.15625 -0.75 4.53125l-1.5625 -0.453125q0.59375 -2.0 0.890625 -4.828125l1.421875 0.296875zm3.859375 -0.359375q0.8125 1.921875 1.1875 3.625l-1.34375 0.296875q-0.375 -1.484375 -1.109375 -3.625l1.265625 -0.296875zm8.609375 -4.390625q1.1875 1.125 2.140625 2.609375l-1.328125 0.734375q-0.96875 -1.859375 -2.375 -3.1875q1.03125 -1.640625 1.78125 -3.78125l1.265625 0.359375q0.65625 0.234375 -0.078125 0.53125q-0.59375 1.40625 -1.40625 2.734375zm-4.609375 0q1.046875 -1.546875 1.703125 -3.484375l1.421875 0.296875q0.515625 0.21875 -0.15625 0.453125q-0.4375 1.1875 -1.5625 2.734375q0.96875 0.96875 2.078125 2.53125l-1.40625 0.8125q-0.734375 -1.703125 -2.078125 -3.34375zm6.09375 4.015625l0 1.40625l-3.640625 0l0 3.484375l4.453125 0l0 1.421875l-10.390625 0l0 -1.421875l4.453125 0l0 -3.484375l-3.1875 0l0 -1.40625l8.3125 0zm-8.84375 -8.015625l0 -1.40625l9.5 0l0 1.40625l-9.5 0zm2.828125 0.8125q0.671875 0.15625 -0.078125 0.453125q-0.515625 1.1875 -1.40625 2.59375q0.8125 1.03125 1.921875 2.890625l-1.40625 0.75q-0.734375 -1.71875 -2.0 -3.5q1.109375 -1.921875 1.5625 -3.5625l1.40625 0.375zm26.34375 10.3125q-0.140625 3.578125 -1.484375 3.578125q-0.671875 0 -1.1875 -1.046875q-1.03125 -2.078125 -1.03125 -5.125l0 -5.34375l-1.71875 0l0 1.9375q0 1.1875 -0.140625 2.8125q0.890625 0.890625 1.703125 1.9375l-0.890625 1.40625q-0.890625 -1.265625 -1.265625 -1.640625q-1.1875 3.5625 -4.15625 5.203125l-0.8125 -1.40625q2.96875 -1.5625 3.78125 -5.125q-0.734375 -0.75 -1.703125 -1.703125l0.75 -1.265625q0.59375 0.59375 1.1875 1.1875q0.0625 -0.75 0.0625 -1.703125l0 -1.640625l-1.84375 0l0 -1.40625l1.84375 0l0 -3.34375l1.421875 0q0.59375 0.078125 0.0625 0.453125l0 2.890625l3.203125 0l0 6.90625q0 1.703125 0.296875 2.671875q0.21875 0.8125 0.359375 0.8125q0.234375 0 0.234375 -1.859375l1.328125 0.8125zm-14.03125 -13.0625l1.421875 0q0.59375 0.078125 0.0625 0.453125l0 1.484375l2.375 0l0 1.40625l-2.375 0l0 1.703125l3.34375 0l0 1.421875l-1.484375 0l-0.734375 2.21875l1.78125 0l0 1.40625l-2.90625 0l0 1.71875l2.53125 0l0 1.40625l-2.53125 0l0 3.78125l-1.484375 0l0 -3.78125l-2.59375 0l0 -1.40625l2.59375 0l0 -1.71875l-2.96875 0l0 -1.40625l1.859375 0l-0.8125 -2.21875l-1.640625 0l0 -1.421875l3.5625 0l0 -1.703125l-2.59375 0l0 -1.40625l2.59375 0l0 -1.9375zm0.234375 8.6875l1.109375 0l0.671875 -2.21875l-2.609375 0l0.828125 2.21875zm21.078125 -7.046875q-2.3125 2.8125 -4.234375 3.9375l-0.890625 -1.34375q2.078125 -1.1875 4.15625 -3.9375l1.109375 0.96875q0.375 0.453125 -0.140625 0.375zm-1.046875 15.21875l-1.484375 0l0 -7.875q-0.734375 0.8125 -2.21875 1.78125l-0.96875 -1.484375q3.1875 -1.921875 5.421875 -5.421875l1.1875 0.96875q0.359375 0.453125 -0.15625 0.375q-0.890625 1.1875 -1.78125 2.296875l0 9.359375zm10.84375 -15.59375l0 1.40625l-8.015625 0l0 -1.40625l8.015625 0zm-8.84375 6.15625l0 -1.40625l10.328125 0l0 1.40625l-3.125 0l0 7.578125q0 1.5625 -1.265625 1.5625l-2.0 0l-0.296875 -1.421875l1.78125 0q0.296875 0 0.296875 -0.296875l0 -7.421875l-5.71875 0zm12.171875 7.578125q1.34375 -0.515625 2.671875 -1.34375l0 -4.8125l-2.21875 0l0 -1.421875l3.703125 0l0 6.171875q0.828125 1.40625 4.15625 1.40625l9.0625 0l-0.375 1.40625l-9.578125 0q-2.515625 0 -4.078125 -1.78125q-0.890625 0.890625 -2.515625 2.078125l-0.828125 -1.703125zm2.671875 -14.171875q1.484375 1.03125 2.3125 2.296875l-1.265625 1.265625q-1.109375 -1.484375 -2.296875 -2.453125l1.25 -1.109375zm7.203125 12.390625l-1.265625 0l0 -4.671875l4.90625 0l0 3.78125l-3.640625 0l0 0.890625zm2.375 -2.078125l0 -1.40625l-2.375 0l0 1.40625l2.375 0zm4.15625 1.625q0 1.265625 -1.265625 1.265625l-1.328125 0l-0.15625 -1.40625l0.96875 0q0.296875 0 0.296875 -0.296875l0 -4.828125l-7.859375 0l0 6.6875l-1.484375 0l0 -8.09375l1.625 0l0 -5.421875l7.71875 0l0 5.421875l1.484375 0l0 6.671875zm-2.75 -8.375l-2.21875 0l0 1.703125l2.21875 0l0 -1.703125zm0 -1.1875l0 -1.34375l-5.1875 0l0 4.234375l1.703125 0l0 -2.890625l3.484375 0z" fill-rule="nonzero"/><path fill="#000000" fill-opacity="0.0" d="m709.3543 88.01312l52.53546 0l0 41.196854l-52.53546 0z" fill-rule="evenodd"/><path fill="#000000" d="m719.7762 114.93312l0 -13.359375l1.8125 0l7.015625 10.484375l0 -10.484375l1.6875 0l0 13.359375l-1.8125 0l-7.015625 -10.5l0 10.5l-1.6875 0zm12.676086 -4.84375q0 -2.6875 1.484375 -3.96875q1.25 -1.078125 3.046875 -1.078125q2.0 0 3.265625 1.3125q1.265625 1.296875 1.265625 3.609375q0 1.859375 -0.5625 2.9375q-0.5625 1.0625 -1.640625 1.65625q-1.0625 0.59375 -2.328125 0.59375q-2.03125 0 -3.28125 -1.296875q-1.25 -1.3125 -1.25 -3.765625zm1.6875 0q0 1.859375 0.796875 2.796875q0.8125 0.921875 2.046875 0.921875q1.21875 0 2.03125 -0.921875q0.8125 -0.9375 0.8125 -2.84375q0 -1.796875 -0.8125 -2.71875q-0.8125 -0.921875 -2.03125 -0.921875q-1.234375 0 -2.046875 0.921875q-0.796875 0.90625 -0.796875 2.765625z" fill-rule="nonzero"/><path fill="#cfe2f3" d="m157.96588 450.21783l345.44882 0l0 80.944885l-345.44882 0z" fill-rule="evenodd"/><path stroke="#000000" stroke-width="1.0" stroke-linejoin="round" stroke-linecap="butt" d="m157.96588 450.21783l345.44882 0l0 80.944885l-345.44882 0z" fill-rule="evenodd"/><path fill="#000000" d="m232.14024 495.37592q-0.140625 3.578125 -1.484375 3.578125q-0.671875 0 -1.1875 -1.046875q-1.03125 -2.078125 -1.03125 -5.125l0 -5.34375l-1.71875 0l0 1.9375q0 1.1875 -0.140625 2.8125q0.890625 0.890625 1.703125 1.9375l-0.890625 1.40625q-0.890625 -1.265625 -1.265625 -1.640625q-1.1875 3.5625 -4.15625 5.203125l-0.8125 -1.40625q2.96875 -1.5625 3.78125 -5.125q-0.734375 -0.75 -1.703125 -1.703125l0.75 -1.265625q0.59375 0.59375 1.1875 1.1875q0.0625 -0.75 0.0625 -1.703125l0 -1.640625l-1.84375 0l0 -1.40625l1.84375 0l0 -3.34375l1.421875 0q0.59375 0.078125 0.0625 0.453125l0 2.890625l3.203125 0l0 6.90625q0 1.703125 0.296875 2.671875q0.21875 0.8125 0.359375 0.8125q0.234375 0 0.234375 -1.859375l1.328125 0.8125zm-14.03125 -13.0625l1.421875 0q0.59375 0.078125 0.0625 0.453125l0 1.484375l2.375 0l0 1.40625l-2.375 0l0 1.703125l3.34375 0l0 1.421875l-1.484375 0l-0.734375 2.21875l1.78125 0l0 1.40625l-2.90625 0l0 1.71875l2.53125 0l0 1.40625l-2.53125 0l0 3.78125l-1.484375 0l0 -3.78125l-2.59375 0l0 -1.40625l2.59375 0l0 -1.71875l-2.96875 0l0 -1.40625l1.859375 0l-0.8125 -2.21875l-1.640625 0l0 -1.421875l3.5625 0l0 -1.703125l-2.59375 0l0 -1.40625l2.59375 0l0 -1.9375zm0.234375 8.6875l1.109375 0l0.671875 -2.21875l-2.609375 0l0.828125 2.21875zm21.078125 -7.046875q-2.3125 2.8125 -4.234375 3.9375l-0.890625 -1.34375q2.078125 -1.1875 4.15625 -3.9375l1.109375 0.96875q0.375 0.453125 -0.140625 0.375zm-1.046875 15.21875l-1.484375 0l0 -7.875q-0.734375 0.8125 -2.21875 1.78125l-0.96875 -1.484375q3.1875 -1.921875 5.421875 -5.421875l1.1875 0.96875q0.359375 0.453125 -0.15625 0.375q-0.890625 1.1875 -1.78125 2.296875l0 9.359375zm10.84375 -15.59375l0 1.40625l-8.015625 0l0 -1.40625l8.015625 0zm-8.84375 6.15625l0 -1.40625l10.328125 0l0 1.40625l-3.125 0l0 7.578125q0 1.5625 -1.265625 1.5625l-2.0 0l-0.296875 -1.421875l1.78125 0q0.296875 0 0.296875 -0.296875l0 -7.421875l-5.71875 0zm16.48436 -2.8125q-1.0468597 -1.78125 -1.9374847 -2.75l1.2656097 -0.96875q1.1875 1.125 2.15625 2.828125l-1.484375 0.890625zm6.015625 9.34375l0 -0.515625l-3.71875 0l0 0.96875l-1.484375 0l0 -6.15625l6.6875 0l0 5.703125l-1.484375 0zm-3.71875 -1.921875l3.71875 0l0 -2.375l-3.71875 0l0 2.375zm2.828125 -11.796875q0.734375 0.140625 0.0625 0.59375l0 4.296875l6.171875 0l0 10.46875q0 0.96875 -0.96875 0.96875l-2.078125 0l-0.21875 -1.421875l1.484375 0q0.296875 0 0.296875 -0.296875l0 -8.3125l-11.062485 0l0 10.109375l-1.484375 0l0 -11.515625l6.1562347 0l0 -4.890625l1.640625 0zm4.96875 1.1875q0.21875 0.21875 -0.21875 0.296875q-0.671875 1.40625 -1.5625 2.96875l-1.34375 -0.671875q1.125 -2.0 1.640625 -3.34375l1.484375 0.75zm4.53125 12.390625q4.8125 -1.859375 7.265625 -5.421875l-6.53125 0l0 -1.625l7.203125 0l0 -2.234375l-5.71875 0l0 -1.625l5.71875 0l0 -2.671875l1.40625 0q0.75 0.140625 0.078125 0.59375l0 2.078125l5.5625 0l0 1.625l-5.5625 0l0 2.234375l7.265625 0l0 1.625l-6.59375 0q2.140625 3.265625 7.125 4.96875l-0.53125 1.78125q-4.515625 -1.40625 -7.265625 -5.34375l0 6.984375l-1.484375 0l0 -6.75q-3.5625 4.296875 -7.125 5.34375l-0.8125 -1.5625zm36.65625 -0.75q-0.140625 3.578125 -1.484375 3.578125q-0.671875 0 -1.1875 -1.046875q-1.03125 -2.078125 -1.03125 -5.125l0 -5.34375l-1.71875 0l0 1.9375q0 1.1875 -0.140625 2.8125q0.890625 0.890625 1.703125 1.9375l-0.890625 1.40625q-0.890625 -1.265625 -1.265625 -1.640625q-1.1875 3.5625 -4.15625 5.203125l-0.8125 -1.40625q2.96875 -1.5625 3.78125 -5.125q-0.734375 -0.75 -1.703125 -1.703125l0.75 -1.265625q0.59375 0.59375 1.1875 1.1875q0.0625 -0.75 0.0625 -1.703125l0 -1.640625l-1.84375 0l0 -1.40625l1.84375 0l0 -3.34375l1.421875 0q0.59375 0.078125 0.0625 0.453125l0 2.890625l3.203125 0l0 6.90625q0 1.703125 0.296875 2.671875q0.21875 0.8125 0.359375 0.8125q0.234375 0 0.234375 -1.859375l1.328125 0.8125zm-14.03125 -13.0625l1.421875 0q0.59375 0.078125 0.0625 0.453125l0 1.484375l2.375 0l0 1.40625l-2.375 0l0 1.703125l3.34375 0l0 1.421875l-1.484375 0l-0.734375 2.21875l1.78125 0l0 1.40625l-2.90625 0l0 1.71875l2.53125 0l0 1.40625l-2.53125 0l0 3.78125l-1.484375 0l0 -3.78125l-2.59375 0l0 -1.40625l2.59375 0l0 -1.71875l-2.96875 0l0 -1.40625l1.859375 0l-0.8125 -2.21875l-1.640625 0l0 -1.421875l3.5625 0l0 -1.703125l-2.59375 0l0 -1.40625l2.59375 0l0 -1.9375zm0.234375 8.6875l1.109375 0l0.671875 -2.21875l-2.609375 0l0.828125 2.21875zm21.078125 -7.046875q-2.3125 2.8125 -4.234375 3.9375l-0.890625 -1.34375q2.078125 -1.1875 4.15625 -3.9375l1.109375 0.96875q0.375 0.453125 -0.140625 0.375zm-1.046875 15.21875l-1.484375 0l0 -7.875q-0.734375 0.8125 -2.21875 1.78125l-0.96875 -1.484375q3.1875 -1.921875 5.421875 -5.421875l1.1875 0.96875q0.359375 0.453125 -0.15625 0.375q-0.890625 1.1875 -1.78125 2.296875l0 9.359375zm10.84375 -15.59375l0 1.40625l-8.015625 0l0 -1.40625l8.015625 0zm-8.84375 6.15625l0 -1.40625l10.328125 0l0 1.40625l-3.125 0l0 7.578125q0 1.5625 -1.265625 1.5625l-2.0 0l-0.296875 -1.421875l1.78125 0q0.296875 0 0.296875 -0.296875l0 -7.421875l-5.71875 0zm12.171875 7.578125q1.34375 -0.515625 2.671875 -1.34375l0 -4.8125l-2.21875 0l0 -1.421875l3.703125 0l0 6.171875q0.828125 1.40625 4.15625 1.40625l9.0625 0l-0.375 1.40625l-9.578125 0q-2.515625 0 -4.078125 -1.78125q-0.890625 0.890625 -2.515625 2.078125l-0.828125 -1.703125zm2.671875 -14.171875q1.484375 1.03125 2.3125 2.296875l-1.265625 1.265625q-1.109375 -1.484375 -2.296875 -2.453125l1.25 -1.109375zm7.203125 12.390625l-1.265625 0l0 -4.671875l4.90625 0l0 3.78125l-3.640625 0l0 0.890625zm2.375 -2.078125l0 -1.40625l-2.375 0l0 1.40625l2.375 0zm4.15625 1.625q0 1.265625 -1.265625 1.265625l-1.328125 0l-0.15625 -1.40625l0.96875 0q0.296875 0 0.296875 -0.296875l0 -4.828125l-7.859375 0l0 6.6875l-1.484375 0l0 -8.09375l1.625 0l0 -5.421875l7.71875 0l0 5.421875l1.484375 0l0 6.671875zm-2.75 -8.375l-2.21875 0l0 1.703125l2.21875 0l0 -1.703125zm0 -1.1875l0 -1.34375l-5.1875 0l0 4.234375l1.703125 0l0 -2.890625l3.484375 0zm16.1875 1.546875q-0.75 2.078125 -2.375 3.9375l-1.109375 -1.328125q2.515625 -2.53125 3.1875 -7.203125l1.5625 0.515625q0.65625 0.296875 -0.078125 0.453125q-0.21875 1.03125 -0.59375 2.21875l5.34375 0l-0.375 10.09375q-0.078125 2.96875 -2.375 2.96875l-2.078125 0l-0.21875 -1.40625l1.921875 0q1.046875 0 1.125 -1.34375l0.359375 -8.90625l-4.296875 0zm0.890625 6.90625q-1.046875 -1.484375 -2.296875 -2.671875l1.25 -1.328125q1.484375 1.328125 2.375 2.59375l-1.328125 1.40625zm-8.765625 -8.3125q0.453125 -1.40625 0.828125 -3.265625l1.78125 0.671875q0.296875 0.296875 -0.234375 0.375q-0.21875 0.953125 -0.8125 2.21875l2.75 0l0 12.25l-1.484375 0l0 -0.890625l-3.265625 0l0 1.484375l-1.484375 0l0 -12.84375l1.921875 0zm2.828125 1.40625l-3.265625 0l0 3.265625l3.265625 0l0 -3.265625zm0 4.6875l-3.265625 0l0 3.859375l3.265625 0l0 -3.859375z" fill-rule="nonzero"/><path fill="#000000" d="m372.30792 497.6103l0 -13.359375l2.65625 0l3.15625 9.453125q0.4375 1.328125 0.640625 1.984375q0.234375 -0.734375 0.703125 -2.140625l3.203125 -9.296875l2.375 0l0 13.359375l-1.703125 0l0 -11.171875l-3.875 11.171875l-1.59375 0l-3.859375 -11.375l0 11.375l-1.703125 0zm15.384552 -11.46875l0 -1.890625l1.640625 0l0 1.890625l-1.640625 0zm0 11.46875l0 -9.671875l1.640625 0l0 9.671875l-1.640625 0zm3.832306 0.796875l1.59375 0.234375q0.109375 0.75 0.5625 1.078125q0.609375 0.453125 1.671875 0.453125q1.140625 0 1.75 -0.453125q0.625 -0.453125 0.84375 -1.265625q0.125 -0.5 0.109375 -2.109375q-1.0625 1.265625 -2.671875 1.265625q-2.0 0 -3.09375 -1.4375q-1.09375 -1.4375 -1.09375 -3.453125q0 -1.390625 0.5 -2.5625q0.515625 -1.171875 1.453125 -1.796875q0.953125 -0.640625 2.25 -0.640625q1.703125 0 2.8125 1.375l0 -1.15625l1.515625 0l0 8.359375q0 2.265625 -0.46875 3.203125q-0.453125 0.9375 -1.453125 1.484375q-0.984375 0.546875 -2.453125 0.546875q-1.71875 0 -2.796875 -0.78125q-1.0625 -0.765625 -1.03125 -2.34375zm1.359375 -5.8125q0 1.90625 0.75 2.78125q0.765625 0.875 1.90625 0.875q1.125 0 1.890625 -0.859375q0.765625 -0.875 0.765625 -2.734375q0 -1.78125 -0.796875 -2.671875q-0.78125 -0.90625 -1.890625 -0.90625q-1.09375 0 -1.859375 0.890625q-0.765625 0.875 -0.765625 2.625zm9.313232 5.015625l0 -9.671875l1.46875 0l0 1.46875q0.5625 -1.03125 1.03125 -1.359375q0.484375 -0.328125 1.0625 -0.328125q0.828125 0 1.6875 0.53125l-0.5625 1.515625q-0.609375 -0.359375 -1.203125 -0.359375q-0.546875 0 -0.96875 0.328125q-0.421875 0.328125 -0.609375 0.890625q-0.28125 0.875 -0.28125 1.921875l0 5.0625l-1.625 0zm12.540802 -1.1875q-0.921875 0.765625 -1.765625 1.09375q-0.828125 0.3125 -1.796875 0.3125q-1.59375 0 -2.453125 -0.78125q-0.859375 -0.78125 -0.859375 -1.984375q0 -0.71875 0.328125 -1.296875q0.328125 -0.59375 0.84375 -0.9375q0.53125 -0.359375 1.1875 -0.546875q0.46875 -0.125 1.453125 -0.25q1.984375 -0.234375 2.921875 -0.5625q0.015625 -0.34375 0.015625 -0.421875q0 -1.0 -0.46875 -1.421875q-0.625 -0.546875 -1.875 -0.546875q-1.15625 0 -1.703125 0.40625q-0.546875 0.40625 -0.8125 1.421875l-1.609375 -0.21875q0.21875 -1.015625 0.71875 -1.640625q0.5 -0.640625 1.453125 -0.984375q0.953125 -0.34375 2.1875 -0.34375q1.25 0 2.015625 0.296875q0.78125 0.28125 1.140625 0.734375q0.375 0.4375 0.515625 1.109375q0.078125 0.421875 0.078125 1.515625l0 2.1875q0 2.28125 0.109375 2.890625q0.109375 0.59375 0.40625 1.15625l-1.703125 0q-0.265625 -0.515625 -0.328125 -1.1875zm-0.140625 -3.671875q-0.890625 0.375 -2.671875 0.625q-1.015625 0.140625 -1.4375 0.328125q-0.421875 0.1875 -0.65625 0.53125q-0.21875 0.34375 -0.21875 0.78125q0 0.65625 0.5 1.09375q0.5 0.4375 1.453125 0.4375q0.9375 0 1.671875 -0.40625q0.75 -0.421875 1.09375 -1.140625q0.265625 -0.5625 0.265625 -1.640625l0 -0.609375zm7.781952 3.390625l0.234375 1.453125q-0.6875 0.140625 -1.234375 0.140625q-0.890625 0 -1.390625 -0.28125q-0.484375 -0.28125 -0.6875 -0.734375q-0.203125 -0.46875 -0.203125 -1.9375l0 -5.578125l-1.203125 0l0 -1.265625l1.203125 0l0 -2.390625l1.625 -0.984375l0 3.375l1.65625 0l0 1.265625l-1.65625 0l0 5.671875q0 0.6875 0.078125 0.890625q0.09375 0.203125 0.28125 0.328125q0.203125 0.109375 0.578125 0.109375q0.265625 0 0.71875 -0.0625zm1.6051941 -10.0l0 -1.890625l1.640625 0l0 1.890625l-1.640625 0zm0 11.46875l0 -9.671875l1.640625 0l0 9.671875l-1.640625 0zm3.535431 -4.84375q0 -2.6875 1.484375 -3.96875q1.25 -1.078125 3.046875 -1.078125q2.0 0 3.265625 1.3125q1.265625 1.296875 1.265625 3.609375q0 1.859375 -0.5625 2.9375q-0.5625 1.0625 -1.640625 1.65625q-1.0625 0.59375 -2.328125 0.59375q-2.03125 0 -3.28125 -1.296875q-1.25 -1.3125 -1.25 -3.765625zm1.6875 0q0 1.859375 0.796875 2.796875q0.8125 0.921875 2.046875 0.921875q1.21875 0 2.03125 -0.921875q0.8125 -0.9375 0.8125 -2.84375q0 -1.796875 -0.8125 -2.71875q-0.8125 -0.921875 -2.03125 -0.921875q-1.234375 0 -2.046875 0.921875q-0.796875 0.90625 -0.796875 2.765625zm9.297607 4.84375l0 -9.671875l1.46875 0l0 1.375q1.0625 -1.59375 3.078125 -1.59375q0.875 0 1.609375 0.3125q0.734375 0.3125 1.09375 0.828125q0.375 0.5 0.515625 1.203125q0.09375 0.453125 0.09375 1.59375l0 5.953125l-1.640625 0l0 -5.890625q0 -1.0 -0.203125 -1.484375q-0.1875 -0.5 -0.671875 -0.796875q-0.484375 -0.296875 -1.140625 -0.296875q-1.046875 0 -1.8125 0.671875q-0.75 0.65625 -0.75 2.515625l0 5.28125l-1.640625 0z" fill-rule="nonzero"/><path fill="#cfe2f3" d="m157.96588 601.1312l345.44882 0l0 80.944885l-345.44882 0z" fill-rule="evenodd"/><path stroke="#000000" stroke-width="1.0" stroke-linejoin="round" stroke-linecap="butt" d="m157.96588 601.1312l345.44882 0l0 80.944885l-345.44882 0z" fill-rule="evenodd"/><path fill="#000000" d="m195.07188 639.1643l0.96875 0.234375q0.4375 -0.453125 1.40625 -2.234375l-4.828125 0l0 -1.40625l5.421875 0q0.59375 -1.40625 0.890625 -2.671875l1.640625 0.59375q0.296875 0.296875 -0.234375 0.375q-0.140625 0.65625 -0.65625 1.703125l8.609375 0l0 1.40625l-9.203125 0q-0.890625 2.0 -2.53125 4.15625l0 8.765625l-1.484375 0l0 -7.359375q-0.96875 0.96875 -2.75 2.015625l-0.734375 -1.71875q2.078125 -0.953125 3.484375 -2.515625l0 -1.34375zm8.390625 -0.953125q0.59375 0.0625 0.078125 0.4375l0 2.890625l3.78125 0l0 1.421875l-3.78125 0l0 4.890625l4.890625 0l0 1.421875l-11.203125 0l0 -1.421875l4.828125 0l0 -4.890625l-4.09375 0l0 -1.421875l4.09375 0l0 -3.328125l1.40625 0z" fill-rule="nonzero"/><path fill="#000000" d="m209.63438 652.2268l0 -1.1875l10.859375 0l0 1.1875l-10.859375 0zm10.375717 0l0 -1.1875l10.859375 0l0 1.1875l-10.859375 0zm12.125717 -3.703125l0 -13.359375l9.65625 0l0 1.578125l-7.875 0l0 4.09375l7.375 0l0 1.5625l-7.375 0l0 4.546875l8.1875 0l0 1.578125l-9.96875 0zm12.506073 0l0 -13.359375l9.015625 0l0 1.578125l-7.25 0l0 4.140625l6.265625 0l0 1.578125l-6.265625 0l0 6.0625l-1.765625 0zm11.255356 0l0 -13.359375l2.65625 0l3.15625 9.453125q0.4375 1.328125 0.640625 1.984375q0.234375 -0.734375 0.703125 -2.140625l3.203125 -9.296875l2.375 0l0 13.359375l-1.703125 0l0 -11.171875l-3.875 11.171875l-1.59375 0l-3.859375 -11.375l0 11.375l-1.703125 0zm15.384552 -11.46875l0 -1.890625l1.640625 0l0 1.890625l-1.640625 0zm0 11.46875l0 -9.671875l1.640625 0l0 9.671875l-1.640625 0zm3.832306 0.796875l1.59375 0.234375q0.109375 0.75 0.5625 1.078125q0.609375 0.453125 1.671875 0.453125q1.140625 0 1.75 -0.453125q0.625 -0.453125 0.84375 -1.265625q0.125 -0.5 0.109375 -2.109375q-1.0625 1.265625 -2.671875 1.265625q-2.0 0 -3.09375 -1.4375q-1.09375 -1.4375 -1.09375 -3.453125q0 -1.390625 0.5 -2.5625q0.515625 -1.171875 1.453125 -1.796875q0.953125 -0.640625 2.25 -0.640625q1.703125 0 2.8125 1.375l0 -1.15625l1.515625 0l0 8.359375q0 2.265625 -0.46875 3.203125q-0.453125 0.9375 -1.453125 1.484375q-0.984375 0.546875 -2.453125 0.546875q-1.71875 0 -2.796875 -0.78125q-1.0625 -0.765625 -1.03125 -2.34375zm1.359375 -5.8125q0 1.90625 0.75 2.78125q0.765625 0.875 1.90625 0.875q1.125 0 1.890625 -0.859375q0.765625 -0.875 0.765625 -2.734375q0 -1.78125 -0.796875 -2.671875q-0.78125 -0.90625 -1.890625 -0.90625q-1.09375 0 -1.859375 0.890625q-0.765625 0.875 -0.765625 2.625zm9.313232 5.015625l0 -9.671875l1.46875 0l0 1.46875q0.5625 -1.03125 1.03125 -1.359375q0.484375 -0.328125 1.0625 -0.328125q0.828125 0 1.6875 0.53125l-0.5625 1.515625q-0.609375 -0.359375 -1.203125 -0.359375q-0.546875 0 -0.96875 0.328125q-0.421875 0.328125 -0.609375 0.890625q-0.28125 0.875 -0.28125 1.921875l0 5.0625l-1.625 0zm12.540802 -1.1875q-0.921875 0.765625 -1.765625 1.09375q-0.828125 0.3125 -1.796875 0.3125q-1.59375 0 -2.453125 -0.78125q-0.859375 -0.78125 -0.859375 -1.984375q0 -0.71875 0.328125 -1.296875q0.328125 -0.59375 0.84375 -0.9375q0.53125 -0.359375 1.1875 -0.546875q0.46875 -0.125 1.453125 -0.25q1.984375 -0.234375 2.921875 -0.5625q0.015625 -0.34375 0.015625 -0.421875q0 -1.0 -0.46875 -1.421875q-0.625 -0.546875 -1.875 -0.546875q-1.15625 0 -1.703125 0.40625q-0.546875 0.40625 -0.8125 1.421875l-1.609375 -0.21875q0.21875 -1.015625 0.71875 -1.640625q0.5 -0.640625 1.453125 -0.984375q0.953125 -0.34375 2.1875 -0.34375q1.25 0 2.015625 0.296875q0.78125 0.28125 1.140625 0.734375q0.375 0.4375 0.515625 1.109375q0.078125 0.421875 0.078125 1.515625l0 2.1875q0 2.28125 0.109375 2.890625q0.109375 0.59375 0.40625 1.15625l-1.703125 0q-0.265625 -0.515625 -0.328125 -1.1875zm-0.140625 -3.671875q-0.890625 0.375 -2.671875 0.625q-1.015625 0.140625 -1.4375 0.328125q-0.421875 0.1875 -0.65625 0.53125q-0.21875 0.34375 -0.21875 0.78125q0 0.65625 0.5 1.09375q0.5 0.4375 1.453125 0.4375q0.9375 0 1.671875 -0.40625q0.75 -0.421875 1.09375 -1.140625q0.265625 -0.5625 0.265625 -1.640625l0 -0.609375zm7.781952 3.390625l0.234375 1.453125q-0.6875 0.140625 -1.234375 0.140625q-0.890625 0 -1.390625 -0.28125q-0.484375 -0.28125 -0.6875 -0.734375q-0.203125 -0.46875 -0.203125 -1.9375l0 -5.578125l-1.203125 0l0 -1.265625l1.203125 0l0 -2.390625l1.625 -0.984375l0 3.375l1.65625 0l0 1.265625l-1.65625 0l0 5.671875q0 0.6875 0.078125 0.890625q0.09375 0.203125 0.28125 0.328125q0.203125 0.109375 0.578125 0.109375q0.265625 0 0.71875 -0.0625zm1.6051941 -10.0l0 -1.890625l1.640625 0l0 1.890625l-1.640625 0zm0 11.46875l0 -9.671875l1.640625 0l0 9.671875l-1.640625 0zm3.535431 -4.84375q0 -2.6875 1.484375 -3.96875q1.25 -1.078125 3.046875 -1.078125q2.0 0 3.265625 1.3125q1.265625 1.296875 1.265625 3.609375q0 1.859375 -0.5625 2.9375q-0.5625 1.0625 -1.640625 1.65625q-1.0625 0.59375 -2.328125 0.59375q-2.03125 0 -3.28125 -1.296875q-1.25 -1.3125 -1.25 -3.765625zm1.6875 0q0 1.859375 0.796875 2.796875q0.8125 0.921875 2.046875 0.921875q1.21875 0 2.03125 -0.921875q0.8125 -0.9375 0.8125 -2.84375q0 -1.796875 -0.8125 -2.71875q-0.8125 -0.921875 -2.03125 -0.921875q-1.234375 0 -2.046875 0.921875q-0.796875 0.90625 -0.796875 2.765625zm9.297607 4.84375l0 -9.671875l1.46875 0l0 1.375q1.0625 -1.59375 3.078125 -1.59375q0.875 0 1.609375 0.3125q0.734375 0.3125 1.09375 0.828125q0.375 0.5 0.515625 1.203125q0.09375 0.453125 0.09375 1.59375l0 5.953125l-1.640625 0l0 -5.890625q0 -1.0 -0.203125 -1.484375q-0.1875 -0.5 -0.671875 -0.796875q-0.484375 -0.296875 -1.140625 -0.296875q-1.046875 0 -1.8125 0.671875q-0.75 0.65625 -0.75 2.515625l0 5.28125l-1.640625 0zm10.641327 0l0 -13.359375l1.765625 0l0 5.484375l6.9375 0l0 -5.484375l1.765625 0l0 13.359375l-1.765625 0l0 -6.296875l-6.9375 0l0 6.296875l-1.765625 0zm13.207336 -11.46875l0 -1.890625l1.640625 0l0 1.890625l-1.640625 0zm0 11.46875l0 -9.671875l1.640625 0l0 9.671875l-1.640625 0zm3.488556 -2.890625l1.625 -0.25q0.125 0.96875 0.75 1.5q0.625 0.515625 1.75 0.515625q1.125 0 1.671875 -0.453125q0.546875 -0.46875 0.546875 -1.09375q0 -0.546875 -0.484375 -0.875q-0.328125 -0.21875 -1.671875 -0.546875q-1.8125 -0.46875 -2.515625 -0.796875q-0.6875 -0.328125 -1.046875 -0.90625q-0.359375 -0.59375 -0.359375 -1.3125q0 -0.640625 0.296875 -1.1875q0.296875 -0.5625 0.8125 -0.921875q0.375 -0.28125 1.03125 -0.46875q0.671875 -0.203125 1.421875 -0.203125q1.140625 0 2.0 0.328125q0.859375 0.328125 1.265625 0.890625q0.421875 0.5625 0.578125 1.5l-1.609375 0.21875q-0.109375 -0.75 -0.640625 -1.171875q-0.515625 -0.421875 -1.46875 -0.421875q-1.140625 0 -1.625 0.375q-0.46875 0.375 -0.46875 0.875q0 0.3125 0.1875 0.578125q0.203125 0.265625 0.640625 0.4375q0.234375 0.09375 1.4375 0.421875q1.75 0.453125 2.4375 0.75q0.6875 0.296875 1.078125 0.859375q0.390625 0.5625 0.390625 1.40625q0 0.828125 -0.484375 1.546875q-0.46875 0.71875 -1.375 1.125q-0.90625 0.390625 -2.046875 0.390625q-1.875 0 -2.875 -0.78125q-0.984375 -0.78125 -1.25 -2.328125zm13.5625 1.421875l0.234375 1.453125q-0.6875 0.140625 -1.234375 0.140625q-0.890625 0 -1.390625 -0.28125q-0.484375 -0.28125 -0.6875 -0.734375q-0.203125 -0.46875 -0.203125 -1.9375l0 -5.578125l-1.203125 0l0 -1.265625l1.203125 0l0 -2.390625l1.625 -0.984375l0 3.375l1.65625 0l0 1.265625l-1.65625 0l0 5.671875q0 0.6875 0.078125 0.890625q0.09375 0.203125 0.28125 0.328125q0.203125 0.109375 0.578125 0.109375q0.265625 0 0.71875 -0.0625zm0.9958191 -3.375q0 -2.6875 1.484375 -3.96875q1.25 -1.078125 3.046875 -1.078125q2.0 0 3.265625 1.3125q1.265625 1.296875 1.265625 3.609375q0 1.859375 -0.5625 2.9375q-0.5625 1.0625 -1.640625 1.65625q-1.0625 0.59375 -2.328125 0.59375q-2.03125 0 -3.28125 -1.296875q-1.25 -1.3125 -1.25 -3.765625zm1.6875 0q0 1.859375 0.796875 2.796875q0.8125 0.921875 2.046875 0.921875q1.21875 0 2.03125 -0.921875q0.8125 -0.9375 0.8125 -2.84375q0 -1.796875 -0.8125 -2.71875q-0.8125 -0.921875 -2.03125 -0.921875q-1.234375 0 -2.046875 0.921875q-0.796875 0.90625 -0.796875 2.765625zm9.281952 4.84375l0 -9.671875l1.46875 0l0 1.46875q0.5625 -1.03125 1.03125 -1.359375q0.484375 -0.328125 1.0625 -0.328125q0.828125 0 1.6875 0.53125l-0.5625 1.515625q-0.609375 -0.359375 -1.203125 -0.359375q-0.546875 0 -0.96875 0.328125q-0.421875 0.328125 -0.609375 0.890625q-0.28125 0.875 -0.28125 1.921875l0 5.0625l-1.625 0zm6.150177 3.71875l-0.1875 -1.53125q0.546875 0.140625 0.9375 0.140625q0.546875 0 0.875 -0.1875q0.328125 -0.171875 0.546875 -0.5q0.15625 -0.25 0.5 -1.21875q0.046875 -0.140625 0.140625 -0.40625l-3.671875 -9.6875l1.765625 0l2.015625 5.59375q0.390625 1.078125 0.703125 2.25q0.28125 -1.125 0.671875 -2.203125l2.078125 -5.640625l1.640625 0l-3.6875 9.828125q-0.59375 1.609375 -0.921875 2.203125q-0.4375 0.8125 -1.0 1.1875q-0.5625 0.375 -1.34375 0.375q-0.484375 0 -1.0625 -0.203125z" fill-rule="nonzero"/><path fill="#000000" d="m402.1837 648.82056q3.046875 -1.640625 3.046875 -5.5625l0 -8.546875l1.5625 0.296875l4.0 -1.25l1.109375 1.484375q0.15625 0.4375 -0.515625 0.140625l-4.671875 0.890625l0 3.1875l5.859375 0l0 1.421875l-2.21875 0l0 9.28125l-1.484375 0l0 -9.28125l-2.15625 0l0 2.8125q0 4.375 -3.71875 6.53125l-0.8125 -1.40625zm-1.40625 1.40625l-1.484375 0l0 -4.453125q-1.1875 1.9375 -2.59375 3.046875l-1.125 -1.34375q2.078125 -1.484375 3.5 -3.703125l-3.125 0l0 -1.40625l3.34375 0l0 -1.640625l-3.78125 0l0 -1.40625l5.1875 0l0.8125 -2.671875l-5.484375 0l0 -1.40625l3.265625 0l0 -2.078125l1.40625 0q0.59375 0.0625 0.078125 0.4375l0 1.640625l3.265625 0l0 1.40625l-0.96875 0l-1.03125 2.671875l2.375 0l0 1.40625l-3.640625 0l0 1.640625l3.265625 0l0 1.40625l-3.265625 0l0 0.671875q1.03125 0.296875 2.890625 1.546875l-0.890625 1.484375q-1.03125 -1.03125 -2.0 -1.625l0 4.375zm-2.96875 -11.0625q-0.296875 -1.03125 -0.8125 -2.0l1.40625 -0.4375q0.59375 0.953125 0.890625 2.0l-1.484375 0.4375zm24.265625 0l1.1875 -0.515625q0.59375 0.8125 1.109375 2.078125l-1.109375 0.59375q-0.515625 -1.1875 -1.1875 -2.078125l0 2.234375l2.75 0l0 -3.34375l-2.75 0l0 1.03125zm6.3125 -0.296875q0.59375 0.15625 -0.078125 0.453125l-0.8125 1.921875l-0.96875 -0.296875l0.671875 -2.375l1.1875 0.296875zm-2.296875 2.609375l2.734375 0l0 -3.34375l-2.734375 0l0 3.34375zm2.375 -8.3125q0.890625 2.59375 3.703125 4.515625l-1.03125 1.5625l-0.828125 -0.59375l0 4.015625l-9.71875 0l0 -3.5l-0.515625 0.53125l-0.515625 -0.53125l-1.484375 0l0 5.875l2.296875 -0.671875l0 1.40625l-4.828125 1.78125q-0.4375 0.96875 -0.8125 0.078125l-0.59375 -1.484375l2.453125 -0.59375l0 -6.390625l-2.015625 0l0 -1.40625l2.015625 0l0 -4.375l1.40625 0q0.59375 0.078125 0.078125 0.4375l0 3.9375l1.484375 0q1.40625 -1.265625 2.4375 -3.640625l1.421875 0.53125q0.734375 0.296875 -0.234375 0.65625q-0.59375 1.1875 -0.953125 1.640625l6.453125 0q-1.1875 -1.5625 -1.40625 -2.59375l-3.5 0l0 -1.1875l4.6875 0zm-5.578125 12.765625l5.28125 0l0 -1.265625l-5.28125 0l0 1.265625zm6.765625 -2.453125l0 6.828125l-1.484375 0l0 -0.8125l-5.28125 0l0 0.890625l-1.484375 0l0 -6.90625l8.25 0zm-6.765625 4.828125l5.28125 0l0 -1.1875l-5.28125 0l0 1.1875zm21.015625 -11.0625q-0.828125 2.078125 -4.234375 2.890625l7.5 0l0 6.90625l-10.546875 0l0 -6.90625l2.671875 0l-0.734375 -1.265625q4.078125 -0.59375 4.21875 -3.265625l-1.25 0q-0.828125 1.265625 -1.78125 2.015625l-1.046875 -0.828125q1.703125 -1.546875 2.75 -3.859375l1.265625 0.453125q0.296875 0.296875 -0.234375 0.375l-0.296875 0.65625l5.9375 0l0.234375 -0.21875l1.1875 0.8125l-0.375 0.296875q-0.515625 0.890625 -1.859375 2.234375l-1.109375 -0.75q0.59375 -0.515625 1.109375 -1.1875l-3.109375 0q1.25 2.453125 6.0 3.34375l-0.59375 1.40625q-4.078125 -0.734375 -5.703125 -3.109375zm5.1875 12.84375q-3.40625 -0.515625 -5.71875 -1.9375l1.125 -1.03125q2.375 1.1875 5.046875 1.484375l-0.453125 1.484375zm-15.0625 -1.265625q3.1875 -0.453125 5.265625 -1.703125l1.109375 1.03125q0.296875 0.53125 -0.4375 0.296875q-2.375 1.1875 -5.421875 1.78125l-0.515625 -1.40625zm11.65625 -6.6875l0 -1.109375l-7.578125 0l0 1.109375l7.578125 0zm-9.953125 -8.609375q1.109375 0.53125 2.453125 1.265625l-0.96875 1.265625q-0.96875 -0.59375 -2.453125 -1.265625l0.96875 -1.265625zm-0.671875 6.53125q-0.140625 0.75 -0.515625 0.078125l-0.8125 -1.265625q2.21875 -0.8125 4.0 -1.921875l0.75 1.109375q-1.78125 1.1875 -3.421875 2.0zm10.625 4.09375l0 -1.125l-7.578125 0l0 1.125l7.578125 0zm0 2.0l0 -1.109375l-7.578125 0l0 1.109375l7.578125 0zm6.671875 0.21875q3.125 -2.453125 3.9375 -5.125l-3.421875 0l0 -1.40625l3.421875 0l0 -6.609375l1.40625 0q0.59375 0.078125 0.078125 0.453125l0 6.15625l3.046875 0l0 1.40625l-3.046875 0l0 0.96875q1.859375 1.109375 3.046875 2.453125l-0.890625 1.484375q-1.1875 -1.40625 -2.15625 -2.15625l0 6.171875l-1.484375 0l0 -5.71875q-0.96875 1.78125 -2.96875 3.40625l-0.96875 -1.484375zm6.015625 -7.71875q0.734375 -1.625 1.40625 -4.0l1.5625 0.515625q0.375 0.296875 -0.15625 0.296875q-0.734375 2.21875 -1.40625 3.78125l-1.40625 -0.59375zm-4.078125 -3.5625q1.03125 1.78125 1.40625 3.421875l-1.484375 0.59375q-0.375 -1.484375 -1.34375 -3.421875l1.421875 -0.59375zm12.828125 -1.625q0.59375 0.0625 0.078125 0.4375l0 9.421875l2.0 -0.515625l0.453125 1.5625l-2.453125 0.515625l0 5.28125l-1.484375 0l0 -4.90625l-4.0 0.890625l-0.375 -1.5625l4.375 -0.890625l0 -10.234375l1.40625 0zm-4.21875 2.140625q1.40625 0.890625 2.21875 1.78125l-1.03125 1.34375q-0.671875 -0.671875 -2.15625 -1.859375l0.96875 -1.265625zm-0.234375 4.09375q1.125 0.65625 2.234375 1.78125l-1.046875 1.328125q-0.890625 -0.96875 -2.140625 -1.859375l0.953125 -1.25z" fill-rule="nonzero"/><path fill="#000000" fill-opacity="0.0" d="m779.66406 351.4672l0 139.21259l-276.25198 0" fill-rule="evenodd"/><path stroke="#000000" stroke-width="1.0" stroke-linejoin="round" stroke-linecap="butt" d="m779.66406 351.4672l0 139.21259l-270.25198 0" fill-rule="evenodd"/><path fill="#000000" stroke="#000000" stroke-width="1.0" stroke-linecap="butt" d="m509.41208 489.02805l-4.5381165 1.6517334l4.5381165 1.6517334z" fill-rule="evenodd"/><path fill="#000000" fill-opacity="0.0" d="m330.69028 192.4147l0 106.897644" fill-rule="evenodd"/><path stroke="#000000" stroke-width="1.0" stroke-linejoin="round" stroke-linecap="butt" d="m330.69028 192.4147l0 100.897644" fill-rule="evenodd"/><path fill="#000000" stroke="#000000" stroke-width="1.0" stroke-linecap="butt" d="m329.03854 293.31235l1.6517334 4.538086l1.6517334 -4.538086z" fill-rule="evenodd"/><path fill="#000000" fill-opacity="0.0" d="m330.69028 380.24933l0 69.98425" fill-rule="evenodd"/><path stroke="#000000" stroke-width="1.0" stroke-linejoin="round" stroke-linecap="butt" d="m330.69028 380.24933l0 63.984253" fill-rule="evenodd"/><path fill="#000000" stroke="#000000" stroke-width="1.0" stroke-linecap="butt" d="m329.03854 444.23358l1.6517334 4.5381165l1.6517334 -4.5381165z" fill-rule="evenodd"/><path fill="#000000" fill-opacity="0.0" d="m330.69028 531.1627l0 69.98425" fill-rule="evenodd"/><path stroke="#000000" stroke-width="1.0" stroke-linejoin="round" stroke-linecap="butt" d="m330.69028 531.1627l0 63.984253" fill-rule="evenodd"/><path fill="#000000" stroke="#000000" stroke-width="1.0" stroke-linecap="butt" d="m329.03854 595.147l1.6517334 4.538086l1.6517334 -4.538086z" fill-rule="evenodd"/><path fill="#00bba0" d="m149.1916 65.603676l0 0c0 -12.3764 10.033051 -22.40945 22.40944 -22.40945l0 0c5.9433594 0 11.643295 2.3609886 15.845886 6.5635757c4.2025757 4.202587 6.563568 9.902519 6.563568 15.845875l0 0c0 12.376396 -10.033051 22.409447 -22.409454 22.409447l0 0c-12.376389 0 -22.40944 -10.033051 -22.40944 -22.409447z" fill-rule="evenodd"/><path stroke="#ffffff" stroke-width="1.0" stroke-linejoin="round" stroke-linecap="butt" d="m149.1916 65.603676l0 0c0 -12.3764 10.033051 -22.40945 22.40944 -22.40945l0 0c5.9433594 0 11.643295 2.3609886 15.845886 6.5635757c4.2025757 4.202587 6.563568 9.902519 6.563568 15.845875l0 0c0 12.376396 -10.033051 22.409447 -22.409454 22.409447l0 0c-12.376389 0 -22.40944 -10.033051 -22.40944 -22.409447z" fill-rule="evenodd"/><path fill="#ffffff" d="m171.7083 72.523674l-1.640625 0l0 -10.453125q-0.59375 0.5625 -1.5625 1.140625q-0.953125 0.5625 -1.71875 0.84375l0 -1.59375q1.375 -0.640625 2.40625 -1.5625q1.03125 -0.921875 1.453125 -1.78125l1.0625 0l0 13.40625z" fill-rule="nonzero"/><path fill="#000000" fill-opacity="0.0" d="m330.69028 196.13911l81.165375 0l0 41.19684l-81.165375 0z" fill-rule="evenodd"/><path fill="#000000" d="m344.8934 223.05911l0 -5.65625l-5.15625 -7.703125l2.15625 0l2.640625 4.03125q0.71875 1.125 1.34375 2.265625q0.609375 -1.046875 1.46875 -2.359375l2.578125 -3.9375l2.0625 0l-5.328125 7.703125l0 5.65625l-1.765625 0zm15.099823 -3.109375l1.6875 0.203125q-0.40625 1.484375 -1.484375 2.3125q-1.078125 0.8125 -2.765625 0.8125q-2.125 0 -3.375 -1.296875q-1.234375 -1.3125 -1.234375 -3.671875q0 -2.453125 1.25 -3.796875q1.265625 -1.34375 3.265625 -1.34375q1.9375 0 3.15625 1.328125q1.234375 1.3125 1.234375 3.703125q0 0.15625 0 0.4375l-7.21875 0q0.09375 1.59375 0.90625 2.453125q0.8125 0.84375 2.015625 0.84375q0.90625 0 1.546875 -0.46875q0.640625 -0.484375 1.015625 -1.515625zm-5.390625 -2.65625l5.40625 0q-0.109375 -1.21875 -0.625 -1.828125q-0.78125 -0.953125 -2.03125 -0.953125q-1.125 0 -1.90625 0.765625q-0.765625 0.75 -0.84375 2.015625zm8.485107 2.875l1.625 -0.25q0.125 0.96875 0.75 1.5q0.625 0.515625 1.75 0.515625q1.125 0 1.671875 -0.453125q0.546875 -0.46875 0.546875 -1.09375q0 -0.546875 -0.484375 -0.875q-0.328125 -0.21875 -1.671875 -0.546875q-1.8125 -0.46875 -2.515625 -0.796875q-0.6875 -0.328125 -1.046875 -0.90625q-0.359375 -0.59375 -0.359375 -1.3125q0 -0.640625 0.296875 -1.1875q0.296875 -0.5625 0.8125 -0.921875q0.375 -0.28125 1.03125 -0.46875q0.671875 -0.203125 1.421875 -0.203125q1.140625 0 2.0 0.328125q0.859375 0.328125 1.265625 0.890625q0.421875 0.5625 0.578125 1.5l-1.609375 0.21875q-0.109375 -0.75 -0.640625 -1.171875q-0.515625 -0.421875 -1.46875 -0.421875q-1.140625 0 -1.625 0.375q-0.46875 0.375 -0.46875 0.875q0 0.3125 0.1875 0.578125q0.203125 0.265625 0.640625 0.4375q0.234375 0.09375 1.4375 0.421875q1.75 0.453125 2.4375 0.75q0.6875 0.296875 1.078125 0.859375q0.390625 0.5625 0.390625 1.40625q0 0.828125 -0.484375 1.546875q-0.46875 0.71875 -1.375 1.125q-0.90625 0.390625 -2.046875 0.390625q-1.875 0 -2.875 -0.78125q-0.984375 -0.78125 -1.25 -2.328125z" fill-rule="nonzero"/><path fill="#00bba0" d="m586.9659 310.9882l0 0c0 -12.376404 10.03302 -22.409454 22.409424 -22.409454l0 0c5.9433594 0 11.643311 2.3609924 15.845886 6.563568c4.2025757 4.202606 6.5635986 9.902527 6.5635986 15.845886l0 0c0 12.376404 -10.033081 22.409454 -22.409485 22.409454l0 0c-12.376404 0 -22.409424 -10.033051 -22.409424 -22.409454z" fill-rule="evenodd"/><path stroke="#ffffff" stroke-width="1.0" stroke-linejoin="round" stroke-linecap="butt" d="m586.9659 310.9882l0 0c0 -12.376404 10.03302 -22.409454 22.409424 -22.409454l0 0c5.9433594 0 11.643311 2.3609924 15.845886 6.563568c4.2025757 4.202606 6.5635986 9.902527 6.5635986 15.845886l0 0c0 12.376404 -10.033081 22.409454 -22.409485 22.409454l0 0c-12.376404 0 -22.409424 -10.033051 -22.409424 -22.409454z" fill-rule="evenodd"/><path fill="#ffffff" d="m611.9201 316.33005l0 1.578125l-8.828125 0q-0.015625 -0.59375 0.1875 -1.140625q0.34375 -0.90625 1.078125 -1.78125q0.75 -0.875 2.15625 -2.015625q2.171875 -1.78125 2.9375 -2.828125q0.765625 -1.046875 0.765625 -1.96875q0 -0.984375 -0.703125 -1.640625q-0.6875 -0.671875 -1.8125 -0.671875q-1.1875 0 -1.90625 0.71875q-0.703125 0.703125 -0.703125 1.953125l-1.6875 -0.171875q0.171875 -1.890625 1.296875 -2.875q1.140625 -0.984375 3.03125 -0.984375q1.921875 0 3.046875 1.0625q1.125 1.0625 1.125 2.640625q0 0.796875 -0.328125 1.578125q-0.328125 0.78125 -1.09375 1.640625q-0.75 0.84375 -2.53125 2.34375q-1.46875 1.234375 -1.890625 1.6875q-0.421875 0.4375 -0.6875 0.875l6.546875 0z" fill-rule="nonzero"/><path fill="#00bba0" d="m92.10499 339.77692l0 0c0 -12.376404 10.033051 -22.409454 22.409447 -22.409454l0 0c5.9433594 0 11.643288 2.3609924 15.845871 6.563568c4.202591 4.2025757 6.5635834 9.902527 6.5635834 15.845886l0 0c0 12.376373 -10.033058 22.409424 -22.409454 22.409424l0 0c-12.376396 0 -22.409447 -10.033051 -22.409447 -22.409424z" fill-rule="evenodd"/><path stroke="#ffffff" stroke-width="1.0" stroke-linejoin="round" stroke-linecap="butt" d="m92.10499 339.77692l0 0c0 -12.376404 10.033051 -22.409454 22.409447 -22.409454l0 0c5.9433594 0 11.643288 2.3609924 15.845871 6.563568c4.202591 4.2025757 6.5635834 9.902527 6.5635834 15.845886l0 0c0 12.376373 -10.033058 22.409424 -22.409454 22.409424l0 0c-12.376396 0 -22.409447 -10.033051 -22.409447 -22.409424z" fill-rule="evenodd"/><path fill="#ffffff" d="m108.449814 343.16565l1.640625 -0.21875q0.28125 1.40625 0.953125 2.015625q0.6875 0.609375 1.65625 0.609375q1.15625 0 1.953125 -0.796875q0.796875 -0.796875 0.796875 -1.984375q0 -1.125 -0.734375 -1.859375q-0.734375 -0.734375 -1.875 -0.734375q-0.46875 0 -1.15625 0.171875l0.1875 -1.4375q0.15625 0.015625 0.265625 0.015625q1.046875 0 1.875 -0.546875q0.84375 -0.546875 0.84375 -1.671875q0 -0.90625 -0.609375 -1.5q-0.609375 -0.59375 -1.578125 -0.59375q-0.953125 0 -1.59375 0.609375q-0.640625 0.59375 -0.8125 1.796875l-1.640625 -0.296875q0.296875 -1.640625 1.359375 -2.546875q1.0625 -0.90625 2.65625 -0.90625q1.09375 0 2.0 0.46875q0.921875 0.46875 1.40625 1.28125q0.5 0.8125 0.5 1.71875q0 0.859375 -0.46875 1.578125q-0.46875 0.703125 -1.375 1.125q1.1875 0.28125 1.84375 1.140625q0.65625 0.859375 0.65625 2.15625q0 1.734375 -1.28125 2.953125q-1.265625 1.21875 -3.21875 1.21875q-1.765625 0 -2.921875 -1.046875q-1.15625 -1.046875 -1.328125 -2.71875z" fill-rule="nonzero"/><path fill="#00bba0" d="m92.10499 490.69028l0 0c0 -12.376373 10.033051 -22.409424 22.409447 -22.409424l0 0c5.9433594 0 11.643288 2.360962 15.845871 6.563568c4.202591 4.2025757 6.5635834 9.902527 6.5635834 15.845856l0 0c0 12.376404 -10.033058 22.409454 -22.409454 22.409454l0 0c-12.376396 0 -22.409447 -10.033051 -22.409447 -22.409454z" fill-rule="evenodd"/><path stroke="#ffffff" stroke-width="1.0" stroke-linejoin="round" stroke-linecap="butt" d="m92.10499 490.69028l0 0c0 -12.376373 10.033051 -22.409424 22.409447 -22.409424l0 0c5.9433594 0 11.643288 2.360962 15.845871 6.563568c4.202591 4.2025757 6.5635834 9.902527 6.5635834 15.845856l0 0c0 12.376404 -10.033058 22.409454 -22.409454 22.409454l0 0c-12.376396 0 -22.409447 -10.033051 -22.409447 -22.409454z" fill-rule="evenodd"/><path fill="#ffffff" d="m113.699814 497.6103l0 -3.203125l-5.796875 0l0 -1.5l6.09375 -8.65625l1.34375 0l0 8.65625l1.796875 0l0 1.5l-1.796875 0l0 3.203125l-1.640625 0zm0 -4.703125l0 -6.015625l-4.1875 6.015625l4.1875 0z" fill-rule="nonzero"/><path fill="#00bba0" d="m92.10499 641.6037l0 0c0 -12.376404 10.033051 -22.409485 22.409447 -22.409485l0 0c5.9433594 0 11.643288 2.361023 15.845871 6.5635986c4.202591 4.2025757 6.5635834 9.902527 6.5635834 15.845886l0 0c0 12.376343 -10.033058 22.409424 -22.409454 22.409424l0 0c-12.376396 0 -22.409447 -10.033081 -22.409447 -22.409424z" fill-rule="evenodd"/><path stroke="#ffffff" stroke-width="1.0" stroke-linejoin="round" stroke-linecap="butt" d="m92.10499 641.6037l0 0c0 -12.376404 10.033051 -22.409485 22.409447 -22.409485l0 0c5.9433594 0 11.643288 2.361023 15.845871 6.5635986c4.202591 4.2025757 6.5635834 9.902527 6.5635834 15.845886l0 0c0 12.376343 -10.033058 22.409424 -22.409454 22.409424l0 0c-12.376396 0 -22.409447 -10.033081 -22.409447 -22.409424z" fill-rule="evenodd"/><path fill="#ffffff" d="m108.449814 645.0237l1.71875 -0.140625q0.1875 1.25 0.875 1.890625q0.703125 0.625 1.6875 0.625q1.1875 0 2.0 -0.890625q0.828125 -0.890625 0.828125 -2.359375q0 -1.40625 -0.796875 -2.21875q-0.78125 -0.8125 -2.0625 -0.8125q-0.78125 0 -1.421875 0.359375q-0.640625 0.359375 -1.0 0.9375l-1.546875 -0.203125l1.296875 -6.859375l6.640625 0l0 1.5625l-5.328125 0l-0.71875 3.59375q1.203125 -0.84375 2.515625 -0.84375q1.75 0 2.953125 1.21875q1.203125 1.203125 1.203125 3.109375q0 1.8125 -1.046875 3.140625q-1.296875 1.625 -3.515625 1.625q-1.8125 0 -2.96875 -1.015625q-1.15625 -1.03125 -1.3125 -2.71875z" fill-rule="nonzero"/></g></svg>