<?xml version="1.0" encoding="UTF-8" standalone="no"?>
<!-- Copyright 2017 mathsisfun.com -->
<svg xmlns="http://www.w3.org/2000/svg" xmlns:xlink="http://www.w3.org/1999/xlink" width="297.2" height="166.7" version="1.1">
<defs>
<linearGradient id="id1">
<stop offset="0" style="stop-color:white; stop-opacity:1;"/>
<stop offset="1" style="stop-color:#edd400; stop-opacity:1;"/>
</linearGradient>
<linearGradient id="id2">
<stop offset="0" style="stop-color:white; stop-opacity:1;"/>
<stop offset="1" style="stop-color:#07a6ff; stop-opacity:1;"/>
</linearGradient>
<marker id="id3" style="overflow:visible;" orient="auto">
<path transform="matrix(-0.4,0,0,-0.4,-4,0)" style="stroke:black; stroke-width:1pt;" d="M 0,0 5,-5 -12.5,0 5,5 0,0 Z"/>
</marker>
</defs>
<linearGradient gradientTransform="scale(4.560702,0.219265)" x1="0" y1="114" x2="228" y2="114" gradientUnits="userSpaceOnUse">
<stop offset="0" style="stop-color:indigo;"/>
<stop offset="25%" style="stop-color:blue;"/>
<stop offset="100%" style="stop-color:white;"/>
</linearGradient>
<filter>
<feGaussianBlur stdDeviation="5"/>
</filter>
<path style="marker-end:url(#id3); fill:#2e3436; fill-opacity:0.75; stroke:#2e3436; stroke-width:1.22;" d="m 53.9,140.5 240.9,0"/>
<path style="marker-end:url(#id3); fill:#2e3436; fill-opacity:0.75; stroke:#2e3436; stroke-width:1.22;" d="m 54.3,140.4 0,-138"/>
<g style="fill:none; fill-opacity:0.75; stroke:#d8dadc; stroke-width:0.82; stroke-dasharray:6.5, 0.8;">
<g>
<path d="m 53.9,110 225.8,0"/>
<path d="m 53.9,79.5 225.8,0"/>
<path d="m 53.9,49 225.8,0"/>
<path d="m 53.9,18.4 225.8,0"/>
<path d="m 99.2,140.4 0,-121.4"/>
<path d="m 144.1,140.4 0,-121.4"/>
<path d="m 189,140.4 0,-121.4"/>
<path d="m 233.9,140.4 0,-121.4"/>
<path d="m 278.8,140.4 0,-121.4"/>
</g>
</g>
<path style="fill:none; fill-opacity:0.75; stroke:#3465a4; stroke-width:2.16;" d="m 103.3,103.1 c 0,0 20.4,-62.5 42.7,-62 22.4,0.5 51,50.2 72.3,50 21.3,-0.2 38.9,-38.8 38.9,-38.8"/>
<path style="fill:none; fill-opacity:0.75; stroke:black; stroke-width:0.41px;" d="m 104.1,108.2 0,57.8"/>
<path style="fill:none; fill-opacity:0.75; stroke:black; stroke-width:0.41px;" d="m 257.9,57.6 0,109.1"/>
<path style="fill:none; fill-opacity:0.75; stroke:black; stroke-width:0.41px;" d="m 97.2,102.9 -81.4,0"/>
<path style="fill:none; fill-opacity:0.75; stroke:black; stroke-width:0.41px;" d="m 141,40.6 -126.2,0"/>
<path style="marker-end:url(#id3); fill:none; fill-opacity:0.75; stroke:#07a6ff; stroke-width:1.18;" d="m 21.2,82.1 0,18.9"/>
<path style="marker-end:url(#id3); fill:none; fill-opacity:0.75; stroke:#07a6ff; stroke-width:1.18;" d="m 21.2,60.3 0,-17.3"/>
<path style="marker-end:url(#id3); fill:none; fill-opacity:0.75; stroke:#f57900; stroke-width:1.18;" d="m 148.9,158 -42.7,0"/>
<path style="marker-end:url(#id3); fill:none; fill-opacity:0.75; stroke:#f57900; stroke-width:1.18;" d="m 215.5,158 40.3,0"/>
<text x="154.1" y="163.7" style="font-family:'Comic Sans MS'; font-size:16.3px; color:black; overflow:visible; fill:#ff9900; stroke-width:1px;">Domain</text>
<text x="-0.9" y="77" style="font-family:'Comic Sans MS'; font-size:16.3px; color:black; overflow:visible; fill:#07a6ff; stroke-width:1px;">Range</text>
<text x="278.6" y="158.5" style="font-family:'Times New Roman'; font-weight:bold; font-size:22.9px; font-style:italic; color:black; overflow:visible; fill:black; stroke-width:1px;">x</text>
<text x="10.7" y="17.3" style="font-family:'Times New Roman'; font-weight:bold; font-size:22.9px; font-style:italic; color:black; overflow:visible; fill:black; stroke-width:1px;">f(x)</text>
</svg>
