<svg version="1.1" viewBox="0.0 0.0 1085.244094488189 499.5485564304462" fill="none" stroke="none" stroke-linecap="square" stroke-miterlimit="10" xmlns:xlink="http://www.w3.org/1999/xlink" xmlns="http://www.w3.org/2000/svg"><clipPath id="p.0"><path d="m0 0l1085.2441 0l0 499.54855l-1085.2441 0l0 -499.54855z" clip-rule="nonzero"/></clipPath><g clip-path="url(#p.0)"><path fill="#000000" fill-opacity="0.0" d="m0 0l1085.2441 0l0 499.54855l-1085.2441 0z" fill-rule="evenodd"/><path fill="#cfe2f3" d="m37.72966 167.36745l143.71654 0l0 60.12599l-143.71654 0z" fill-rule="evenodd"/><path stroke="#000000" stroke-width="1.0" stroke-linejoin="round" stroke-linecap="butt" d="m37.72966 167.36745l143.71654 0l0 60.12599l-143.71654 0z" fill-rule="evenodd"/><path fill="#000000" d="m56.020958 204.35045l0 -13.359375l2.65625 0l3.15625 9.453125q0.4375 1.328125 0.640625 1.984375q0.234375 -0.734375 0.703125 -2.140625l3.203125 -9.296875l2.375 0l0 13.359375l-1.703125 0l0 -11.171875l-3.875 11.171875l-1.59375 0l-3.859375 -11.375l0 11.375l-1.703125 0zm21.697052 -1.1875q-0.921875 0.765625 -1.765625 1.09375q-0.828125 0.3125 -1.796875 0.3125q-1.59375 0 -2.453125 -0.78125q-0.859375 -0.78125 -0.859375 -1.984375q0 -0.71875 0.328125 -1.296875q0.328125 -0.59375 0.84375 -0.9375q0.53125 -0.359375 1.1875 -0.546875q0.46875 -0.125 1.453125 -0.25q1.984375 -0.234375 2.921875 -0.5625q0.015625 -0.34375 0.015625 -0.421875q0 -1.0 -0.46875 -1.421875q-0.625 -0.546875 -1.875 -0.546875q-1.15625 0 -1.703125 0.40625q-0.546875 0.40625 -0.8125 1.421875l-1.609375 -0.21875q0.21875 -1.015625 0.71875 -1.640625q0.5 -0.640625 1.453125 -0.984375q0.953125 -0.34375 2.1875 -0.34375q1.25 0 2.015625 0.296875q0.78125 0.28125 1.140625 0.734375q0.375 0.4375 0.515625 1.109375q0.078125 0.421875 0.078125 1.515625l0 2.1875q0 2.28125 0.109375 2.890625q0.109375 0.59375 0.40625 1.15625l-1.703125 0q-0.265625 -0.515625 -0.328125 -1.1875zm-0.140625 -3.671875q-0.890625 0.375 -2.671875 0.625q-1.015625 0.140625 -1.4375 0.328125q-0.421875 0.1875 -0.65625 0.53125q-0.21875 0.34375 -0.21875 0.78125q0 0.65625 0.5 1.09375q0.5 0.4375 1.453125 0.4375q0.9375 0 1.671875 -0.40625q0.75 -0.421875 1.09375 -1.140625q0.265625 -0.5625 0.265625 -1.640625l0 -0.609375zm10.516342 1.3125l1.609375 0.21875q-0.265625 1.65625 -1.359375 2.609375q-1.078125 0.9375 -2.671875 0.9375q-1.984375 0 -3.1875 -1.296875q-1.203125 -1.296875 -1.203125 -3.71875q0 -1.578125 0.515625 -2.75q0.515625 -1.171875 1.578125 -1.75q1.0625 -0.59375 2.3125 -0.59375q1.578125 0 2.578125 0.796875q1.0 0.796875 1.28125 2.265625l-1.59375 0.234375q-0.234375 -0.96875 -0.8125 -1.453125q-0.578125 -0.5 -1.390625 -0.5q-1.234375 0 -2.015625 0.890625q-0.78125 0.890625 -0.78125 2.8125q0 1.953125 0.75 2.84375q0.75 0.875 1.953125 0.875q0.96875 0 1.609375 -0.59375q0.65625 -0.59375 0.828125 -1.828125zm4.515625 3.546875l-1.515625 0l0 -13.359375l1.640625 0l0 4.765625q1.046875 -1.296875 2.65625 -1.296875q0.890625 0 1.6875 0.359375q0.796875 0.359375 1.3125 1.015625q0.515625 0.640625 0.796875 1.5625q0.296875 0.921875 0.296875 1.96875q0 2.484375 -1.234375 3.84375q-1.21875 1.359375 -2.953125 1.359375q-1.703125 0 -2.6875 -1.4375l0 1.21875zm-0.015625 -4.90625q0 1.734375 0.484375 2.515625q0.765625 1.265625 2.09375 1.265625q1.078125 0 1.859375 -0.9375q0.78125 -0.9375 0.78125 -2.78125q0 -1.890625 -0.75 -2.796875q-0.75 -0.90625 -1.828125 -0.90625q-1.0625 0 -1.859375 0.9375q-0.78125 0.9375 -0.78125 2.703125zm8.281967 0.0625q0 -2.6875 1.484375 -3.96875q1.25 -1.078125 3.046875 -1.078125q2.0 0 3.265625 1.3125q1.265625 1.296875 1.265625 3.609375q0 1.859375 -0.5625 2.9375q-0.5625 1.0625 -1.640625 1.65625q-1.0625 0.59375 -2.328125 0.59375q-2.03125 0 -3.28125 -1.296875q-1.25 -1.3125 -1.25 -3.765625zm1.6875 0q0 1.859375 0.796875 2.796875q0.8125 0.921875 2.046875 0.921875q1.21875 0 2.03125 -0.921875q0.8125 -0.9375 0.8125 -2.84375q0 -1.796875 -0.8125 -2.71875q-0.8125 -0.921875 -2.03125 -0.921875q-1.234375 0 -2.046875 0.921875q-0.796875 0.90625 -0.796875 2.765625zm8.688217 0q0 -2.6875 1.484375 -3.96875q1.25 -1.078125 3.046875 -1.078125q2.0 0 3.265625 1.3125q1.265625 1.296875 1.265625 3.609375q0 1.859375 -0.5625 2.9375q-0.5625 1.0625 -1.640625 1.65625q-1.0625 0.59375 -2.328125 0.59375q-2.03125 0 -3.28125 -1.296875q-1.25 -1.3125 -1.25 -3.765625zm1.6875 0q0 1.859375 0.796875 2.796875q0.8125 0.921875 2.046875 0.921875q1.21875 0 2.03125 -0.921875q0.8125 -0.9375 0.8125 -2.84375q0 -1.796875 -0.8125 -2.71875q-0.8125 -0.921875 -2.03125 -0.921875q-1.234375 0 -2.046875 0.921875q-0.796875 0.90625 -0.796875 2.765625zm9.297592 4.84375l0 -13.359375l1.640625 0l0 7.625l3.890625 -3.9375l2.1093674 0l-3.6874924 3.59375l4.0624924 6.078125l-2.015625 0l-3.2031174 -4.953125l-1.15625 1.125l0 3.828125l-1.640625 0zm14.714546 0l0 -13.359375l5.046875 0q1.328125 0 2.03125 0.125q0.96875 0.171875 1.640625 0.640625q0.671875 0.453125 1.078125 1.28125q0.40625 0.828125 0.40625 1.828125q0 1.703125 -1.09375 2.890625q-1.078125 1.171875 -3.921875 1.171875l-3.421875 0l0 5.421875l-1.765625 0zm1.765625 -7.0l3.453125 0q1.71875 0 2.4375 -0.640625q0.71875 -0.640625 0.71875 -1.796875q0 -0.84375 -0.421875 -1.4375q-0.421875 -0.59375 -1.125 -0.78125q-0.4375 -0.125 -1.640625 -0.125l-3.421875 0l0 4.78125zm10.459198 7.0l0 -9.671875l1.46875 0l0 1.46875q0.5625 -1.03125 1.03125 -1.359375q0.484375 -0.328125 1.0625 -0.328125q0.828125 0 1.6875 0.53125l-0.5625 1.515625q-0.609375 -0.359375 -1.203125 -0.359375q-0.546875 0 -0.96875 0.328125q-0.421875 0.328125 -0.609375 0.890625q-0.28125 0.875 -0.28125 1.921875l0 5.0625l-1.625 0zm5.618927 -4.84375q0 -2.6875 1.484375 -3.96875q1.25 -1.078125 3.046875 -1.078125q2.0 0 3.265625 1.3125q1.265625 1.296875 1.265625 3.609375q0 1.859375 -0.5625 2.9375q-0.5625 1.0625 -1.640625 1.65625q-1.0625 0.59375 -2.328125 0.59375q-2.03125 0 -3.28125 -1.296875q-1.25 -1.3125 -1.25 -3.765625zm1.6875 0q0 1.859375 0.796875 2.796875q0.8125 0.921875 2.046875 0.921875q1.21875 0 2.03125 -0.921875q0.8125 -0.9375 0.8125 -2.84375q0 -1.796875 -0.8125 -2.71875q-0.8125 -0.921875 -2.03125 -0.921875q-1.234375 0 -2.046875 0.921875q-0.796875 0.90625 -0.796875 2.765625z" fill-rule="nonzero"/><path fill="#cfe2f3" d="m210.63518 167.36745l143.71654 0l0 60.12599l-143.71654 0z" fill-rule="evenodd"/><path stroke="#000000" stroke-width="1.0" stroke-linejoin="round" stroke-linecap="butt" d="m210.63518 167.36745l143.71654 0l0 60.12599l-143.71654 0z" fill-rule="evenodd"/><path fill="#000000" d="m251.04648 204.35045l0 -13.359375l1.765625 0l0 13.359375l-1.765625 0zm4.886429 0l0 -13.359375l5.0468597 0q1.328125 0 2.03125 0.125q0.96875 0.171875 1.640625 0.640625q0.671875 0.453125 1.078125 1.28125q0.40625 0.828125 0.40625 1.828125q0 1.703125 -1.09375 2.890625q-1.078125 1.171875 -3.921875 1.171875l-3.421875 0l0 5.421875l-1.7656097 0zm1.7656097 -7.0l3.453125 0q1.71875 0 2.4375 -0.640625q0.71875 -0.640625 0.71875 -1.796875q0 -0.84375 -0.421875 -1.4375q-0.421875 -0.59375 -1.125 -0.78125q-0.4375 -0.125 -1.640625 -0.125l-3.421875 0l0 4.78125zm16.787323 5.8125q-0.921875 0.765625 -1.765625 1.09375q-0.828125 0.3125 -1.796875 0.3125q-1.59375 0 -2.453125 -0.78125q-0.859375 -0.78125 -0.859375 -1.984375q0 -0.71875 0.328125 -1.296875q0.328125 -0.59375 0.84375 -0.9375q0.53125 -0.359375 1.1875 -0.546875q0.46875 -0.125 1.453125 -0.25q1.984375 -0.234375 2.921875 -0.5625q0.015625 -0.34375 0.015625 -0.421875q0 -1.0 -0.46875 -1.421875q-0.625 -0.546875 -1.875 -0.546875q-1.15625 0 -1.703125 0.40625q-0.546875 0.40625 -0.8125 1.421875l-1.609375 -0.21875q0.21875 -1.015625 0.71875 -1.640625q0.5 -0.640625 1.453125 -0.984375q0.953125 -0.34375 2.1875 -0.34375q1.25 0 2.015625 0.296875q0.78125 0.28125 1.140625 0.734375q0.375 0.4375 0.515625 1.109375q0.078125 0.421875 0.078125 1.515625l0 2.1875q0 2.28125 0.109375 2.890625q0.109375 0.59375 0.40625 1.15625l-1.703125 0q-0.265625 -0.515625 -0.328125 -1.1875zm-0.140625 -3.671875q-0.890625 0.375 -2.671875 0.625q-1.015625 0.140625 -1.4375 0.328125q-0.421875 0.1875 -0.65625 0.53125q-0.21875 0.34375 -0.21875 0.78125q0 0.65625 0.5 1.09375q0.5 0.4375 1.453125 0.4375q0.9375 0 1.671875 -0.40625q0.75 -0.421875 1.09375 -1.140625q0.265625 -0.5625 0.265625 -1.640625l0 -0.609375zm10.469482 4.859375l0 -1.21875q-0.90625 1.4375 -2.703125 1.4375q-1.15625 0 -2.125 -0.640625q-0.96875 -0.640625 -1.5 -1.78125q-0.53125 -1.140625 -0.53125 -2.625q0 -1.453125 0.484375 -2.625q0.484375 -1.1875 1.4375 -1.8125q0.96875 -0.625 2.171875 -0.625q0.875 0 1.546875 0.375q0.6875 0.359375 1.109375 0.953125l0 -4.796875l1.640625 0l0 13.359375l-1.53125 0zm-5.171875 -4.828125q0 1.859375 0.78125 2.78125q0.78125 0.921875 1.84375 0.921875q1.078125 0 1.828125 -0.875q0.75 -0.890625 0.75 -2.6875q0 -1.984375 -0.765625 -2.90625q-0.765625 -0.9375 -1.890625 -0.9375q-1.078125 0 -1.8125 0.890625q-0.734375 0.890625 -0.734375 2.8125zm13.199646 4.828125l5.125 -13.359375l1.90625 0l5.46875 13.359375l-2.015625 0l-1.546875 -4.046875l-5.59375 0l-1.46875 4.046875l-1.875 0zm3.859375 -5.484375l4.53125 0l-1.40625 -3.703125q-0.625 -1.6875 -0.9375 -2.765625q-0.265625 1.28125 -0.71875 2.546875l-1.46875 3.921875zm9.849823 -5.984375l0 -1.890625l1.640625 0l0 1.890625l-1.640625 0zm0 11.46875l0 -9.671875l1.640625 0l0 9.671875l-1.640625 0zm4.129181 0l0 -9.671875l1.46875 0l0 1.46875q0.5625 -1.03125 1.03125 -1.359375q0.484375 -0.328125 1.0625 -0.328125q0.828125 0 1.6875 0.53125l-0.5625 1.515625q-0.609375 -0.359375 -1.203125 -0.359375q-0.546875 0 -0.96875 0.328125q-0.421875 0.328125 -0.609375 0.890625q-0.28125 0.875 -0.28125 1.921875l0 5.0625l-1.625 0z" fill-rule="nonzero"/><path fill="#cfe2f3" d="m381.40683 167.36745l143.71652 0l0 60.12599l-143.71652 0z" fill-rule="evenodd"/><path stroke="#000000" stroke-width="1.0" stroke-linejoin="round" stroke-linecap="butt" d="m381.40683 167.36745l143.71652 0l0 60.12599l-143.71652 0z" fill-rule="evenodd"/><path fill="#000000" d="m400.34866 204.35045l5.125 -13.359375l1.90625 0l5.46875 13.359375l-2.015625 0l-1.546875 -4.046875l-5.59375 0l-1.46875 4.046875l-1.875 0zm3.859375 -5.484375l4.53125 0l-1.40625 -3.703125q-0.625 -1.6875 -0.9375 -2.765625q-0.265625 1.28125 -0.71875 2.546875l-1.46875 3.921875zm9.849823 9.1875l0 -13.375l1.484375 0l0 1.25q0.53125 -0.734375 1.1875 -1.09375q0.671875 -0.375 1.625 -0.375q1.234375 0 2.171875 0.640625q0.953125 0.625 1.4375 1.796875q0.484375 1.15625 0.484375 2.546875q0 1.484375 -0.53125 2.671875q-0.53125 1.1875 -1.546875 1.828125q-1.015625 0.625 -2.140625 0.625q-0.8125 0 -1.46875 -0.34375q-0.65625 -0.34375 -1.0625 -0.875l0 4.703125l-1.640625 0zm1.484375 -8.484375q0 1.859375 0.75 2.765625q0.765625 0.890625 1.828125 0.890625q1.09375 0 1.875 -0.921875q0.78125 -0.9375 0.78125 -2.875q0 -1.84375 -0.765625 -2.765625q-0.75 -0.921875 -1.8125 -0.921875q-1.046875 0 -1.859375 0.984375q-0.796875 0.96875 -0.796875 2.84375zm8.891327 8.484375l0 -13.375l1.484375 0l0 1.25q0.53125 -0.734375 1.1875 -1.09375q0.671875 -0.375 1.625 -0.375q1.234375 0 2.171875 0.640625q0.953125 0.625 1.4375 1.796875q0.484375 1.15625 0.484375 2.546875q0 1.484375 -0.53125 2.671875q-0.53125 1.1875 -1.546875 1.828125q-1.015625 0.625 -2.140625 0.625q-0.8125 0 -1.46875 -0.34375q-0.65625 -0.34375 -1.0625 -0.875l0 4.703125l-1.640625 0zm1.484375 -8.484375q0 1.859375 0.75 2.765625q0.765625 0.890625 1.828125 0.890625q1.09375 0 1.875 -0.921875q0.78125 -0.9375 0.78125 -2.875q0 -1.84375 -0.765625 -2.765625q-0.75 -0.921875 -1.8125 -0.921875q-1.046875 0 -1.859375 0.984375q-0.796875 0.96875 -0.796875 2.84375zm8.844482 4.78125l0 -13.359375l1.640625 0l0 13.359375l-1.640625 0zm10.816681 -3.109375l1.6875 0.203125q-0.40625 1.484375 -1.484375 2.3125q-1.078125 0.8125 -2.765625 0.8125q-2.125 0 -3.375 -1.296875q-1.234375 -1.3125 -1.234375 -3.671875q0 -2.453125 1.25 -3.796875q1.265625 -1.34375 3.265625 -1.34375q1.9375 0 3.15625 1.328125q1.234375 1.3125 1.234375 3.703125q0 0.15625 0 0.4375l-7.21875 0q0.09375 1.59375 0.90625 2.453125q0.8125 0.84375 2.015625 0.84375q0.90625 0 1.546875 -0.46875q0.640625 -0.484375 1.015625 -1.515625zm-5.390625 -2.65625l5.40625 0q-0.109375 -1.21875 -0.625 -1.828125q-0.78125 -0.953125 -2.03125 -0.953125q-1.125 0 -1.90625 0.765625q-0.765625 0.75 -0.84375 2.015625zm16.855896 5.765625l-3.53125 -13.359375l1.8125 0l2.03125 8.765625q0.328125 1.375 0.5625 2.71875q0.5 -2.140625 0.59375 -2.46875l2.546875 -9.015625l2.125 0l1.921875 6.765625q0.71875 2.515625 1.03125 4.71875q0.265625 -1.265625 0.671875 -2.890625l2.09375 -8.59375l1.78125 0l-3.671875 13.359375l-1.703125 0l-2.8125 -10.171875q-0.359375 -1.28125 -0.421875 -1.5625q-0.203125 0.90625 -0.390625 1.5625l-2.828125 10.171875l-1.8125 0zm21.389923 -1.1875q-0.921875 0.765625 -1.765625 1.09375q-0.828125 0.3125 -1.796875 0.3125q-1.59375 0 -2.453125 -0.78125q-0.859375 -0.78125 -0.859375 -1.984375q0 -0.71875 0.328125 -1.296875q0.328125 -0.59375 0.84375 -0.9375q0.53125 -0.359375 1.1875 -0.546875q0.46875 -0.125 1.453125 -0.25q1.984375 -0.234375 2.921875 -0.5625q0.015625 -0.34375 0.015625 -0.421875q0 -1.0 -0.46875 -1.421875q-0.625 -0.546875 -1.875 -0.546875q-1.15625 0 -1.703125 0.40625q-0.546875 0.40625 -0.8125 1.421875l-1.609375 -0.21875q0.21875 -1.015625 0.71875 -1.640625q0.5 -0.640625 1.453125 -0.984375q0.953125 -0.34375 2.1875 -0.34375q1.25 0 2.015625 0.296875q0.78125 0.28125 1.140625 0.734375q0.375 0.4375 0.515625 1.109375q0.078125 0.421875 0.078125 1.515625l0 2.1875q0 2.28125 0.109375 2.890625q0.109375 0.59375 0.40625 1.15625l-1.703125 0q-0.265625 -0.515625 -0.328125 -1.1875zm-0.140625 -3.671875q-0.890625 0.375 -2.671875 0.625q-1.015625 0.140625 -1.4375 0.328125q-0.421875 0.1875 -0.65625 0.53125q-0.21875 0.34375 -0.21875 0.78125q0 0.65625 0.5 1.09375q0.5 0.4375 1.453125 0.4375q0.9375 0 1.671875 -0.40625q0.75 -0.421875 1.09375 -1.140625q0.265625 -0.5625 0.265625 -1.640625l0 -0.609375zm7.781952 3.390625l0.234375 1.453125q-0.6875 0.140625 -1.234375 0.140625q-0.890625 0 -1.390625 -0.28125q-0.484375 -0.28125 -0.6875 -0.734375q-0.203125 -0.46875 -0.203125 -1.9375l0 -5.578125l-1.203125 0l0 -1.265625l1.203125 0l0 -2.390625l1.625 -0.984375l0 3.375l1.65625 0l0 1.265625l-1.65625 0l0 5.671875q0 0.6875 0.078125 0.890625q0.09375 0.203125 0.28125 0.328125q0.203125 0.109375 0.578125 0.109375q0.265625 0 0.71875 -0.0625zm7.917694 -2.078125l1.609375 0.21875q-0.265625 1.65625 -1.359375 2.609375q-1.078125 0.9375 -2.671875 0.9375q-1.984375 0 -3.1875 -1.296875q-1.203125 -1.296875 -1.203125 -3.71875q0 -1.578125 0.515625 -2.75q0.515625 -1.171875 1.578125 -1.75q1.0625 -0.59375 2.3125 -0.59375q1.578125 0 2.578125 0.796875q1.0 0.796875 1.28125 2.265625l-1.59375 0.234375q-0.234375 -0.96875 -0.8125 -1.453125q-0.578125 -0.5 -1.390625 -0.5q-1.234375 0 -2.015625 0.890625q-0.78125 0.890625 -0.78125 2.8125q0 1.953125 0.75 2.84375q0.75 0.875 1.953125 0.875q0.96875 0 1.609375 -0.59375q0.65625 -0.59375 0.828125 -1.828125zm3.015625 3.546875l0 -13.359375l1.640625 0l0 4.796875q1.140625 -1.328125 2.890625 -1.328125q1.078125 0 1.859375 0.421875q0.796875 0.421875 1.140625 1.171875q0.34375 0.75 0.34375 2.171875l0 6.125l-1.640625 0l0 -6.125q0 -1.234375 -0.53125 -1.796875q-0.53125 -0.5625 -1.515625 -0.5625q-0.71875 0 -1.359375 0.390625q-0.640625 0.375 -0.921875 1.015625q-0.265625 0.640625 -0.265625 1.78125l0 5.296875l-1.640625 0z" fill-rule="nonzero"/><path fill="#cfe2f3" d="m563.1076 167.36745l238.92914 0l0 60.12599l-238.92914 0z" fill-rule="evenodd"/><path stroke="#000000" stroke-width="1.0" stroke-linejoin="round" stroke-linecap="butt" d="m563.1076 167.36745l238.92914 0l0 60.12599l-238.92914 0z" fill-rule="evenodd"/><path fill="#000000" d="m580.7699 204.35045l5.125 -13.359375l1.90625 0l5.46875 13.359375l-2.015625 0l-1.546875 -4.046875l-5.59375 0l-1.46875 4.046875l-1.875 0zm3.859375 -5.484375l4.53125 0l-1.40625 -3.703125q-0.625 -1.6875 -0.9375 -2.765625q-0.265625 1.28125 -0.71875 2.546875l-1.46875 3.921875zm9.8497925 9.1875l0 -13.375l1.484375 0l0 1.25q0.53125 -0.734375 1.1875 -1.09375q0.671875 -0.375 1.625 -0.375q1.234375 0 2.171875 0.640625q0.953125 0.625 1.4375 1.796875q0.484375 1.15625 0.484375 2.546875q0 1.484375 -0.53125 2.671875q-0.53125 1.1875 -1.546875 1.828125q-1.015625 0.625 -2.140625 0.625q-0.8125 0 -1.46875 -0.34375q-0.65625 -0.34375 -1.0625 -0.875l0 4.703125l-1.640625 0zm1.484375 -8.484375q0 1.859375 0.75 2.765625q0.765625 0.890625 1.828125 0.890625q1.09375 0 1.875 -0.921875q0.78125 -0.9375 0.78125 -2.875q0 -1.84375 -0.765625 -2.765625q-0.75 -0.921875 -1.8125 -0.921875q-1.046875 0 -1.859375 0.984375q-0.796875 0.96875 -0.796875 2.84375zm8.891357 8.484375l0 -13.375l1.484375 0l0 1.25q0.53125 -0.734375 1.1875 -1.09375q0.671875 -0.375 1.625 -0.375q1.234375 0 2.171875 0.640625q0.953125 0.625 1.4375 1.796875q0.484375 1.15625 0.484375 2.546875q0 1.484375 -0.53125 2.671875q-0.53125 1.1875 -1.546875 1.828125q-1.015625 0.625 -2.140625 0.625q-0.8125 0 -1.46875 -0.34375q-0.65625 -0.34375 -1.0625 -0.875l0 4.703125l-1.640625 0zm1.484375 -8.484375q0 1.859375 0.75 2.765625q0.765625 0.890625 1.828125 0.890625q1.09375 0 1.875 -0.921875q0.78125 -0.9375 0.78125 -2.875q0 -1.84375 -0.765625 -2.765625q-0.75 -0.921875 -1.8125 -0.921875q-1.046875 0 -1.859375 0.984375q-0.796875 0.96875 -0.796875 2.84375zm8.844482 4.78125l0 -13.359375l1.640625 0l0 13.359375l-1.640625 0zm10.816711 -3.109375l1.6875 0.203125q-0.40625 1.484375 -1.484375 2.3125q-1.078125 0.8125 -2.765625 0.8125q-2.125 0 -3.375 -1.296875q-1.234375 -1.3125 -1.234375 -3.671875q0 -2.453125 1.25 -3.796875q1.265625 -1.34375 3.265625 -1.34375q1.9375 0 3.15625 1.328125q1.234375 1.3125 1.234375 3.703125q0 0.15625 0 0.4375l-7.21875 0q0.09375 1.59375 0.90625 2.453125q0.8125 0.84375 2.015625 0.84375q0.90625 0 1.546875 -0.46875q0.640625 -0.484375 1.015625 -1.515625zm-5.390625 -2.65625l5.40625 0q-0.109375 -1.21875 -0.625 -1.828125q-0.78125 -0.953125 -2.03125 -0.953125q-1.125 0 -1.90625 0.765625q-0.765625 0.75 -0.84375 2.015625zm13.230896 5.765625l3.53125 -5.03125l-3.265625 -4.640625l2.046875 0l1.484375 2.265625q0.421875 0.640625 0.671875 1.078125q0.40625 -0.59375 0.734375 -1.0625l1.640625 -2.28125l1.953125 0l-3.34375 4.546875l3.59375 5.125l-2.015625 0l-1.984375 -3.0l-0.515625 -0.8125l-2.546875 3.8125l-1.984375 0zm15.214539 -4.296875l1.65625 -0.140625q0.125 1.0 0.546875 1.640625q0.4375 0.640625 1.34375 1.046875q0.921875 0.390625 2.0625 0.390625q1.0 0 1.78125 -0.296875q0.78125 -0.296875 1.15625 -0.8125q0.375 -0.53125 0.375 -1.15625q0 -0.625 -0.375 -1.09375q-0.359375 -0.46875 -1.1875 -0.796875q-0.546875 -0.203125 -2.390625 -0.640625q-1.828125 -0.453125 -2.5625 -0.84375q-0.96875 -0.5 -1.4375 -1.234375q-0.46875 -0.75 -0.46875 -1.671875q0 -1.0 0.578125 -1.875q0.578125 -0.890625 1.671875 -1.34375q1.109375 -0.453125 2.453125 -0.453125q1.484375 0 2.609375 0.484375q1.140625 0.46875 1.75 1.40625q0.609375 0.921875 0.65625 2.09375l-1.6875 0.125q-0.140625 -1.265625 -0.9375 -1.90625q-0.78125 -0.65625 -2.3125 -0.65625q-1.609375 0 -2.34375 0.59375q-0.734375 0.59375 -0.734375 1.421875q0 0.71875 0.53125 1.171875q0.5 0.46875 2.65625 0.96875q2.15625 0.484375 2.953125 0.84375q1.171875 0.53125 1.71875 1.359375q0.5625 0.828125 0.5625 1.90625q0 1.0625 -0.609375 2.015625q-0.609375 0.9375 -1.75 1.46875q-1.140625 0.515625 -2.578125 0.515625q-1.8125 0 -3.046875 -0.53125q-1.21875 -0.53125 -1.921875 -1.59375q-0.6875 -1.0625 -0.71875 -2.40625zm14.6154175 4.296875l-2.96875 -9.671875l1.703125 0l1.53125 5.578125l0.578125 2.078125q0.046875 -0.15625 0.5 -2.0l1.546875 -5.65625l1.6875 0l1.4375 5.609375l0.484375 1.84375l0.5625 -1.859375l1.65625 -5.59375l1.59375 0l-3.03125 9.671875l-1.703125 0l-1.53125 -5.796875l-0.375 -1.640625l-1.953125 7.4375l-1.71875 0zm11.691711 -11.46875l0 -1.890625l1.640625 0l0 1.890625l-1.640625 0zm0 11.46875l0 -9.671875l1.640625 0l0 9.671875l-1.640625 0zm7.7229614 -1.46875l0.234375 1.453125q-0.6875 0.140625 -1.234375 0.140625q-0.890625 0 -1.390625 -0.28125q-0.484375 -0.28125 -0.6875 -0.734375q-0.203125 -0.46875 -0.203125 -1.9375l0 -5.578125l-1.203125 0l0 -1.265625l1.203125 0l0 -2.390625l1.625 -0.984375l0 3.375l1.65625 0l0 1.265625l-1.65625 0l0 5.671875q0 0.6875 0.078125 0.890625q0.09375 0.203125 0.28125 0.328125q0.203125 0.109375 0.578125 0.109375q0.265625 0 0.71875 -0.0625zm7.9176636 -2.078125l1.609375 0.21875q-0.265625 1.65625 -1.359375 2.609375q-1.078125 0.9375 -2.671875 0.9375q-1.984375 0 -3.1875 -1.296875q-1.203125 -1.296875 -1.203125 -3.71875q0 -1.578125 0.515625 -2.75q0.515625 -1.171875 1.578125 -1.75q1.0625 -0.59375 2.3125 -0.59375q1.578125 0 2.578125 0.796875q1.0 0.796875 1.28125 2.265625l-1.59375 0.234375q-0.234375 -0.96875 -0.8125 -1.453125q-0.578125 -0.5 -1.390625 -0.5q-1.234375 0 -2.015625 0.890625q-0.78125 0.890625 -0.78125 2.8125q0 1.953125 0.75 2.84375q0.75 0.875 1.953125 0.875q0.96875 0 1.609375 -0.59375q0.65625 -0.59375 0.828125 -1.828125zm3.015625 3.546875l0 -13.359375l1.640625 0l0 4.796875q1.140625 -1.328125 2.890625 -1.328125q1.078125 0 1.859375 0.421875q0.796875 0.421875 1.140625 1.171875q0.34375 0.75 0.34375 2.171875l0 6.125l-1.640625 0l0 -6.125q0 -1.234375 -0.53125 -1.796875q-0.53125 -0.5625 -1.515625 -0.5625q-0.71875 0 -1.359375 0.390625q-0.640625 0.375 -0.921875 1.015625q-0.265625 0.640625 -0.265625 1.78125l0 5.296875l-1.640625 0z" fill-rule="nonzero"/><path fill="#000000" d="m710.3432 192.17857l0 -1.40625l5.640625 0q0.453125 -0.828125 0.75 -1.9375l1.5625 0.296875q0.296875 0.296875 -0.234375 0.375q-0.21875 0.671875 -0.515625 1.265625l7.875 0l0 1.40625l-5.046875 0q1.546875 2.078125 5.78125 3.046875l-0.4375 1.484375q-2.078125 -0.375 -4.234375 -1.859375l0 0.8125l-6.453125 0l0 0.890625l6.96875 0l0 1.1875l-6.96875 0l0 0.75l6.96875 0l0 1.1875l-6.96875 0l0 0.8125l10.828125 0l0 1.40625l-9.28125 0l-1.328125 2.375l5.78125 -0.375l-1.328125 -0.8125l0.96875 -0.96875q2.671875 1.484375 4.375 3.046875l-1.1875 1.046875l-1.34375 -1.109375l-10.90625 0.953125q-0.078125 0.53125 -0.375 0.234375l-0.4375 -1.78125l2.8125 -0.15625l1.265625 -2.453125l-5.046875 0l0 -1.40625l3.71875 0l0 -4.96875q-1.484375 0.953125 -3.640625 1.546875l-0.515625 -1.484375q3.78125 -0.953125 5.859375 -3.40625l-4.90625 0zm6.609375 0q-1.03125 1.5625 -2.15625 2.296875l6.171875 0q-1.125 -0.8125 -2.015625 -2.296875l-2.0 0zm17.0 -3.421875q0.59375 0.078125 0.078125 0.453125l0 0.515625l2.734375 0l0 0.890625l-2.734375 0l0 0.8125l1.40625 0l0.21875 -0.21875l0.671875 0.96875l-0.375 0.140625q-2.296875 3.203125 -6.75 4.53125l-0.515625 -1.265625q1.703125 -0.359375 3.265625 -1.1875q-0.59375 -0.515625 -1.265625 -1.03125q-0.75 0.671875 -1.640625 1.109375l-0.65625 -1.109375q1.703125 -0.8125 2.890625 -2.453125l0.515625 0.515625l0.96875 0l0 -2.671875l1.1875 0zm2.59375 6.234375q-1.40625 1.78125 -3.859375 2.96875l8.234375 0q-2.734375 -1.328125 -4.375 -2.96875zm1.1875 7.65625q0.671875 0.734375 1.640625 1.109375l1.484375 -1.109375l-3.125 0zm-4.296875 -2.75l6.453125 0l0 -1.046875l-6.453125 0l0 1.046875zm-1.9375 -7.28125q0.59375 0.53125 1.40625 1.046875q0.75 -0.515625 1.484375 -1.34375l-2.59375 0l-0.296875 0.296875zm1.9375 9.140625l6.453125 0l0 -0.96875l-6.453125 0l0 0.96875zm4.671875 -5.125l0 0.890625l-2.96875 0l0 -0.890625l2.96875 0zm6.3125 -6.3125l-0.296875 0.21875q-0.890625 1.484375 -2.015625 2.53125q1.265625 0.8125 2.234375 1.703125l-1.1875 1.109375q-1.046875 -1.03125 -2.078125 -1.78125q-0.96875 0.75 -2.078125 1.265625q2.453125 1.703125 6.375 2.375l-0.515625 1.484375q-1.1875 -0.140625 -3.703125 -1.109375l0 4.296875l0.515625 -0.515625l1.1875 0.8125q0.515625 0.453125 -0.296875 0.375l-1.78125 1.1875q1.484375 0.375 4.453125 0.453125l-0.375 1.40625q-6.3125 -0.140625 -8.53125 -3.484375l-2.890625 0l0 1.703125l3.5625 -0.375l0 1.046875l-7.0625 0.96875q-0.296875 0.59375 -0.515625 0l-0.375 -1.421875l3.125 -0.140625l0 -6.171875q-1.40625 0.75 -3.265625 1.265625l-0.671875 -1.40625q5.859375 -1.34375 8.09375 -5.125l1.265625 0.453125q0.359375 0.21875 -0.234375 0.296875l-0.140625 0.21875q0.296875 0.296875 0.671875 0.59375q1.1875 -0.515625 2.140625 -1.265625q-1.109375 -0.734375 -1.84375 -1.109375l0.8125 -0.96875q1.109375 0.59375 2.0 1.1875q0.8125 -0.734375 1.34375 -1.5625l-4.75 0l0 -1.1875l5.484375 0l0.21875 -0.296875l1.125 0.96875zm9.859375 2.0q-1.484375 2.15625 -3.703125 4.453125l2.96875 -0.140625l-0.890625 -1.34375l1.1875 -0.65625q1.1875 1.40625 2.0 3.1875l-1.40625 0.671875l-0.375 -0.75l-1.921875 0.15625l0 8.015625l-1.484375 0l0 -7.875l-2.828125 0.21875q-0.078125 0.53125 -0.375 0.234375l-0.296875 -1.640625l1.640625 0q0.59375 -0.59375 1.328125 -1.40625q-1.1875 -1.046875 -2.59375 -2.078125l0.8125 -1.046875l0.53125 0.375q1.703125 -2.453125 2.21875 -3.78125l1.265625 0.734375q0.4375 0.296875 -0.15625 0.375q-0.8125 1.40625 -2.375 3.34375l1.1875 0.96875q1.125 -1.34375 2.15625 -3.203125l1.34375 0.828125q0.359375 0.296875 -0.234375 0.359375zm8.609375 11.515625l1.421875 0l0 1.40625l-9.796875 0l0 -1.40625l1.78125 0l0 -13.953125l6.59375 0l0 13.953125zm-1.484375 0l0 -4.015625l-3.625 0l0 4.015625l3.625 0zm0 -5.421875l0 -2.890625l-3.625 0l0 2.890625l3.625 0zm0 -4.3125l0 -2.8125l-3.625 0l0 2.8125l3.625 0zm-7.1875 5.125q0.953125 2.078125 1.1875 3.5625l-1.484375 0.453125q0 -1.125 -1.046875 -3.640625l1.34375 -0.375zm-4.234375 0.453125q0.515625 0.140625 -0.078125 0.4375q-0.375 2.296875 -1.265625 4.3125l-1.25 -0.75q0.8125 -1.625 1.1875 -4.234375l1.40625 0.234375zm25.453125 -9.734375q2.890625 3.640625 7.640625 5.125l-0.734375 1.703125q-5.046875 -1.84375 -7.9375 -5.859375q-1.34375 2.75 -3.71875 4.375l8.234375 0l0 1.421875l-8.3125 0l0 -1.34375q-1.328125 1.109375 -3.109375 1.9375l-1.046875 -1.421875q5.421875 -2.515625 7.125 -6.75l1.9375 0.375q0.515625 0.078125 -0.078125 0.4375zm-4.671875 15.890625l-1.484375 0l0 -7.34375l11.0625 0l0 7.125l-1.484375 0l0 -0.8125l-8.09375 0l0 1.03125zm0 -2.453125l8.09375 0l0 -3.484375l-8.09375 0l0 3.484375z" fill-rule="nonzero"/><path fill="#cfe2f3" d="m297.86615 22.065617l143.71652 0l0 60.125988l-143.71652 0z" fill-rule="evenodd"/><path stroke="#000000" stroke-width="1.0" stroke-linejoin="round" stroke-linecap="butt" d="m297.86615 22.065617l143.71652 0l0 60.125988l-143.71652 0z" fill-rule="evenodd"/><path fill="#000000" d="m335.80252 56.81423q0.59375 0.375 -0.140625 0.453125q-0.75 1.78125 -2.0 3.484375l-1.1875 -1.03125q1.03125 -1.34375 2.078125 -3.5l1.25 0.59375zm7.5 -13.203125q0.59375 0.078125 0.078125 0.4375l0 1.1875l2.15625 0l0 -1.625l1.1875 0q0.59375 0.078125 0.0625 0.4375l0 1.1875l2.75 0l0 1.1875l-2.75 0l0 1.046875l2.015625 0l0 1.1875l-2.015625 0l0 1.1875l3.125 0l0 1.1875l-4.75 0l0 1.1875l3.34375 0l0 4.15625l1.40625 0l0 1.1875l-1.40625 0l0 2.15625q0 1.03125 -0.96875 1.03125l-1.5625 0l-0.296875 -1.40625l1.265625 0q0.296875 0 0.296875 -0.296875l0 -1.484375l-5.34375 0l0 3.125l-1.265625 0l0 -3.125l-1.5625 0l0 -1.1875l1.5625 0l0 -4.15625l3.265625 0l0 -1.1875l-4.59375 0l0 -1.1875l2.8125 0l0 -1.1875l-1.921875 0l0 -1.1875l1.921875 0l0 -1.046875l-2.59375 0l0 -1.1875l2.59375 0l0 -1.625l1.1875 0zm-1.40625 11.578125l0 1.1875l2.0 0l0 -1.1875l-2.0 0zm-8.234375 0.671875l0 -11.28125l5.046875 0l0 11.28125l-5.046875 0zm3.703125 0.359375q1.046875 1.046875 2.15625 3.203125l-1.34375 0.890625q-0.65625 -1.421875 -1.921875 -3.265625l1.109375 -0.828125zm-2.453125 -10.453125l0 2.21875l2.53125 0l0 -2.21875l-2.53125 0zm0 3.40625l0 2.078125l2.53125 0l0 -2.078125l-2.53125 0zm0 3.265625l0 2.234375l2.53125 0l0 -2.234375l-2.53125 0zm10.25 0.671875l0 1.1875l2.078125 0l0 -1.1875l-2.078125 0zm-3.265625 1.1875l2.0 0l0 -1.1875l-2.0 0l0 1.1875zm3.265625 0.890625l0 1.1875l2.078125 0l0 -1.1875l-2.078125 0zm-1.78125 -8.765625l0 1.046875l2.15625 0l0 -1.046875l-2.15625 0zm0 2.234375l0 1.1875l2.15625 0l0 -1.1875l-2.15625 0zm10.46875 -1.265625l1.1875 0l0 -3.78125l1.40625 0q0.59375 0.078125 0.078125 0.4375l0 3.34375l2.078125 0l0 1.40625l-2.078125 0l0 4.09375l1.921875 -0.75l0.375 1.265625l-2.296875 0.96875l0 6.375l-1.484375 0l0 -5.859375l-2.3125 0.734375q-0.0625 0.53125 -0.359375 0.234375l-0.53125 -1.640625l3.203125 -0.890625l0 -4.53125l-1.265625 0q-0.15625 1.421875 -0.59375 2.75l-1.40625 -0.515625q0.890625 -2.59375 0.890625 -5.71875l1.484375 0.21875q0.21875 0.234375 -0.15625 0.453125l-0.140625 1.40625zm14.46875 -0.140625l-0.078125 9.125q0 3.9375 -2.21875 3.9375l-2.15625 0l-0.296875 -1.640625l1.859375 0q1.328125 0.15625 1.328125 -2.296875l0.078125 -7.71875l-0.8125 0q0.0625 6.53125 -6.46875 12.03125l-0.953125 -1.34375q5.484375 -4.078125 6.0 -10.6875l-1.1875 0q-0.296875 4.53125 -4.515625 8.015625l-1.046875 -1.265625q3.71875 -2.890625 4.15625 -6.75l-1.1875 0q-0.8125 2.0 -2.078125 3.40625l-1.265625 -0.890625q2.609375 -3.1875 3.203125 -7.34375l1.546875 0.296875q0.296875 0.296875 -0.21875 0.375q-0.21875 1.265625 -0.671875 2.75l6.984375 0zm2.296875 10.984375q0.59375 -1.71875 0.890625 -4.09375l1.34375 0.296875q0.21875 0.234375 -0.15625 0.453125q-0.296875 2.296875 -0.8125 3.9375l-1.265625 -0.59375zm2.890625 -6.609375l2.3125 -0.15625l-0.59375 -1.25l1.109375 -0.53125q0.734375 1.1875 1.328125 2.828125l0 -8.171875l9.4375 0l0 15.0q0 1.109375 -0.96875 1.109375l-1.40625 0l-0.296875 -1.1875l1.1875 0q0.21875 0 0.21875 -0.21875l0 -5.5l-4.078125 0l0 2.078125q0 0.453125 0.4375 0.453125l2.59375 0l0 1.1875l-2.96875 0q-1.328125 0 -1.328125 -1.34375l0 -2.375l-1.5625 0l0 7.140625l-1.265625 0l0 -7.796875l-1.109375 0.515625l-0.296875 -0.75l-1.40625 0.15625l0 7.796875l-1.265625 0l0 -7.65625l-2.375 0.234375q-0.21875 0.65625 -0.375 0.21875l-0.21875 -1.703125l1.265625 0l1.265625 -1.71875q-1.265625 -1.40625 -2.453125 -2.4375l0.890625 -0.96875l0.671875 0.671875l1.78125 -3.5l1.25 0.75q0.375 0.296875 -0.296875 0.375l-1.84375 3.265625l0.734375 0.734375l1.859375 -2.96875l1.1875 0.8125q0.375 0.296875 -0.296875 0.375l-3.125 4.53125zm9.28125 -2.15625l1.046875 -3.265625l1.40625 0.375q0.515625 0.140625 -0.21875 0.375l-1.125 2.515625l1.9375 0l0 -3.9375l-6.90625 0l0 3.9375l3.859375 0zm-6.234375 4.53125q0.671875 1.5625 0.890625 3.5625l-1.265625 0.515625q-0.21875 -2.078125 -0.734375 -3.703125l1.109375 -0.375zm4.453125 -7.71875q0.671875 0.8125 1.265625 2.296875l-1.1875 0.515625q-0.515625 -1.484375 -1.1875 -2.375l1.109375 -0.4375zm-2.078125 6.078125l2.828125 0l0 -1.703125l-2.828125 0l0 1.703125zm6.90625 0l0 -1.703125l-2.828125 0l0 1.703125l2.828125 0zm6.3125 -2.375q0.515625 2.90625 0.8125 5.796875l-1.484375 0.140625q-0.296875 -2.734375 -0.890625 -5.640625l1.5625 -0.296875zm8.3125 -6.0l1.40625 0q0.59375 0.0625 0.078125 0.4375l0 2.96875l4.515625 0l0 1.40625l-4.515625 0l0 3.265625l3.921875 0l0 8.171875l-1.484375 0l0 -0.890625l-5.109375 0l0 1.046875l-1.484375 0l0 -8.328125l2.671875 0l0 -8.078125zm-2.96875 4.890625l-7.578125 0l0 -1.40625l3.1875 0l0 -3.34375l1.421875 0q0.59375 0.078125 0.0625 0.453125l0 2.890625l2.90625 0l0 1.40625zm-6.6875 9.875q-0.21875 0.75 -0.515625 0.078125l-0.515625 -1.484375l4.21875 -0.53125q0.59375 -3.625 0.75 -7.34375l1.859375 0.453125q0.65625 0.296875 -0.15625 0.515625q-0.296875 2.96875 -0.96875 6.234375l1.859375 -0.296875l0 1.328125l-6.53125 1.046875zm8.46875 -0.8125l5.109375 0l0 -4.453125l-5.109375 0l0 4.453125z" fill-rule="nonzero"/><path fill="#000000" fill-opacity="0.0" d="m369.7244 82.191605l-260.12598 85.165344" fill-rule="evenodd"/><path stroke="#000000" stroke-width="1.0" stroke-linejoin="round" stroke-linecap="butt" d="m369.7244 82.191605l-254.4238 83.29846" fill-rule="evenodd"/><path fill="#000000" stroke="#000000" stroke-width="1.0" stroke-linecap="butt" d="m114.78666 163.92032l-3.7988968 2.9817657l4.826767 0.15771484z" fill-rule="evenodd"/><path fill="#000000" fill-opacity="0.0" d="m369.7244 82.191605l-87.24408 85.165344" fill-rule="evenodd"/><path stroke="#000000" stroke-width="1.0" stroke-linejoin="round" stroke-linecap="butt" d="m369.7244 82.191605l-82.95059 80.97417" fill-rule="evenodd"/><path fill="#000000" stroke="#000000" stroke-width="1.0" stroke-linecap="butt" d="m285.62003 161.98383l-2.0935974 4.351944l4.4011536 -1.9880524z" fill-rule="evenodd"/><path fill="#000000" fill-opacity="0.0" d="m369.7244 82.191605l83.52759 85.165344" fill-rule="evenodd"/><path stroke="#000000" stroke-width="1.0" stroke-linejoin="round" stroke-linecap="butt" d="m369.7244 82.191605l79.326324 80.88173" fill-rule="evenodd"/><path fill="#000000" stroke="#000000" stroke-width="1.0" stroke-linecap="butt" d="m447.8715 164.22989l4.356842 2.0833588l-1.9983826 -4.3964844z" fill-rule="evenodd"/><path fill="#000000" fill-opacity="0.0" d="m369.7244 82.191605l312.85043 85.165344" fill-rule="evenodd"/><path stroke="#000000" stroke-width="1.0" stroke-linejoin="round" stroke-linecap="butt" d="m369.7244 82.191605l307.06107 83.589355" fill-rule="evenodd"/><path fill="#000000" stroke="#000000" stroke-width="1.0" stroke-linecap="butt" d="m676.3516 167.3747l4.812622 -0.4017334l-3.9448853 -2.785736z" fill-rule="evenodd"/><path fill="#cfe2f3" d="m156.98795 410.83466l143.71652 0l0 60.125977l-143.71652 0z" fill-rule="evenodd"/><path stroke="#000000" stroke-width="1.0" stroke-linejoin="round" stroke-linecap="butt" d="m156.98795 410.83466l143.71652 0l0 60.125977l-143.71652 0z" fill-rule="evenodd"/><path fill="#000000" d="m175.27924 447.81763l0 -13.359375l2.65625 0l3.15625 9.453125q0.4375 1.328125 0.640625 1.984375q0.234375 -0.734375 0.703125 -2.140625l3.203125 -9.296875l2.375 0l0 13.359375l-1.703125 0l0 -11.171875l-3.875 11.171875l-1.59375 0l-3.859375 -11.375l0 11.375l-1.703125 0zm21.697052 -1.1875q-0.921875 0.765625 -1.765625 1.09375q-0.828125 0.3125 -1.796875 0.3125q-1.59375 0 -2.453125 -0.78125q-0.859375 -0.78125 -0.859375 -1.984375q0 -0.71875 0.328125 -1.296875q0.328125 -0.59375 0.84375 -0.9375q0.53125 -0.359375 1.1875 -0.546875q0.46875 -0.125 1.453125 -0.25q1.984375 -0.234375 2.921875 -0.5625q0.015625 -0.34375 0.015625 -0.421875q0 -1.0 -0.46875 -1.421875q-0.625 -0.546875 -1.875 -0.546875q-1.15625 0 -1.703125 0.40625q-0.546875 0.40625 -0.8125 1.421875l-1.609375 -0.21875q0.21875 -1.015625 0.71875 -1.640625q0.5 -0.640625 1.453125 -0.984375q0.953125 -0.34375 2.1875 -0.34375q1.25 0 2.015625 0.296875q0.78125 0.28125 1.140625 0.734375q0.375 0.4375 0.515625 1.109375q0.078125 0.421875 0.078125 1.515625l0 2.1875q0 2.28125 0.109375 2.890625q0.109375 0.59375 0.40625 1.15625l-1.703125 0q-0.265625 -0.515625 -0.328125 -1.1875zm-0.140625 -3.671875q-0.890625 0.375 -2.671875 0.625q-1.015625 0.140625 -1.4375 0.328125q-0.421875 0.1875 -0.65625 0.53125q-0.21875 0.34375 -0.21875 0.78125q0 0.65625 0.5 1.09375q0.5 0.4375 1.453125 0.4375q0.9375 0 1.671875 -0.40625q0.75 -0.421875 1.09375 -1.140625q0.265625 -0.5625 0.265625 -1.640625l0 -0.609375zm10.516342 1.3125l1.609375 0.21875q-0.265625 1.65625 -1.359375 2.609375q-1.078125 0.9375 -2.671875 0.9375q-1.984375 0 -3.1875 -1.296875q-1.203125 -1.296875 -1.203125 -3.71875q0 -1.578125 0.515625 -2.75q0.515625 -1.171875 1.578125 -1.75q1.0625 -0.59375 2.3125 -0.59375q1.578125 0 2.578125 0.796875q1.0 0.796875 1.28125 2.265625l-1.59375 0.234375q-0.234375 -0.96875 -0.8125 -1.453125q-0.578125 -0.5 -1.390625 -0.5q-1.234375 0 -2.015625 0.890625q-0.78125 0.890625 -0.78125 2.8125q0 1.953125 0.75 2.84375q0.75 0.875 1.953125 0.875q0.96875 0 1.609375 -0.59375q0.65625 -0.59375 0.828125 -1.828125zm4.515625 3.546875l-1.515625 0l0 -13.359375l1.640625 0l0 4.765625q1.046875 -1.296875 2.65625 -1.296875q0.890625 0 1.6875 0.359375q0.796875 0.359375 1.3125 1.015625q0.515625 0.640625 0.796875 1.5625q0.296875 0.921875 0.296875 1.96875q0 2.484375 -1.234375 3.84375q-1.21875 1.359375 -2.953125 1.359375q-1.703125 0 -2.6875 -1.4375l0 1.21875zm-0.015625 -4.90625q0 1.734375 0.484375 2.515625q0.765625 1.265625 2.09375 1.265625q1.078125 0 1.859375 -0.9375q0.78125 -0.9375 0.78125 -2.78125q0 -1.890625 -0.75 -2.796875q-0.75 -0.90625 -1.828125 -0.90625q-1.0625 0 -1.859375 0.9375q-0.78125 0.9375 -0.78125 2.703125zm8.281967 0.0625q0 -2.6875 1.484375 -3.96875q1.25 -1.078125 3.046875 -1.078125q2.0 0 3.265625 1.3125q1.265625 1.296875 1.265625 3.609375q0 1.859375 -0.5625 2.9375q-0.5625 1.0625 -1.640625 1.65625q-1.0625 0.59375 -2.328125 0.59375q-2.03125 0 -3.28125 -1.296875q-1.25 -1.3125 -1.25 -3.765625zm1.6875 0q0 1.859375 0.796875 2.796875q0.8125 0.921875 2.046875 0.921875q1.21875 0 2.03125 -0.921875q0.8125 -0.9375 0.8125 -2.84375q0 -1.796875 -0.8125 -2.71875q-0.8125 -0.921875 -2.03125 -0.921875q-1.234375 0 -2.046875 0.921875q-0.796875 0.90625 -0.796875 2.765625zm8.688217 0q0 -2.6875 1.484375 -3.96875q1.25 -1.078125 3.046875 -1.078125q2.0 0 3.265625 1.3125q1.265625 1.296875 1.265625 3.609375q0 1.859375 -0.5625 2.9375q-0.5625 1.0625 -1.640625 1.65625q-1.0625 0.59375 -2.328125 0.59375q-2.03125 0 -3.28125 -1.296875q-1.25 -1.3125 -1.25 -3.765625zm1.6875 0q0 1.859375 0.796875 2.796875q0.8125 0.921875 2.046875 0.921875q1.21875 0 2.03125 -0.921875q0.8125 -0.9375 0.8125 -2.84375q0 -1.796875 -0.8125 -2.71875q-0.8125 -0.921875 -2.03125 -0.921875q-1.234375 0 -2.046875 0.921875q-0.796875 0.90625 -0.796875 2.765625zm9.297592 4.84375l0 -13.359375l1.640625 0l0 7.625l3.890625 -3.9375l2.109375 0l-3.6875 3.59375l4.0625 6.078125l-2.015625 0l-3.203125 -4.953125l-1.15625 1.125l0 3.828125l-1.640625 0zm14.714569 0l0 -13.359375l5.046875 0q1.328125 0 2.03125 0.125q0.96875 0.171875 1.640625 0.640625q0.671875 0.453125 1.078125 1.28125q0.40625 0.828125 0.40625 1.828125q0 1.703125 -1.09375 2.890625q-1.078125 1.171875 -3.921875 1.171875l-3.421875 0l0 5.421875l-1.765625 0zm1.765625 -7.0l3.453125 0q1.71875 0 2.4375 -0.640625q0.71875 -0.640625 0.71875 -1.796875q0 -0.84375 -0.421875 -1.4375q-0.421875 -0.59375 -1.125 -0.78125q-0.4375 -0.125 -1.640625 -0.125l-3.421875 0l0 4.78125zm10.459198 7.0l0 -9.671875l1.46875 0l0 1.46875q0.5625 -1.03125 1.03125 -1.359375q0.484375 -0.328125 1.0625 -0.328125q0.828125 0 1.6875 0.53125l-0.5625 1.515625q-0.609375 -0.359375 -1.203125 -0.359375q-0.546875 0 -0.96875 0.328125q-0.421875 0.328125 -0.609375 0.890625q-0.28125 0.875 -0.28125 1.921875l0 5.0625l-1.625 0zm5.618927 -4.84375q0 -2.6875 1.484375 -3.96875q1.25 -1.078125 3.046875 -1.078125q2.0 0 3.265625 1.3125q1.265625 1.296875 1.265625 3.609375q0 1.859375 -0.5625 2.9375q-0.5625 1.0625 -1.640625 1.65625q-1.0625 0.59375 -2.328125 0.59375q-2.03125 0 -3.28125 -1.296875q-1.25 -1.3125 -1.25 -3.765625zm1.6875 0q0 1.859375 0.796875 2.796875q0.8125 0.921875 2.046875 0.921875q1.21875 0 2.03125 -0.921875q0.8125 -0.9375 0.8125 -2.84375q0 -1.796875 -0.8125 -2.71875q-0.8125 -0.921875 -2.03125 -0.921875q-1.234375 0 -2.046875 0.921875q-0.796875 0.90625 -0.796875 2.765625z" fill-rule="nonzero"/><path fill="#cfe2f3" d="m329.89346 410.83466l143.71652 0l0 60.125977l-143.71652 0z" fill-rule="evenodd"/><path stroke="#000000" stroke-width="1.0" stroke-linejoin="round" stroke-linecap="butt" d="m329.89346 410.83466l143.71652 0l0 60.125977l-143.71652 0z" fill-rule="evenodd"/><path fill="#000000" d="m370.30475 447.81763l0 -13.359375l1.765625 0l0 13.359375l-1.765625 0zm4.886444 0l0 -13.359375l5.046875 0q1.328125 0 2.03125 0.125q0.96875 0.171875 1.640625 0.640625q0.671875 0.453125 1.078125 1.28125q0.40625 0.828125 0.40625 1.828125q0 1.703125 -1.09375 2.890625q-1.078125 1.171875 -3.921875 1.171875l-3.421875 0l0 5.421875l-1.765625 0zm1.765625 -7.0l3.453125 0q1.71875 0 2.4375 -0.640625q0.71875 -0.640625 0.71875 -1.796875q0 -0.84375 -0.421875 -1.4375q-0.421875 -0.59375 -1.125 -0.78125q-0.4375 -0.125 -1.640625 -0.125l-3.421875 0l0 4.78125zm16.787323 5.8125q-0.921875 0.765625 -1.765625 1.09375q-0.828125 0.3125 -1.796875 0.3125q-1.59375 0 -2.453125 -0.78125q-0.859375 -0.78125 -0.859375 -1.984375q0 -0.71875 0.328125 -1.296875q0.328125 -0.59375 0.84375 -0.9375q0.53125 -0.359375 1.1875 -0.546875q0.46875 -0.125 1.453125 -0.25q1.984375 -0.234375 2.921875 -0.5625q0.015625 -0.34375 0.015625 -0.421875q0 -1.0 -0.46875 -1.421875q-0.625 -0.546875 -1.875 -0.546875q-1.15625 0 -1.703125 0.40625q-0.546875 0.40625 -0.8125 1.421875l-1.609375 -0.21875q0.21875 -1.015625 0.71875 -1.640625q0.5 -0.640625 1.453125 -0.984375q0.953125 -0.34375 2.1875 -0.34375q1.25 0 2.015625 0.296875q0.78125 0.28125 1.140625 0.734375q0.375 0.4375 0.515625 1.109375q0.078125 0.421875 0.078125 1.515625l0 2.1875q0 2.28125 0.109375 2.890625q0.109375 0.59375 0.40625 1.15625l-1.703125 0q-0.265625 -0.515625 -0.328125 -1.1875zm-0.140625 -3.671875q-0.890625 0.375 -2.671875 0.625q-1.015625 0.140625 -1.4375 0.328125q-0.421875 0.1875 -0.65625 0.53125q-0.21875 0.34375 -0.21875 0.78125q0 0.65625 0.5 1.09375q0.5 0.4375 1.453125 0.4375q0.9375 0 1.671875 -0.40625q0.75 -0.421875 1.09375 -1.140625q0.265625 -0.5625 0.265625 -1.640625l0 -0.609375zm10.469452 4.859375l0 -1.21875q-0.90625 1.4375 -2.703125 1.4375q-1.15625 0 -2.125 -0.640625q-0.96875 -0.640625 -1.5 -1.78125q-0.53125 -1.140625 -0.53125 -2.625q0 -1.453125 0.484375 -2.625q0.484375 -1.1875 1.4375 -1.8125q0.96875 -0.625 2.171875 -0.625q0.875 0 1.546875 0.375q0.6875 0.359375 1.109375 0.953125l0 -4.796875l1.640625 0l0 13.359375l-1.53125 0zm-5.171875 -4.828125q0 1.859375 0.78125 2.78125q0.78125 0.921875 1.84375 0.921875q1.078125 0 1.828125 -0.875q0.75 -0.890625 0.75 -2.6875q0 -1.984375 -0.765625 -2.90625q-0.765625 -0.9375 -1.890625 -0.9375q-1.078125 0 -1.8125 0.890625q-0.734375 0.890625 -0.734375 2.8125zm13.199646 4.828125l5.125 -13.359375l1.90625 0l5.46875 13.359375l-2.015625 0l-1.546875 -4.046875l-5.59375 0l-1.46875 4.046875l-1.875 0zm3.859375 -5.484375l4.53125 0l-1.40625 -3.703125q-0.625 -1.6875 -0.9375 -2.765625q-0.265625 1.28125 -0.71875 2.546875l-1.46875 3.921875zm9.849823 -5.984375l0 -1.890625l1.640625 0l0 1.890625l-1.640625 0zm0 11.46875l0 -9.671875l1.640625 0l0 9.671875l-1.640625 0zm4.1292114 0l0 -9.671875l1.46875 0l0 1.46875q0.5625 -1.03125 1.03125 -1.359375q0.484375 -0.328125 1.0625 -0.328125q0.828125 0 1.6875 0.53125l-0.5625 1.515625q-0.609375 -0.359375 -1.203125 -0.359375q-0.546875 0 -0.96875 0.328125q-0.421875 0.328125 -0.609375 0.890625q-0.28125 0.875 -0.28125 1.921875l0 5.0625l-1.625 0z" fill-rule="nonzero"/><path fill="#cfe2f3" d="m500.6651 410.83466l143.71655 0l0 60.125977l-143.71655 0z" fill-rule="evenodd"/><path stroke="#000000" stroke-width="1.0" stroke-linejoin="round" stroke-linecap="butt" d="m500.6651 410.83466l143.71655 0l0 60.125977l-143.71655 0z" fill-rule="evenodd"/><path fill="#000000" d="m519.60693 447.81763l5.125 -13.359375l1.90625 0l5.46875 13.359375l-2.015625 0l-1.546875 -4.046875l-5.59375 0l-1.46875 4.046875l-1.875 0zm3.859375 -5.484375l4.53125 0l-1.40625 -3.703125q-0.625 -1.6875 -0.9375 -2.765625q-0.265625 1.28125 -0.71875 2.546875l-1.46875 3.921875zm9.8498535 9.1875l0 -13.375l1.484375 0l0 1.25q0.53125 -0.734375 1.1875 -1.09375q0.671875 -0.375 1.625 -0.375q1.234375 0 2.171875 0.640625q0.953125 0.625 1.4375 1.796875q0.484375 1.15625 0.484375 2.546875q0 1.484375 -0.53125 2.671875q-0.53125 1.1875 -1.546875 1.828125q-1.015625 0.625 -2.140625 0.625q-0.8125 0 -1.46875 -0.34375q-0.65625 -0.34375 -1.0625 -0.875l0 4.703125l-1.640625 0zm1.484375 -8.484375q0 1.859375 0.75 2.765625q0.765625 0.890625 1.828125 0.890625q1.09375 0 1.875 -0.921875q0.78125 -0.9375 0.78125 -2.875q0 -1.84375 -0.765625 -2.765625q-0.75 -0.921875 -1.8125 -0.921875q-1.046875 0 -1.859375 0.984375q-0.796875 0.96875 -0.796875 2.84375zm8.891296 8.484375l0 -13.375l1.484375 0l0 1.25q0.53125 -0.734375 1.1875 -1.09375q0.671875 -0.375 1.625 -0.375q1.234375 0 2.171875 0.640625q0.953125 0.625 1.4375 1.796875q0.484375 1.15625 0.484375 2.546875q0 1.484375 -0.53125 2.671875q-0.53125 1.1875 -1.546875 1.828125q-1.015625 0.625 -2.140625 0.625q-0.8125 0 -1.46875 -0.34375q-0.65625 -0.34375 -1.0625 -0.875l0 4.703125l-1.640625 0zm1.484375 -8.484375q0 1.859375 0.75 2.765625q0.765625 0.890625 1.828125 0.890625q1.09375 0 1.875 -0.921875q0.78125 -0.9375 0.78125 -2.875q0 -1.84375 -0.765625 -2.765625q-0.75 -0.921875 -1.8125 -0.921875q-1.046875 0 -1.859375 0.984375q-0.796875 0.96875 -0.796875 2.84375zm8.844482 4.78125l0 -13.359375l1.640625 0l0 13.359375l-1.640625 0zm10.816711 -3.109375l1.6875 0.203125q-0.40625 1.484375 -1.484375 2.3125q-1.078125 0.8125 -2.765625 0.8125q-2.125 0 -3.375 -1.296875q-1.234375 -1.3125 -1.234375 -3.671875q0 -2.453125 1.25 -3.796875q1.265625 -1.34375 3.265625 -1.34375q1.9375 0 3.15625 1.328125q1.234375 1.3125 1.234375 3.703125q0 0.15625 0 0.4375l-7.21875 0q0.09375 1.59375 0.90625 2.453125q0.8125 0.84375 2.015625 0.84375q0.90625 0 1.546875 -0.46875q0.640625 -0.484375 1.015625 -1.515625zm-5.390625 -2.65625l5.40625 0q-0.109375 -1.21875 -0.625 -1.828125q-0.78125 -0.953125 -2.03125 -0.953125q-1.125 0 -1.90625 0.765625q-0.765625 0.75 -0.84375 2.015625zm16.855896 5.765625l-3.53125 -13.359375l1.8125 0l2.03125 8.765625q0.328125 1.375 0.5625 2.71875q0.5 -2.140625 0.59375 -2.46875l2.546875 -9.015625l2.125 0l1.921875 6.765625q0.71875 2.515625 1.03125 4.71875q0.265625 -1.265625 0.671875 -2.890625l2.09375 -8.59375l1.78125 0l-3.671875 13.359375l-1.703125 0l-2.8125 -10.171875q-0.359375 -1.28125 -0.421875 -1.5625q-0.203125 0.90625 -0.390625 1.5625l-2.828125 10.171875l-1.8125 0zm21.389893 -1.1875q-0.921875 0.765625 -1.765625 1.09375q-0.828125 0.3125 -1.796875 0.3125q-1.59375 0 -2.453125 -0.78125q-0.859375 -0.78125 -0.859375 -1.984375q0 -0.71875 0.328125 -1.296875q0.328125 -0.59375 0.84375 -0.9375q0.53125 -0.359375 1.1875 -0.546875q0.46875 -0.125 1.453125 -0.25q1.984375 -0.234375 2.921875 -0.5625q0.015625 -0.34375 0.015625 -0.421875q0 -1.0 -0.46875 -1.421875q-0.625 -0.546875 -1.875 -0.546875q-1.15625 0 -1.703125 0.40625q-0.546875 0.40625 -0.8125 1.421875l-1.609375 -0.21875q0.21875 -1.015625 0.71875 -1.640625q0.5 -0.640625 1.453125 -0.984375q0.953125 -0.34375 2.1875 -0.34375q1.25 0 2.015625 0.296875q0.78125 0.28125 1.140625 0.734375q0.375 0.4375 0.515625 1.109375q0.078125 0.421875 0.078125 1.515625l0 2.1875q0 2.28125 0.109375 2.890625q0.109375 0.59375 0.40625 1.15625l-1.703125 0q-0.265625 -0.515625 -0.328125 -1.1875zm-0.140625 -3.671875q-0.890625 0.375 -2.671875 0.625q-1.015625 0.140625 -1.4375 0.328125q-0.421875 0.1875 -0.65625 0.53125q-0.21875 0.34375 -0.21875 0.78125q0 0.65625 0.5 1.09375q0.5 0.4375 1.453125 0.4375q0.9375 0 1.671875 -0.40625q0.75 -0.421875 1.09375 -1.140625q0.265625 -0.5625 0.265625 -1.640625l0 -0.609375zm7.7819824 3.390625l0.234375 1.453125q-0.6875 0.140625 -1.234375 0.140625q-0.890625 0 -1.390625 -0.28125q-0.484375 -0.28125 -0.6875 -0.734375q-0.203125 -0.46875 -0.203125 -1.9375l0 -5.578125l-1.203125 0l0 -1.265625l1.203125 0l0 -2.390625l1.625 -0.984375l0 3.375l1.65625 0l0 1.265625l-1.65625 0l0 5.671875q0 0.6875 0.078125 0.890625q0.09375 0.203125 0.28125 0.328125q0.203125 0.109375 0.578125 0.109375q0.265625 0 0.71875 -0.0625zm7.9176636 -2.078125l1.609375 0.21875q-0.265625 1.65625 -1.359375 2.609375q-1.078125 0.9375 -2.671875 0.9375q-1.984375 0 -3.1875 -1.296875q-1.203125 -1.296875 -1.203125 -3.71875q0 -1.578125 0.515625 -2.75q0.515625 -1.171875 1.578125 -1.75q1.0625 -0.59375 2.3125 -0.59375q1.578125 0 2.578125 0.796875q1.0 0.796875 1.28125 2.265625l-1.59375 0.234375q-0.234375 -0.96875 -0.8125 -1.453125q-0.578125 -0.5 -1.390625 -0.5q-1.234375 0 -2.015625 0.890625q-0.78125 0.890625 -0.78125 2.8125q0 1.953125 0.75 2.84375q0.75 0.875 1.953125 0.875q0.96875 0 1.609375 -0.59375q0.65625 -0.59375 0.828125 -1.828125zm3.015625 3.546875l0 -13.359375l1.640625 0l0 4.796875q1.140625 -1.328125 2.890625 -1.328125q1.078125 0 1.859375 0.421875q0.796875 0.421875 1.140625 1.171875q0.34375 0.75 0.34375 2.171875l0 6.125l-1.640625 0l0 -6.125q0 -1.234375 -0.53125 -1.796875q-0.53125 -0.5625 -1.515625 -0.5625q-0.71875 0 -1.359375 0.390625q-0.640625 0.375 -0.921875 1.015625q-0.265625 0.640625 -0.265625 1.78125l0 5.296875l-1.640625 0z" fill-rule="nonzero"/><path fill="#cfe2f3" d="m500.66403 279.91602l143.71652 0l0 60.125977l-143.71652 0z" fill-rule="evenodd"/><path stroke="#000000" stroke-width="1.0" stroke-linejoin="round" stroke-linecap="butt" d="m500.66403 279.91602l143.71652 0l0 60.125977l-143.71652 0z" fill-rule="evenodd"/><path fill="#000000" d="m527.0416 316.899l5.125 -13.359375l1.90625 0l5.46875 13.359375l-2.015625 0l-1.546875 -4.046875l-5.59375 0l-1.46875 4.046875l-1.875 0zm3.859375 -5.484375l4.53125 0l-1.40625 -3.703125q-0.625 -1.6875 -0.9375 -2.765625q-0.265625 1.28125 -0.71875 2.546875l-1.46875 3.921875zm9.8498535 9.1875l0 -13.375l1.484375 0l0 1.25q0.53125 -0.734375 1.1875 -1.09375q0.671875 -0.375 1.625 -0.375q1.234375 0 2.171875 0.640625q0.953125 0.625 1.4375 1.796875q0.484375 1.15625 0.484375 2.546875q0 1.484375 -0.53125 2.671875q-0.53125 1.1875 -1.546875 1.828125q-1.015625 0.625 -2.140625 0.625q-0.8125 0 -1.46875 -0.34375q-0.65625 -0.34375 -1.0625 -0.875l0 4.703125l-1.640625 0zm1.484375 -8.484375q0 1.859375 0.75 2.765625q0.765625 0.890625 1.828125 0.890625q1.09375 0 1.875 -0.921875q0.78125 -0.9375 0.78125 -2.875q0 -1.84375 -0.765625 -2.765625q-0.75 -0.921875 -1.8125 -0.921875q-1.046875 0 -1.859375 0.984375q-0.796875 0.96875 -0.796875 2.84375zm8.891296 8.484375l0 -13.375l1.484375 0l0 1.25q0.53125 -0.734375 1.1875 -1.09375q0.671875 -0.375 1.625 -0.375q1.234375 0 2.171875 0.640625q0.953125 0.625 1.4375 1.796875q0.484375 1.15625 0.484375 2.546875q0 1.484375 -0.53125 2.671875q-0.53125 1.1875 -1.546875 1.828125q-1.015625 0.625 -2.140625 0.625q-0.8125 0 -1.46875 -0.34375q-0.65625 -0.34375 -1.0625 -0.875l0 4.703125l-1.640625 0zm1.484375 -8.484375q0 1.859375 0.75 2.765625q0.765625 0.890625 1.828125 0.890625q1.09375 0 1.875 -0.921875q0.78125 -0.9375 0.78125 -2.875q0 -1.84375 -0.765625 -2.765625q-0.75 -0.921875 -1.8125 -0.921875q-1.046875 0 -1.859375 0.984375q-0.796875 0.96875 -0.796875 2.84375zm8.844482 4.78125l0 -13.359375l1.640625 0l0 13.359375l-1.640625 0zm10.816711 -3.109375l1.6875 0.203125q-0.40625 1.484375 -1.484375 2.3125q-1.078125 0.8125 -2.765625 0.8125q-2.125 0 -3.375 -1.296875q-1.234375 -1.3125 -1.234375 -3.671875q0 -2.453125 1.25 -3.796875q1.265625 -1.34375 3.265625 -1.34375q1.9375 0 3.15625 1.328125q1.234375 1.3125 1.234375 3.703125q0 0.15625 0 0.4375l-7.21875 0q0.09375 1.59375 0.90625 2.453125q0.8125 0.84375 2.015625 0.84375q0.90625 0 1.546875 -0.46875q0.640625 -0.484375 1.015625 -1.515625zm-5.390625 -2.65625l5.40625 0q-0.109375 -1.21875 -0.625 -1.828125q-0.78125 -0.953125 -2.03125 -0.953125q-1.125 0 -1.90625 0.765625q-0.765625 0.75 -0.84375 2.015625z" fill-rule="nonzero"/><path fill="#000000" d="m581.97174 304.7271l0 -1.40625l5.640625 0q0.453125 -0.828125 0.75 -1.9375l1.5625 0.296875q0.296875 0.296875 -0.234375 0.375q-0.21875 0.671875 -0.515625 1.265625l7.875 0l0 1.40625l-5.046875 0q1.546875 2.078125 5.78125 3.046875l-0.4375 1.484375q-2.078125 -0.375 -4.234375 -1.859375l0 0.8125l-6.453125 0l0 0.890625l6.96875 0l0 1.1875l-6.96875 0l0 0.75l6.96875 0l0 1.1875l-6.96875 0l0 0.8125l10.828125 0l0 1.40625l-9.28125 0l-1.328125 2.375l5.78125 -0.375l-1.328125 -0.8125l0.96875 -0.96875q2.671875 1.484375 4.375 3.046875l-1.1875 1.046875l-1.34375 -1.109375l-10.90625 0.953125q-0.078125 0.53125 -0.375 0.234375l-0.4375 -1.78125l2.8125 -0.15625l1.265625 -2.453125l-5.046875 0l0 -1.40625l3.71875 0l0 -4.96875q-1.484375 0.953125 -3.640625 1.546875l-0.515625 -1.484375q3.78125 -0.953125 5.859375 -3.40625l-4.90625 0zm6.609375 0q-1.03125 1.5625 -2.15625 2.296875l6.171875 0q-1.125 -0.8125 -2.015625 -2.296875l-2.0 0zm17.0 -3.421875q0.59375 0.078125 0.078125 0.453125l0 0.515625l2.734375 0l0 0.890625l-2.734375 0l0 0.8125l1.40625 0l0.21875 -0.21875l0.671875 0.96875l-0.375 0.140625q-2.296875 3.203125 -6.75 4.53125l-0.515625 -1.265625q1.703125 -0.359375 3.265625 -1.1875q-0.59375 -0.515625 -1.265625 -1.03125q-0.75 0.671875 -1.640625 1.109375l-0.65625 -1.109375q1.703125 -0.8125 2.890625 -2.453125l0.515625 0.515625l0.96875 0l0 -2.671875l1.1875 0zm2.59375 6.234375q-1.40625 1.78125 -3.859375 2.96875l8.234375 0q-2.734375 -1.328125 -4.375 -2.96875zm1.1875 7.65625q0.671875 0.734375 1.640625 1.109375l1.484375 -1.109375l-3.125 0zm-4.296875 -2.75l6.453125 0l0 -1.046875l-6.453125 0l0 1.046875zm-1.9375 -7.28125q0.59375 0.53125 1.40625 1.046875q0.75 -0.515625 1.484375 -1.34375l-2.59375 0l-0.296875 0.296875zm1.9375 9.140625l6.453125 0l0 -0.96875l-6.453125 0l0 0.96875zm4.671875 -5.125l0 0.890625l-2.96875 0l0 -0.890625l2.96875 0zm6.3125 -6.3125l-0.296875 0.21875q-0.890625 1.484375 -2.015625 2.53125q1.265625 0.8125 2.234375 1.703125l-1.1875 1.109375q-1.046875 -1.03125 -2.078125 -1.78125q-0.96875 0.75 -2.078125 1.265625q2.453125 1.703125 6.375 2.375l-0.515625 1.484375q-1.1875 -0.140625 -3.703125 -1.109375l0 4.296875l0.515625 -0.515625l1.1875 0.8125q0.515625 0.453125 -0.296875 0.375l-1.78125 1.1875q1.484375 0.375 4.453125 0.453125l-0.375 1.40625q-6.3125 -0.140625 -8.53125 -3.484375l-2.890625 0l0 1.703125l3.5625 -0.375l0 1.046875l-7.0625 0.96875q-0.296875 0.59375 -0.515625 0l-0.375 -1.421875l3.125 -0.140625l0 -6.171875q-1.40625 0.75 -3.265625 1.265625l-0.671875 -1.40625q5.859375 -1.34375 8.09375 -5.125l1.265625 0.453125q0.359375 0.21875 -0.234375 0.296875l-0.140625 0.21875q0.296875 0.296875 0.671875 0.59375q1.1875 -0.515625 2.140625 -1.265625q-1.109375 -0.734375 -1.84375 -1.109375l0.8125 -0.96875q1.109375 0.59375 2.0 1.1875q0.8125 -0.734375 1.34375 -1.5625l-4.75 0l0 -1.1875l5.484375 0l0.21875 -0.296875l1.125 0.96875z" fill-rule="nonzero"/><path fill="#cfe2f3" d="m721.83203 279.91602l143.71655 0l0 60.125977l-143.71655 0z" fill-rule="evenodd"/><path stroke="#000000" stroke-width="1.0" stroke-linejoin="round" stroke-linecap="butt" d="m721.83203 279.91602l143.71655 0l0 60.125977l-143.71655 0z" fill-rule="evenodd"/><path fill="#000000" d="m745.46814 312.6021l1.65625 -0.140625q0.125 1.0 0.546875 1.640625q0.4375 0.640625 1.34375 1.046875q0.921875 0.390625 2.0625 0.390625q1.0 0 1.78125 -0.296875q0.78125 -0.296875 1.15625 -0.8125q0.375 -0.53125 0.375 -1.15625q0 -0.625 -0.375 -1.09375q-0.359375 -0.46875 -1.1875 -0.796875q-0.546875 -0.203125 -2.390625 -0.640625q-1.828125 -0.453125 -2.5625 -0.84375q-0.96875 -0.5 -1.4375 -1.234375q-0.46875 -0.75 -0.46875 -1.671875q0 -1.0 0.578125 -1.875q0.578125 -0.890625 1.671875 -1.34375q1.109375 -0.453125 2.453125 -0.453125q1.484375 0 2.609375 0.484375q1.140625 0.46875 1.75 1.40625q0.609375 0.921875 0.65625 2.09375l-1.6875 0.125q-0.140625 -1.265625 -0.9375 -1.90625q-0.78125 -0.65625 -2.3125 -0.65625q-1.609375 0 -2.34375 0.59375q-0.734375 0.59375 -0.734375 1.421875q0 0.71875 0.53125 1.171875q0.5 0.46875 2.65625 0.96875q2.15625 0.484375 2.953125 0.84375q1.171875 0.53125 1.71875 1.359375q0.5625 0.828125 0.5625 1.90625q0 1.0625 -0.609375 2.015625q-0.609375 0.9375 -1.75 1.46875q-1.140625 0.515625 -2.578125 0.515625q-1.8125 0 -3.046875 -0.53125q-1.21875 -0.53125 -1.921875 -1.59375q-0.6875 -1.0625 -0.71875 -2.40625zm14.6154785 4.296875l-2.96875 -9.671875l1.703125 0l1.53125 5.578125l0.578125 2.078125q0.046875 -0.15625 0.5 -2.0l1.546875 -5.65625l1.6875 0l1.4375 5.609375l0.484375 1.84375l0.5625 -1.859375l1.65625 -5.59375l1.59375 0l-3.03125 9.671875l-1.703125 0l-1.53125 -5.796875l-0.375 -1.640625l-1.953125 7.4375l-1.71875 0zm11.69165 -11.46875l0 -1.890625l1.640625 0l0 1.890625l-1.640625 0zm0 11.46875l0 -9.671875l1.640625 0l0 9.671875l-1.640625 0zm7.7229614 -1.46875l0.234375 1.453125q-0.6875 0.140625 -1.234375 0.140625q-0.890625 0 -1.390625 -0.28125q-0.484375 -0.28125 -0.6875 -0.734375q-0.203125 -0.46875 -0.203125 -1.9375l0 -5.578125l-1.203125 0l0 -1.265625l1.203125 0l0 -2.390625l1.625 -0.984375l0 3.375l1.65625 0l0 1.265625l-1.65625 0l0 5.671875q0 0.6875 0.078125 0.890625q0.09375 0.203125 0.28125 0.328125q0.203125 0.109375 0.578125 0.109375q0.265625 0 0.71875 -0.0625zm7.9176636 -2.078125l1.609375 0.21875q-0.265625 1.65625 -1.359375 2.609375q-1.078125 0.9375 -2.671875 0.9375q-1.984375 0 -3.1875 -1.296875q-1.203125 -1.296875 -1.203125 -3.71875q0 -1.578125 0.515625 -2.75q0.515625 -1.171875 1.578125 -1.75q1.0625 -0.59375 2.3125 -0.59375q1.578125 0 2.578125 0.796875q1.0 0.796875 1.28125 2.265625l-1.59375 0.234375q-0.234375 -0.96875 -0.8125 -1.453125q-0.578125 -0.5 -1.390625 -0.5q-1.234375 0 -2.015625 0.890625q-0.78125 0.890625 -0.78125 2.8125q0 1.953125 0.75 2.84375q0.75 0.875 1.953125 0.875q0.96875 0 1.609375 -0.59375q0.65625 -0.59375 0.828125 -1.828125zm3.015625 3.546875l0 -13.359375l1.640625 0l0 4.796875q1.140625 -1.328125 2.890625 -1.328125q1.078125 0 1.859375 0.421875q0.796875 0.421875 1.140625 1.171875q0.34375 0.75 0.34375 2.171875l0 6.125l-1.640625 0l0 -6.125q0 -1.234375 -0.53125 -1.796875q-0.53125 -0.5625 -1.515625 -0.5625q-0.71875 0 -1.359375 0.390625q-0.640625 0.375 -0.921875 1.015625q-0.265625 0.640625 -0.265625 1.78125l0 5.296875l-1.640625 0z" fill-rule="nonzero"/><path fill="#000000" d="m806.75616 304.7271l0 -1.40625l5.640625 0q0.453125 -0.828125 0.75 -1.9375l1.5625 0.296875q0.296875 0.296875 -0.234375 0.375q-0.21875 0.671875 -0.515625 1.265625l7.875 0l0 1.40625l-5.046875 0q1.546875 2.078125 5.78125 3.046875l-0.4375 1.484375q-2.078125 -0.375 -4.234375 -1.859375l0 0.8125l-6.453125 0l0 0.890625l6.96875 0l0 1.1875l-6.96875 0l0 0.75l6.96875 0l0 1.1875l-6.96875 0l0 0.8125l10.828125 0l0 1.40625l-9.28125 0l-1.328125 2.375l5.78125 -0.375l-1.328125 -0.8125l0.96875 -0.96875q2.671875 1.484375 4.375 3.046875l-1.1875 1.046875l-1.34375 -1.109375l-10.90625 0.953125q-0.078125 0.53125 -0.375 0.234375l-0.4375 -1.78125l2.8125 -0.15625l1.265625 -2.453125l-5.046875 0l0 -1.40625l3.71875 0l0 -4.96875q-1.484375 0.953125 -3.640625 1.546875l-0.515625 -1.484375q3.78125 -0.953125 5.859375 -3.40625l-4.90625 0zm6.609375 0q-1.03125 1.5625 -2.15625 2.296875l6.171875 0q-1.125 -0.8125 -2.015625 -2.296875l-2.0 0zm17.0 -3.421875q0.59375 0.078125 0.078125 0.453125l0 0.515625l2.734375 0l0 0.890625l-2.734375 0l0 0.8125l1.40625 0l0.21875 -0.21875l0.671875 0.96875l-0.375 0.140625q-2.296875 3.203125 -6.75 4.53125l-0.515625 -1.265625q1.703125 -0.359375 3.265625 -1.1875q-0.59375 -0.515625 -1.265625 -1.03125q-0.75 0.671875 -1.640625 1.109375l-0.65625 -1.109375q1.703125 -0.8125 2.890625 -2.453125l0.515625 0.515625l0.96875 0l0 -2.671875l1.1875 0zm2.59375 6.234375q-1.40625 1.78125 -3.859375 2.96875l8.234375 0q-2.734375 -1.328125 -4.375 -2.96875zm1.1875 7.65625q0.671875 0.734375 1.640625 1.109375l1.484375 -1.109375l-3.125 0zm-4.296875 -2.75l6.453125 0l0 -1.046875l-6.453125 0l0 1.046875zm-1.9375 -7.28125q0.59375 0.53125 1.40625 1.046875q0.75 -0.515625 1.484375 -1.34375l-2.59375 0l-0.296875 0.296875zm1.9375 9.140625l6.453125 0l0 -0.96875l-6.453125 0l0 0.96875zm4.671875 -5.125l0 0.890625l-2.96875 0l0 -0.890625l2.96875 0zm6.3125 -6.3125l-0.296875 0.21875q-0.890625 1.484375 -2.015625 2.53125q1.265625 0.8125 2.234375 1.703125l-1.1875 1.109375q-1.046875 -1.03125 -2.078125 -1.78125q-0.96875 0.75 -2.078125 1.265625q2.453125 1.703125 6.375 2.375l-0.515625 1.484375q-1.1875 -0.140625 -3.703125 -1.109375l0 4.296875l0.515625 -0.515625l1.1875 0.8125q0.515625 0.453125 -0.296875 0.375l-1.78125 1.1875q1.484375 0.375 4.453125 0.453125l-0.375 1.40625q-6.3125 -0.140625 -8.53125 -3.484375l-2.890625 0l0 1.703125l3.5625 -0.375l0 1.046875l-7.0625 0.96875q-0.296875 0.59375 -0.515625 0l-0.375 -1.421875l3.125 -0.140625l0 -6.171875q-1.40625 0.75 -3.265625 1.265625l-0.671875 -1.40625q5.859375 -1.34375 8.09375 -5.125l1.265625 0.453125q0.359375 0.21875 -0.234375 0.296875l-0.140625 0.21875q0.296875 0.296875 0.671875 0.59375q1.1875 -0.515625 2.140625 -1.265625q-1.109375 -0.734375 -1.84375 -1.109375l0.8125 -0.96875q1.109375 0.59375 2.0 1.1875q0.8125 -0.734375 1.34375 -1.5625l-4.75 0l0 -1.1875l5.484375 0l0.21875 -0.296875l1.125 0.96875z" fill-rule="nonzero"/><path fill="#cfe2f3" d="m722.45526 410.83466l143.71655 0l0 60.125977l-143.71655 0z" fill-rule="evenodd"/><path stroke="#000000" stroke-width="1.0" stroke-linejoin="round" stroke-linecap="butt" d="m722.45526 410.83466l143.71655 0l0 60.125977l-143.71655 0z" fill-rule="evenodd"/><path fill="#000000" d="m741.9039 433.41138q-0.359375 2.078125 -1.1875 4.09375l0.234375 0.0625q0.21875 0.234375 -0.15625 0.453125l0 11.140625l-1.484375 0l0 -9.140625q-0.375 0.8125 -1.625 2.0l-1.125 -1.1875q3.125 -3.1875 3.796875 -8.234375l1.78125 0.453125q0.296875 0.296875 -0.234375 0.359375zm0.453125 1.421875q5.5625 -0.234375 8.984375 -1.34375l0.953125 1.5625q0.15625 0.375 -0.515625 0.140625q-1.5625 0.296875 -3.40625 0.53125l0 4.75l4.890625 0l0 1.40625l-4.890625 0l0 5.1875l4.375 0l0 1.421875l-10.546875 0l0 -1.421875l4.6875 0l0 -5.1875l-5.34375 0l0 -1.40625l5.34375 0l0 -4.53125q-2.53125 0.296875 -4.234375 0.375l-0.296875 -1.484375zm29.828125 14.171875q-5.640625 -1.703125 -7.9375 -6.6875q-1.328125 4.984375 -8.015625 6.90625l-0.515625 -1.859375q6.671875 -1.703125 7.265625 -6.671875l-6.078125 0l0 -1.40625l6.234375 0l0 -3.71875l-6.984375 0l0 -1.40625l16.109375 0l0 1.40625l-7.421875 0l0 3.71875l6.609375 0l0 1.40625l-6.390625 0q1.9375 4.96875 7.796875 6.375l-0.671875 1.9375zm16.328125 -15.0625q-0.515625 1.03125 -1.1875 1.921875l-1.328125 -0.59375q0.671875 -1.109375 1.1875 -2.296875l1.5625 0.59375q0.296875 0.296875 -0.234375 0.375zm-4.671875 2.0l7.28125 0l0 3.9375l-1.484375 0l0 -2.53125l-13.0 0l0 2.671875l-1.484375 0l0 -4.078125l7.203125 0l0 -3.5625l1.40625 0q0.59375 0.078125 0.078125 0.4375l0 3.125zm-5.125 -0.078125q-0.0625 -0.375 -1.25 -2.078125l1.328125 -0.8125q1.046875 1.1875 1.34375 2.078125l-1.421875 0.8125zm5.125 6.75l0 1.640625l5.640625 0l0 1.40625l-5.640625 0l0 1.859375l7.578125 0l0 1.40625l-16.484375 0l0 -1.40625l7.421875 0l0 -1.859375l-5.5625 0l0 -1.40625l5.5625 0l0 -1.640625l-2.0 0l-2.0 0l0 -4.15625l9.5625 0l0 4.15625l-4.078125 0zm2.59375 -1.1875l0 -1.78125l-6.59375 0l0 1.78125l6.59375 0z" fill-rule="nonzero"/><path fill="#000000" d="m798.77466 443.52075l1.65625 -0.140625q0.125 1.0 0.546875 1.640625q0.4375 0.640625 1.34375 1.046875q0.921875 0.390625 2.0625 0.390625q1.0 0 1.78125 -0.296875q0.78125 -0.296875 1.15625 -0.8125q0.375 -0.53125 0.375 -1.15625q0 -0.625 -0.375 -1.09375q-0.359375 -0.46875 -1.1875 -0.796875q-0.546875 -0.203125 -2.390625 -0.640625q-1.828125 -0.453125 -2.5625 -0.84375q-0.96875 -0.5 -1.4375 -1.234375q-0.46875 -0.75 -0.46875 -1.671875q0 -1.0 0.578125 -1.875q0.578125 -0.890625 1.671875 -1.34375q1.109375 -0.453125 2.453125 -0.453125q1.484375 0 2.609375 0.484375q1.140625 0.46875 1.75 1.40625q0.609375 0.921875 0.65625 2.09375l-1.6875 0.125q-0.140625 -1.265625 -0.9375 -1.90625q-0.78125 -0.65625 -2.3125 -0.65625q-1.609375 0 -2.34375 0.59375q-0.734375 0.59375 -0.734375 1.421875q0 0.71875 0.53125 1.171875q0.5 0.46875 2.65625 0.96875q2.15625 0.484375 2.953125 0.84375q1.171875 0.53125 1.71875 1.359375q0.5625 0.828125 0.5625 1.90625q0 1.0625 -0.609375 2.015625q-0.609375 0.9375 -1.75 1.46875q-1.140625 0.515625 -2.578125 0.515625q-1.8125 0 -3.046875 -0.53125q-1.21875 -0.53125 -1.921875 -1.59375q-0.6875 -1.0625 -0.71875 -2.40625zm14.6154785 4.296875l-2.96875 -9.671875l1.703125 0l1.53125 5.578125l0.578125 2.078125q0.046875 -0.15625 0.5 -2.0l1.546875 -5.65625l1.6875 0l1.4375 5.609375l0.484375 1.84375l0.5625 -1.859375l1.65625 -5.59375l1.59375 0l-3.03125 9.671875l-1.703125 0l-1.53125 -5.796875l-0.375 -1.640625l-1.953125 7.4375l-1.71875 0zm11.691711 -11.46875l0 -1.890625l1.640625 0l0 1.890625l-1.640625 0zm0 11.46875l0 -9.671875l1.640625 0l0 9.671875l-1.640625 0zm7.7229004 -1.46875l0.234375 1.453125q-0.6875 0.140625 -1.234375 0.140625q-0.890625 0 -1.390625 -0.28125q-0.484375 -0.28125 -0.6875 -0.734375q-0.203125 -0.46875 -0.203125 -1.9375l0 -5.578125l-1.203125 0l0 -1.265625l1.203125 0l0 -2.390625l1.625 -0.984375l0 3.375l1.65625 0l0 1.265625l-1.65625 0l0 5.671875q0 0.6875 0.078125 0.890625q0.09375 0.203125 0.28125 0.328125q0.203125 0.109375 0.578125 0.109375q0.265625 0 0.71875 -0.0625zm7.9177246 -2.078125l1.609375 0.21875q-0.265625 1.65625 -1.359375 2.609375q-1.078125 0.9375 -2.671875 0.9375q-1.984375 0 -3.1875 -1.296875q-1.203125 -1.296875 -1.203125 -3.71875q0 -1.578125 0.515625 -2.75q0.515625 -1.171875 1.578125 -1.75q1.0625 -0.59375 2.3125 -0.59375q1.578125 0 2.578125 0.796875q1.0 0.796875 1.28125 2.265625l-1.59375 0.234375q-0.234375 -0.96875 -0.8125 -1.453125q-0.578125 -0.5 -1.390625 -0.5q-1.234375 0 -2.015625 0.890625q-0.78125 0.890625 -0.78125 2.8125q0 1.953125 0.75 2.84375q0.75 0.875 1.953125 0.875q0.96875 0 1.609375 -0.59375q0.65625 -0.59375 0.828125 -1.828125zm3.015625 3.546875l0 -13.359375l1.640625 0l0 4.796875q1.140625 -1.328125 2.890625 -1.328125q1.078125 0 1.859375 0.421875q0.796875 0.421875 1.140625 1.171875q0.34375 0.75 0.34375 2.171875l0 6.125l-1.640625 0l0 -6.125q0 -1.234375 -0.53125 -1.796875q-0.53125 -0.5625 -1.515625 -0.5625q-0.71875 0 -1.359375 0.390625q-0.640625 0.375 -0.921875 1.015625q-0.265625 0.640625 -0.265625 1.78125l0 5.296875l-1.640625 0z" fill-rule="nonzero"/><path fill="#cfe2f3" d="m917.3948 410.83466l143.71655 0l0 60.125977l-143.71655 0z" fill-rule="evenodd"/><path stroke="#000000" stroke-width="1.0" stroke-linejoin="round" stroke-linecap="butt" d="m917.3948 410.83466l143.71655 0l0 60.125977l-143.71655 0z" fill-rule="evenodd"/><path fill="#000000" d="m950.2374 445.28638q1.1875 -1.328125 1.9375 -3.265625l1.25 0.296875q0.59375 0.234375 -0.140625 0.453125l-0.296875 0.59375l1.484375 0l0 -1.40625l-4.234375 0l0 3.328125zm-0.96875 -13.0625q0.59375 0.078125 0.078125 0.453125l0 1.1875l3.859375 0l0 -1.640625l1.40625 0q0.59375 0.078125 0.078125 0.453125l0 1.1875l4.828125 0l0 1.1875l-4.828125 0l0 0.59375l-0.296875 0l0 1.40625l4.828125 0l0 0.890625l-2.453125 0q0.8125 0.375 -0.078125 0.515625q-0.515625 0.375 -1.1875 0.671875q1.484375 0.453125 2.90625 0.96875l-0.96875 0.671875l2.21875 0l0 1.1875l-4.0 0q0.734375 0.0625 0.078125 0.4375l0 0.96875l3.484375 0l0 1.1875l-3.484375 0l0 0.890625l3.109375 0l0 1.1875l-3.109375 0l0 1.265625l4.15625 0l0 1.1875l-9.875 0l0 -1.1875l4.453125 0l0 -1.265625l-2.671875 0l0 -1.046875l-0.59375 0.671875l-0.96875 -0.671875q-0.296875 2.234375 -2.15625 3.875l-1.1875 -0.96875q2.078125 -1.5625 2.078125 -4.015625l0 -3.703125l0.890625 0l-0.734375 -0.75q2.296875 -0.296875 3.484375 -0.59375q-1.40625 -0.375 -2.75 -0.59375l0.828125 -0.890625l-1.78125 0l0 -0.890625l4.0 0l0 -1.40625l0.296875 0l0 -0.59375l-3.859375 0l0 1.109375l-1.484375 0l0 -1.109375l-4.671875 0l0 -1.1875l4.671875 0l0 -1.640625l1.40625 0zm4.984375 7.65625q-1.34375 0.59375 -3.421875 0.890625l5.9375 0q-1.265625 -0.53125 -2.515625 -0.890625zm-2.90625 -1.9375q1.1875 0.296875 2.828125 0.75q0.671875 -0.296875 1.265625 -0.75l-4.09375 0zm1.125 6.609375q-0.296875 0.4375 -0.59375 0.890625l2.59375 0l0 -0.890625l-2.0 0zm-4.015625 -7.578125q0.671875 0.53125 -0.078125 0.59375l-1.484375 3.859375q1.484375 1.421875 1.484375 3.265625q0 2.53125 -1.78125 2.53125l-0.734375 0l-0.515625 -1.40625l0.8125 0q0.734375 0 0.734375 -1.265625q0 -1.40625 -1.484375 -3.046875l1.421875 -3.703125l-1.9375 0l0 11.578125l-1.265625 0l0 -12.765625l3.796875 0l0.21875 -0.234375l0.8125 0.59375zm25.3125 -2.375q2.21875 1.78125 5.421875 2.90625l-0.75 1.328125q-0.515625 -0.140625 -1.03125 -0.4375l0 9.5q0 1.328125 -1.1875 1.328125l-1.484375 0l-0.375 -1.40625l1.328125 0q0.234375 0 0.234375 -0.21875l0 -8.609375l-4.75 0l0 9.9375l-1.484375 0l0 -9.9375l-4.75 0l0 10.171875l-1.484375 0l0 -10.625q-0.53125 0.296875 -0.96875 0.453125l-0.75 -1.265625q2.96875 -1.109375 4.90625 -3.125l-4.234375 0l0 -1.40625l15.953125 0l0 1.40625l-4.59375 0zm1.484375 9.359375q-0.375 0.515625 -0.890625 1.03125q0.59375 0.375 1.265625 0.96875l-0.59375 0.8125q-0.59375 -0.59375 -1.265625 -1.03125q-0.8125 0.8125 -1.640625 1.40625l-0.65625 -0.734375q0.890625 -0.59375 1.546875 -1.265625q-0.734375 -0.453125 -1.484375 -0.8125l0.53125 -0.671875q0.734375 0.296875 1.546875 0.8125q0.53125 -0.671875 0.96875 -1.328125l0.8125 0.515625q0.375 0.296875 -0.140625 0.296875zm-0.21875 -3.640625q-0.375 0.453125 -0.75 0.890625q0.59375 0.375 1.1875 0.96875l-0.671875 0.734375q-0.59375 -0.59375 -1.1875 -0.953125q-0.65625 0.734375 -1.625 1.40625l-0.671875 -0.75q0.96875 -0.59375 1.5625 -1.1875q-0.59375 -0.4375 -1.34375 -0.890625l0.59375 -0.734375q0.828125 0.4375 1.421875 0.890625q0.515625 -0.671875 0.890625 -1.1875l0.734375 0.515625q0.375 0.296875 -0.140625 0.296875zm-5.9375 3.265625q0.359375 0.296875 -0.15625 0.296875q-0.296875 0.453125 -0.8125 1.046875q0.671875 0.515625 1.265625 1.109375l-0.671875 0.890625q-0.59375 -0.75 -1.265625 -1.1875q-0.671875 0.734375 -1.78125 1.40625l-0.59375 -0.8125q0.96875 -0.59375 1.640625 -1.1875q-0.53125 -0.453125 -1.265625 -0.8125l0.515625 -0.828125q0.75 0.375 1.40625 0.828125q0.453125 -0.53125 0.890625 -1.265625l0.828125 0.515625zm-3.9375 -1.1875q0.890625 -0.59375 1.5625 -1.265625q-0.59375 -0.4375 -1.1875 -0.8125l0.515625 -0.671875q0.671875 0.375 1.328125 0.890625q0.453125 -0.4375 0.890625 -1.03125l0.75 0.515625q0.375 0.296875 -0.15625 0.296875q-0.4375 0.453125 -0.8125 0.8125q0.59375 0.453125 1.109375 1.046875l-0.65625 0.734375q-0.53125 -0.65625 -1.125 -1.109375q-0.65625 0.671875 -1.625 1.34375l-0.59375 -0.75zm4.53125 -7.796875l-2.828125 0l1.046875 0.890625q0.296875 0.296875 -0.453125 0.296875q-1.03125 0.890625 -2.671875 2.015625l4.90625 0l0 -3.203125zm1.484375 0l0 3.203125l5.046875 0q-1.5625 -0.75 -3.421875 -2.15625l0.890625 -1.046875l-2.515625 0zm12.828125 2.078125q-1.1875 -1.546875 -2.140625 -2.4375l1.1875 -1.125q1.03125 0.890625 2.21875 2.453125l-1.265625 1.109375zm-3.03125 10.765625l2.734375 -1.265625l0 -4.96875l-2.671875 0l0 -1.40625l4.15625 0l0 6.3125q1.5625 1.40625 4.015625 1.40625l8.6875 0l-0.296875 1.40625l-8.765625 0q-2.515625 0 -4.453125 -1.78125l-2.515625 1.9375l-0.890625 -1.640625zm11.28125 -15.0625q0.59375 0.078125 0.0625 0.4375l0 1.125l4.3125 0l0 1.1875l-4.3125 0l0 1.25l5.125 0l0 1.1875l-2.515625 0l-1.046875 1.78125l2.75 0l0 1.1875l-4.3125 0l0 1.1875l3.71875 0l0 1.1875l-3.71875 0l0 1.1875l5.125 0l0 1.1875l-5.125 0l0 1.640625l-1.484375 0l0 -1.640625l-4.96875 0l0 -1.1875l4.96875 0l0 -1.1875l-3.625 0l0 -1.1875l3.625 0l0 -1.1875l-4.21875 0l0 -1.1875l2.671875 0l-0.828125 -1.78125l-2.59375 0l0 -1.1875l4.96875 0l0 -1.25l-4.515625 0l0 -1.1875l4.515625 0l0 -1.5625l1.421875 0zm0.21875 6.96875l0.8125 -1.78125l-3.265625 0l0.8125 1.78125l1.640625 0zm6.90625 0.96875q2.890625 -3.484375 3.484375 -7.796875l1.40625 0.234375q0.75 0.140625 0 0.65625q-0.515625 2.078125 -1.1875 3.796875q0.8125 0.4375 0.21875 0.65625l0 11.734375l-1.484375 0l0 -9.953125q-0.734375 1.1875 -1.40625 1.9375l-1.03125 -1.265625zm6.234375 1.34375l0 -5.71875l3.859375 0l0 -0.75l-4.90625 0l0 -1.1875l4.90625 0l0 -1.546875l1.40625 0q0.59375 0.0625 0.078125 0.4375l0 1.109375l5.484375 0l0 1.1875l-5.484375 0l0 0.75l4.078125 0l0 5.421875l-1.109375 0q1.1875 0.8125 2.4375 1.84375l-1.03125 0.75l-0.890625 -0.75l-1.046875 0.078125l0 1.34375l3.640625 0l0 1.1875l-3.640625 0l0 2.375q0 1.328125 -1.109375 1.328125l-1.625 0l-0.296875 -1.40625l1.328125 0q0.21875 0 0.21875 -0.21875l0 -2.078125l-4.21875 0q0.890625 0.734375 1.703125 1.84375l-1.265625 0.96875q-0.734375 -0.96875 -1.78125 -1.921875l1.046875 -0.890625l-3.34375 0l0 -1.1875l7.859375 0l0 -1.265625l-6.453125 0.296875q-0.515625 0.671875 -0.671875 -0.078125l-0.21875 -1.1875l4.90625 0l0 -1.03125l-2.609375 0l0 0.296875l-1.25 0zm5.34375 -4.53125l0 0.890625l2.8125 0l0 -0.890625l-2.8125 0zm-4.09375 0l0 0.890625l2.609375 0l0 -0.890625l-2.609375 0zm4.09375 2.078125l0 0.96875l2.8125 0l0 -0.96875l-2.8125 0zm0 2.15625l0 0.953125l2.4375 0l-0.8125 -0.59375l0.8125 -0.359375l-2.4375 0zm-1.484375 -2.15625l-2.609375 0l0 0.96875l2.609375 0l0 -0.96875z" fill-rule="nonzero"/><path fill="#000000" d="m1033.7374 438.63013q-0.078125 0.8125 -0.078125 2.34375q0 1.53125 0.078125 2.546875l-1.75 0l0 3.34375q0 0.8125 0.109375 1.0625q0.109375 0.25 0.875 0.28125q0.765625 0.046875 1.015625 -0.28125q0.265625 -0.328125 0.328125 -1.5625q0.59375 0.4375 1.390625 0.578125q-0.359375 1.75 -0.765625 2.078125q-0.40625 0.328125 -1.03125 0.28125q-0.609375 -0.03125 -1.296875 0q-0.6875 0.046875 -1.34375 -0.21875q-0.65625 -0.25 -0.59375 -1.625l0 -3.9375l-1.09375 0q0 2.328125 -0.84375 3.71875q-0.828125 1.375 -2.28125 2.40625q-0.59375 -0.8125 -1.09375 -1.09375q1.53125 -0.59375 2.25 -1.96875q0.734375 -1.390625 0.734375 -3.0625l-1.3125 0q0.078125 -1.015625 0.078125 -2.484375q0 -1.53125 -0.15625 -2.40625l6.78125 0zm-9.1875 4.59375q-0.140625 0.65625 -0.140625 2.765625q0 2.125 0.140625 3.140625l-1.375 0l0 -1.234375l-2.625 0l0 1.453125l-1.453125 0q0.140625 -1.015625 0.140625 -3.203125q0 -2.1875 -0.078125 -2.921875l5.390625 0zm7.875 -0.71875l0 -2.84375l-4.15625 0l0 2.84375l4.15625 0zm-0.21875 -9.546875q0.296875 1.8125 1.390625 3.09375q1.09375 1.265625 2.328125 1.78125q-0.65625 0.578125 -0.953125 1.234375q-1.59375 -0.875 -2.65625 -2.515625q-1.046875 -1.640625 -1.34375 -3.453125q0.65625 0 1.234375 -0.140625zm-1.890625 0.796875q-0.515625 0.21875 -1.203125 1.3125q-0.6875 1.09375 -1.3125 2.0q-0.625 0.90625 -1.859375 2.21875q-0.4375 -0.71875 -1.015625 -1.15625q1.3125 -0.8125 2.328125 -2.40625q1.015625 -1.609375 1.390625 -2.921875l1.671875 0.953125zm-5.25 2.84375q-0.953125 -0.078125 -3.125 -0.078125q-2.125 0 -3.21875 0.078125l0 -1.25q1.09375 0.078125 3.21875 0.078125q2.171875 0 3.125 -0.078125l0 1.25zm-1.890625 10.265625l0 -2.625l-2.625 0l0 2.625l2.625 0zm1.234375 -7.71875q-1.015625 -0.078125 -2.625 -0.078125q-1.59375 0 -2.546875 0.078125l0 -1.171875q0.953125 0.078125 2.546875 0.078125q1.671875 0 2.625 -0.078125l0 1.171875zm0 2.546875q-0.734375 -0.0625 -2.328125 -0.0625q-1.53125 0 -2.703125 0.0625l0 -1.15625q1.171875 0.0625 2.625 0.0625q1.53125 0 2.40625 -0.0625l0 1.15625zm-2.546875 -6.703125q-0.515625 -0.875 -1.015625 -1.671875l1.015625 -0.734375q0.796875 0.953125 1.15625 1.671875q-0.578125 0.4375 -1.15625 0.734375z" fill-rule="nonzero"/><path fill="#000000" fill-opacity="0.0" d="m682.5722 227.49344l-110.04724 52.409454" fill-rule="evenodd"/><path stroke="#000000" stroke-width="1.0" stroke-linejoin="round" stroke-linecap="butt" d="m682.5722 227.49344l-104.63025 49.82959" fill-rule="evenodd"/><path fill="#000000" stroke="#000000" stroke-width="1.0" stroke-linecap="butt" d="m577.2318 275.8318l-3.387024 3.4425354l4.807373 -0.46002197z" fill-rule="evenodd"/><path fill="#000000" fill-opacity="0.0" d="m682.5722 227.49344l111.1181 52.409454" fill-rule="evenodd"/><path stroke="#000000" stroke-width="1.0" stroke-linejoin="round" stroke-linecap="butt" d="m682.5722 227.49344l105.69141 49.849915" fill-rule="evenodd"/><path fill="#000000" stroke="#000000" stroke-width="1.0" stroke-linecap="butt" d="m787.559 278.83728l4.809082 0.44198608l-3.3999023 -3.4298096z" fill-rule="evenodd"/><path fill="#000000" fill-opacity="0.0" d="m572.52234 340.042l-343.68506 70.80316" fill-rule="evenodd"/><path stroke="#000000" stroke-width="1.0" stroke-linejoin="round" stroke-linecap="butt" d="m572.52234 340.042l-337.80847 69.59253" fill-rule="evenodd"/><path fill="#000000" stroke="#000000" stroke-width="1.0" stroke-linecap="butt" d="m234.38058 408.01672l-4.1114807 2.5334473l4.7780304 0.7020874z" fill-rule="evenodd"/><path fill="#000000" fill-opacity="0.0" d="m572.52234 340.042l-170.77167 70.80316" fill-rule="evenodd"/><path stroke="#000000" stroke-width="1.0" stroke-linejoin="round" stroke-linecap="butt" d="m572.52234 340.042l-165.22919 68.50516" fill-rule="evenodd"/><path fill="#000000" stroke="#000000" stroke-width="1.0" stroke-linecap="butt" d="m406.66055 407.0214l-3.5594482 3.263855l4.824646 -0.21228027z" fill-rule="evenodd"/><path fill="#000000" fill-opacity="0.0" d="m572.52234 340.042l0 70.80316" fill-rule="evenodd"/><path stroke="#000000" stroke-width="1.0" stroke-linejoin="round" stroke-linecap="butt" d="m572.52234 340.042l0 64.80316" fill-rule="evenodd"/><path fill="#000000" stroke="#000000" stroke-width="1.0" stroke-linecap="butt" d="m570.8706 404.84515l1.6517334 4.538086l1.6517334 -4.538086z" fill-rule="evenodd"/><path fill="#000000" fill-opacity="0.0" d="m793.6903 340.042l0.6298828 70.80316" fill-rule="evenodd"/><path stroke="#000000" stroke-width="1.0" stroke-linejoin="round" stroke-linecap="butt" d="m793.6903 340.042l0.57647705 64.803406" fill-rule="evenodd"/><path fill="#000000" stroke="#000000" stroke-width="1.0" stroke-linecap="butt" d="m792.6152 404.86008l1.6920166 4.523224l1.6113281 -4.5526123z" fill-rule="evenodd"/><path fill="#000000" fill-opacity="0.0" d="m793.6903 340.042l195.55902 70.80316" fill-rule="evenodd"/><path stroke="#000000" stroke-width="1.0" stroke-linejoin="round" stroke-linecap="butt" d="m793.6903 340.042l189.91736 68.76059" fill-rule="evenodd"/><path fill="#000000" stroke="#000000" stroke-width="1.0" stroke-linecap="butt" d="m983.0454 410.35565l4.8293457 -0.008178711l-3.704712 -3.097992z" fill-rule="evenodd"/></g></svg>